<svg preserveAspectRatio="none" width="100%" height="100%" overflow="visible" style="display: block;" viewBox="0 0 28.6667 34" fill="none" xmlns="http://www.w3.org/2000/svg">
<g id="Group 118">
<path id="Line 188" d="M7.66667 6.10638H2C1.44771 6.10638 1 6.5541 1 7.10638V32C1 32.5523 1.44772 33 2 33H26.6667C27.219 33 27.6667 32.5523 27.6667 32V7.10638C27.6667 6.5541 27.219 6.10638 26.6667 6.10638H21M7.66667 6.10638V4.38298C7.66667 3.83069 8.11438 3.38298 8.66667 3.38298H10.3333V2C10.3333 1.44772 10.781 1 11.3333 1H17.3333C17.8856 1 18.3333 1.44771 18.3333 2V3.38298H20C20.5523 3.38298 21 3.83069 21 4.38298V6.10638M7.66667 6.10638V8.14894H14.3333H21V6.10638" stroke="var(--stroke-0, #0C8CE9)" stroke-width="2"/>
<path id="Line 189" d="M6.81042 16.85C6.72757 16.9605 6.74996 17.1172 6.86042 17.2C6.97087 17.2828 7.12757 17.2605 7.21042 17.15L7.01042 17L6.81042 16.85ZM20.2589 11.0276C20.2741 10.8904 20.1753 10.7668 20.038 10.7515L17.8018 10.5031C17.6646 10.4878 17.541 10.5867 17.5257 10.7239C17.5105 10.8611 17.6093 10.9848 17.7466 11L19.7343 11.2209L19.5135 13.2086C19.4982 13.3459 19.5971 13.4695 19.7343 13.4847C19.8716 13.5 19.9952 13.4011 20.0104 13.2638L20.2589 11.0276ZM15.1014 14.9272L15.2576 15.1224L15.1014 14.9272ZM9.91845 13.1226L9.71845 12.9726L9.91845 13.1226ZM10.1527 13.0569L10.0599 13.289L10.1527 13.0569ZM7.01042 17L7.21042 17.15L10.1185 13.2726L9.91845 13.1226L9.71845 12.9726L6.81042 16.85L7.01042 17ZM10.1527 13.0569L10.0599 13.289L14.8094 15.1888L14.9022 14.9567L14.9951 14.7246L10.2456 12.8248L10.1527 13.0569ZM15.1014 14.9272L15.2576 15.1224L20.1666 11.1952L20.0104 11L19.8542 10.8048L14.9452 14.732L15.1014 14.9272ZM14.9022 14.9567L14.8094 15.1888C14.9598 15.249 15.131 15.2237 15.2576 15.1224L15.1014 14.9272L14.9452 14.732C14.9593 14.7207 14.9783 14.7179 14.9951 14.7246L14.9022 14.9567ZM9.91845 13.1226L10.1185 13.2726C10.1049 13.2907 10.0809 13.2974 10.0599 13.289L10.1527 13.0569L10.2456 12.8248C10.0567 12.7492 9.84053 12.8098 9.71845 12.9726L9.91845 13.1226Z" fill="var(--stroke-0, #0C8CE9)"/>
<path id="Line 193" d="M21.0085 17L7.01042 17L7.01042 11" stroke="var(--stroke-0, #0C8CE9)" stroke-width="0.5" stroke-linecap="round"/>
<line id="Line 190" x1="3.51042" y1="20.5" x2="23.8438" y2="20.5" stroke="var(--stroke-0, #0C8CE9)" stroke-linecap="round"/>
<line id="Line 191" x1="3.51042" y1="24.5" x2="23.8438" y2="24.5" stroke="var(--stroke-0, #0C8CE9)" stroke-linecap="round"/>
<line id="Line 192" x1="3.51042" y1="28.5" x2="18.5104" y2="28.5" stroke="var(--stroke-0, #0C8CE9)" stroke-linecap="round"/>
</g>
</svg>
