<svg preserveAspectRatio="none" width="100%" height="100%" overflow="visible" style="display: block;" viewBox="0 0 32 32" fill="none" xmlns="http://www.w3.org/2000/svg">
<path id="Vector" d="M27.4286 22.847C26.6148 22.8515 25.8173 23.0753 25.12 23.4947L20.7623 19.1378C21.3832 18.2064 21.7145 17.1121 21.7145 15.9929C21.7145 14.8737 21.3832 13.7794 20.7623 12.848L23.6731 9.93845C24.4095 10.293 25.2476 10.3755 26.039 10.1715C26.8305 9.96753 27.5241 9.49011 27.9971 8.82385C28.4701 8.15759 28.6919 7.34549 28.6232 6.53143C28.5545 5.71736 28.1998 4.95386 27.6219 4.37618C27.0439 3.7985 26.2801 3.44393 25.4657 3.37529C24.6512 3.30664 23.8388 3.52834 23.1722 4.00112C22.5057 4.47389 22.028 5.16723 21.8239 5.95831C21.6198 6.74939 21.7025 7.58714 22.0571 8.32317L19.1463 11.2327C18.2144 10.6121 17.1197 10.281 16 10.281C14.8803 10.281 13.7856 10.6121 12.8537 11.2327L8.49486 6.87581C8.91429 6.17918 9.13814 5.38244 9.14286 4.5694C9.14286 3.66566 8.87475 2.78221 8.37243 2.03078C7.87012 1.27935 7.15616 0.693674 6.32084 0.347827C5.48552 0.00197984 4.56636 -0.0885095 3.67959 0.0878018C2.79282 0.264113 1.97827 0.699306 1.33894 1.33835C0.699617 1.97739 0.26423 2.79158 0.0878408 3.67796C-0.0885488 4.56433 0.00198072 5.48309 0.347981 6.31804C0.693982 7.15298 1.27991 7.86663 2.03168 8.36872C2.78345 8.87081 3.66729 9.1388 4.57143 9.1388C5.38522 9.13429 6.18273 8.91054 6.88 8.49109L11.2377 12.848C10.6168 13.7794 10.2855 14.8737 10.2855 15.9929C10.2855 17.1121 10.6168 18.2064 11.2377 19.1378L6.87886 23.4947C6.18192 23.0755 5.38483 22.8517 4.57143 22.847C3.66729 22.847 2.78345 23.115 2.03168 23.6171C1.27991 24.1192 0.693982 24.8328 0.347981 25.6678C0.00198072 26.5027 -0.0885488 27.4215 0.0878408 28.3078C0.26423 29.1942 0.699617 30.0084 1.33894 30.6475C1.97827 31.2865 2.79282 31.7217 3.67959 31.898C4.56636 32.0743 5.48552 31.9838 6.32084 31.638C7.15616 31.2921 7.87012 30.7065 8.37243 29.955C8.87475 29.2036 9.14286 28.3201 9.14286 27.4164C9.13835 26.603 8.91449 25.8058 8.49486 25.1089L12.8537 20.7531C13.4619 21.1572 14.142 21.4411 14.8571 21.5893V25.3419C14.0946 25.6114 13.4519 26.1416 13.0427 26.8389C12.6335 27.5362 12.484 28.3557 12.6208 29.1525C12.7576 29.9493 13.1717 30.6721 13.7901 31.1931C14.4085 31.7142 15.1912 32 16 32C16.8088 32 17.5915 31.7142 18.2099 31.1931C18.8283 30.6721 19.2424 29.9493 19.3792 29.1525C19.516 28.3557 19.3665 27.5362 18.9573 26.8389C18.5481 26.1416 17.9054 25.6114 17.1429 25.3419V21.5893C17.858 21.4411 18.5381 21.1572 19.1463 20.7531L23.5051 25.11C23.0857 25.8066 22.8619 26.6034 22.8571 27.4164C22.8571 28.3201 23.1253 29.2036 23.6276 29.955C24.1299 30.7065 24.8438 31.2921 25.6792 31.638C26.5145 31.9838 27.4336 32.0743 28.3204 31.898C29.2072 31.7217 30.0217 31.2865 30.6611 30.6475C31.3004 30.0084 31.7358 29.1942 31.9122 28.3078C32.0885 27.4215 31.998 26.5027 31.652 25.6678C31.306 24.8328 30.7201 24.1192 29.9683 23.6171C29.2166 23.115 28.3327 22.847 27.4286 22.847ZM16 12.5659C16.6781 12.5659 17.341 12.7668 17.9048 13.1434C18.4686 13.52 18.9081 14.0552 19.1676 14.6814C19.4271 15.3076 19.495 15.9967 19.3627 16.6615C19.2304 17.3263 18.9039 17.9369 18.4244 18.4162C17.9449 18.8955 17.334 19.2219 16.6689 19.3541C16.0038 19.4863 15.3144 19.4185 14.6879 19.1591C14.0615 18.8997 13.526 18.4604 13.1492 17.8969C12.7725 17.3333 12.5714 16.6707 12.5714 15.9929C12.5723 15.0843 12.9339 14.2131 13.5766 13.5706C14.2194 12.9281 15.091 12.5668 16 12.5659ZM2.28572 4.5694C2.28572 4.11753 2.41977 3.67581 2.67093 3.30009C2.92209 2.92437 3.27907 2.63154 3.69672 2.45861C4.11438 2.28569 4.57397 2.24045 5.01735 2.3286C5.46074 2.41676 5.86801 2.63435 6.18767 2.95388C6.50734 3.2734 6.72503 3.68049 6.81322 4.12368C6.90142 4.56687 6.85615 5.02625 6.68315 5.44372C6.51015 5.86119 6.21719 6.21802 5.8413 6.46906C5.46542 6.72011 5.0235 6.8541 4.57143 6.8541C3.96522 6.8541 3.38384 6.61339 2.95519 6.18493C2.52653 5.75647 2.28572 5.17534 2.28572 4.5694ZM4.57143 29.7011C4.11936 29.7011 3.67744 29.5671 3.30156 29.3161C2.92567 29.065 2.63271 28.7082 2.45971 28.2907C2.2867 27.8732 2.24144 27.4139 2.32963 26.9707C2.41783 26.5275 2.63552 26.1204 2.95519 25.8009C3.27485 25.4814 3.68212 25.2638 4.12551 25.1756C4.56889 25.0874 5.02848 25.1327 5.44614 25.3056C5.86379 25.4785 6.22077 25.7714 6.47193 26.1471C6.72309 26.5228 6.85714 26.9645 6.85714 27.4164C6.85714 28.0223 6.61633 28.6035 6.18767 29.0319C5.75902 29.4604 5.17764 29.7011 4.57143 29.7011ZM27.4286 29.7011C26.9765 29.7011 26.5346 29.5671 26.1587 29.3161C25.7828 29.065 25.4898 28.7082 25.3168 28.2907C25.1438 27.8732 25.0986 27.4139 25.1868 26.9707C25.275 26.5275 25.4927 26.1204 25.8123 25.8009C26.132 25.4814 26.5393 25.2638 26.9826 25.1756C27.426 25.0874 27.8856 25.1327 28.3033 25.3056C28.7209 25.4785 29.0779 25.7714 29.3291 26.1471C29.5802 26.5228 29.7143 26.9645 29.7143 27.4164C29.7134 28.0221 29.4723 28.6027 29.0438 29.0309C28.6154 29.4592 28.0345 29.7002 27.4286 29.7011Z" fill="var(--fill-0, #0C8CE9)"/>
</svg>
