<svg preserveAspectRatio="none" width="100%" height="100%" overflow="visible" style="display: block;" viewBox="0 0 48.6073 9.73926" fill="none" xmlns="http://www.w3.org/2000/svg">
<g id="Answers">
<path d="M0.182657 9.73926C0.0608856 9.73926 0 9.67838 0 9.55661V2.78369C0 2.72037 0.0243542 2.64731 0.0730627 2.5645L1.80465 0.109594C1.85823 0.0365313 1.93616 0 2.03845 0H4.45683C4.56399 0 4.64192 0.0365313 4.69063 0.109594L6.42952 2.5645C6.47823 2.63269 6.50258 2.70576 6.50258 2.78369V9.55661C6.50258 9.67838 6.4417 9.73926 6.31993 9.73926H4.25225C4.13048 9.73926 4.06959 9.67838 4.06959 9.55661V6.45144H2.4403V9.55661C2.4403 9.67838 2.37941 9.73926 2.25764 9.73926H0.182657ZM3.25129 4.88059C3.69941 4.88059 4.0014 4.78317 4.15727 4.58834C4.31801 4.38863 4.39838 4.01114 4.39838 3.45587C4.39838 2.90059 4.31801 2.52554 4.15727 2.3307C4.0014 2.131 3.69941 2.03114 3.25129 2.03114C2.80804 2.03114 2.50605 2.131 2.34531 2.3307C2.18945 2.52554 2.11151 2.90059 2.11151 3.45587C2.11151 4.01114 2.18945 4.38863 2.34531 4.58834C2.50605 4.78317 2.80804 4.88059 3.25129 4.88059Z" fill="var(--fill-0, #5C5C5C)"/>
<path d="M8.39628 9.73926C8.27451 9.73926 8.21362 9.67838 8.21362 9.55661V1.88502C8.21362 1.76325 8.27451 1.70236 8.39628 1.70236H12.3051C12.4172 1.70236 12.5146 1.74376 12.5974 1.82657L14.0586 3.28782C14.1414 3.36576 14.1828 3.46317 14.1828 3.58007V9.55661C14.1828 9.67838 14.122 9.73926 14.0002 9.73926H12.0494C11.9276 9.73926 11.8668 9.67838 11.8668 9.55661V3.87232C11.8668 3.6434 11.7523 3.52893 11.5234 3.52893H10.5297V9.55661C10.5297 9.67838 10.4688 9.73926 10.3471 9.73926H8.39628Z" fill="var(--fill-0, #5C5C5C)"/>
<path d="M15.8471 9.73926C15.7253 9.73926 15.6644 9.67838 15.6644 9.55661V8.37299C15.6644 8.26096 15.701 8.1879 15.774 8.1538L17.2645 7.26974V6.50989L15.774 5.7062C15.701 5.66236 15.6644 5.58686 15.6644 5.47971V3.149C15.6644 3.09542 15.6717 3.05159 15.6863 3.01749C15.7058 2.9834 15.7326 2.95417 15.7667 2.92982L17.3229 1.79004C17.3765 1.75107 17.4204 1.72672 17.4545 1.71697C17.4886 1.70723 17.5227 1.70236 17.5567 1.70236H19.3322C19.4539 1.70236 19.5148 1.76325 19.5148 1.88502V3.0321C19.5148 3.11491 19.5075 3.17092 19.4929 3.20015C19.4832 3.22937 19.4588 3.25373 19.4198 3.27321L18.039 4.01845V4.86598L19.5148 5.59661C19.5976 5.6307 19.639 5.70376 19.639 5.81579V8.05882C19.639 8.18059 19.5976 8.27801 19.5148 8.35107L17.9586 9.64428C17.8807 9.7076 17.7832 9.73926 17.6663 9.73926H15.8471Z" fill="var(--fill-0, #5C5C5C)"/>
<path d="M22.9974 9.73926C22.8854 9.73926 22.788 9.69786 22.7052 9.61506L21.2439 8.1538C21.1611 8.07587 21.1197 7.97845 21.1197 7.86155V1.88502C21.1197 1.76325 21.1806 1.70236 21.3024 1.70236H23.2531C23.3749 1.70236 23.4358 1.76325 23.4358 1.88502V7.91269H24.6559V1.88502C24.6559 1.76325 24.7168 1.70236 24.8386 1.70236H26.7821C26.9038 1.70236 26.9647 1.76325 26.9647 1.88502V7.91269H28.1849V1.88502C28.1849 1.76325 28.2457 1.70236 28.3675 1.70236H30.3183C30.4401 1.70236 30.5009 1.76325 30.5009 1.88502V7.86155C30.5009 7.97845 30.4595 8.07587 30.3767 8.1538L28.9155 9.61506C28.8327 9.69786 28.7353 9.73926 28.6232 9.73926H26.9574C26.8405 9.73926 26.7431 9.69786 26.6652 9.61506L25.6788 8.62871H25.9418L24.9555 9.61506C24.8776 9.69786 24.7801 9.73926 24.6632 9.73926H22.9974Z" fill="var(--fill-0, #5C5C5C)"/>
<path d="M35.4748 9.73926C35.4261 9.73926 35.3725 9.73196 35.3141 9.71734C35.2605 9.70273 35.2093 9.69055 35.1606 9.68081L33.8601 9.35934L32.3696 8.86251C32.2235 8.8138 32.1505 8.67255 32.1505 8.43875V3.58007C32.1505 3.46317 32.1919 3.36576 32.2747 3.28782L33.7359 1.82657C33.8187 1.74376 33.9161 1.70236 34.0282 1.70236H36.3662C36.4782 1.70236 36.5756 1.74376 36.6584 1.82657L38.1197 3.28782C38.2025 3.36576 38.2439 3.46317 38.2439 3.58007V6.57565H34.3204L34.2693 7.54738L35.3068 7.89078L37.1699 8.02229C37.2527 8.0369 37.2941 8.09292 37.2941 8.19033V9.55661C37.2941 9.67838 37.2332 9.73926 37.1114 9.73926H35.4748ZM35.1826 5.42856H35.3214C35.56 5.42856 35.75 5.33845 35.8913 5.15823C36.0374 4.97801 36.1105 4.73447 36.1105 4.4276V4.28148C36.1105 3.97948 36.0374 3.73838 35.8913 3.55816C35.75 3.37793 35.56 3.28782 35.3214 3.28782H35.1753C34.9415 3.28782 34.7539 3.37793 34.6127 3.55816C34.4763 3.73838 34.4081 3.97948 34.4081 4.28148V4.4276C34.4081 4.73447 34.4763 4.97801 34.6127 5.15823C34.7539 5.33845 34.9439 5.42856 35.1826 5.42856Z" fill="var(--fill-0, #5C5C5C)"/>
<path d="M39.9474 9.73926C39.8256 9.73926 39.7647 9.67838 39.7647 9.55661V1.88502C39.7647 1.76325 39.8256 1.70236 39.9474 1.70236H41.0579C41.1505 1.70236 41.2309 1.74376 41.2991 1.82657L42.0151 2.65218L42.8114 1.79004C42.865 1.73159 42.9332 1.70236 43.016 1.70236H43.8051C43.9269 1.70236 43.9878 1.76325 43.9878 1.88502V3.45587C43.9878 3.5338 43.9829 3.58738 43.9731 3.61661C43.9634 3.64096 43.9366 3.66775 43.8928 3.69697L42.0808 5.03402V9.55661C42.0808 9.67838 42.0199 9.73926 41.8982 9.73926H39.9474Z" fill="var(--fill-0, #5C5C5C)"/>
<path d="M44.8153 9.73926C44.6935 9.73926 44.6327 9.67838 44.6327 9.55661V8.37299C44.6327 8.26096 44.6692 8.1879 44.7422 8.1538L46.2327 7.26974V6.50989L44.7422 5.7062C44.6692 5.66236 44.6327 5.58686 44.6327 5.47971V3.149C44.6327 3.09542 44.64 3.05159 44.6546 3.01749C44.6741 2.9834 44.7008 2.95417 44.7349 2.92982L46.2912 1.79004C46.3448 1.75107 46.3886 1.72672 46.4227 1.71697C46.4568 1.70723 46.4909 1.70236 46.525 1.70236H48.3004C48.4222 1.70236 48.4831 1.76325 48.4831 1.88502V3.0321C48.4831 3.11491 48.4758 3.17092 48.4611 3.20015C48.4514 3.22937 48.427 3.25373 48.3881 3.27321L47.0072 4.01845V4.86598L48.4831 5.59661C48.5659 5.6307 48.6073 5.70376 48.6073 5.81579V8.05882C48.6073 8.18059 48.5659 8.27801 48.4831 8.35107L46.9268 9.64428C46.8489 9.7076 46.7515 9.73926 46.6346 9.73926H44.8153Z" fill="var(--fill-0, #5C5C5C)"/>
</g>
</svg>
