<svg preserveAspectRatio="none" width="100%" height="100%" overflow="visible" style="display: block;" viewBox="0 0 29.6912 29.6912" fill="none" xmlns="http://www.w3.org/2000/svg">
<g id="devicon:gardener" clip-path="url(#clip0_0_13)">
<path id="Vector" fill-rule="evenodd" clip-rule="evenodd" d="M14.5524 0.367003C14.645 0.322232 14.7465 0.298977 14.8493 0.298977C14.9522 0.298977 15.0537 0.322232 15.1463 0.367003L26.5027 5.85756C26.5954 5.90246 26.6768 5.96764 26.7409 6.04826C26.8049 6.12889 26.8501 6.22291 26.8729 6.32334L29.6778 18.66C29.7242 18.8642 29.6755 19.0778 29.5456 19.2413L21.6867 29.1345C21.6227 29.2151 21.5414 29.2802 21.4488 29.3249C21.3562 29.3697 21.2546 29.393 21.1518 29.3932H8.54693C8.33862 29.3932 8.14192 29.2981 8.01202 29.1345L0.153129 19.2413C0.0889655 19.1605 0.0437728 19.0663 0.020888 18.9657C-0.00199682 18.8651 -0.00198929 18.7606 0.02091 18.66L2.8258 6.32334C2.84859 6.22286 2.8937 6.1288 2.95779 6.04813C3.02188 5.96746 3.1033 5.90225 3.19601 5.85733L14.5524 0.367003Z" fill="var(--fill-0, #009F76)"/>
<path id="Vector_2" d="M10.4474 8.79403L0.946905 14.5873L0.0209104 18.6601C-0.0254821 18.8642 0.02323 19.0781 0.153129 19.2414L8.01202 29.1344C8.07601 29.2149 8.15733 29.28 8.24994 29.3248C8.34255 29.3695 8.44406 29.3929 8.54693 29.393H11.3168L21.6171 20.2727L10.4474 8.79403Z" fill="var(--fill-0, #007155)"/>
<path id="Vector_3" fill-rule="evenodd" clip-rule="evenodd" d="M18.9363 8.39563C18.9838 8.51532 19.0094 8.64476 19.0094 8.77744V13.5512C19.0094 13.7221 18.967 13.8903 18.886 14.0407C18.805 14.1912 18.6879 14.3192 18.5452 14.4132L15.0927 16.6823C14.9257 16.7921 14.7303 16.8506 14.5305 16.8506C14.3307 16.8506 14.1353 16.7921 13.9683 16.6823L10.5158 14.4132C10.3975 14.3354 10.2965 14.234 10.2192 14.1154C10.1418 13.9967 10.0898 13.8635 10.0663 13.7238L18.9363 8.39563Z" fill="url(#paint0_linear_0_13)"/>
<path id="Vector_4" fill-rule="evenodd" clip-rule="evenodd" d="M18.9815 14.4122C18.9016 14.5504 18.7904 14.668 18.6568 14.7555L15.2047 17.0245C15.0378 17.1343 14.8423 17.1928 14.6425 17.1928C14.4427 17.1928 14.2473 17.1343 14.0804 17.0245L10.6276 14.7555C10.485 14.6614 10.3679 14.5334 10.2869 14.3829C10.206 14.2324 10.1636 14.0641 10.1637 13.8933V9.1197C10.1637 8.98679 10.1892 8.85712 10.2368 8.7372L18.9815 14.4122Z" fill="url(#paint1_linear_0_13)"/>
<path id="Vector_5" fill-rule="evenodd" clip-rule="evenodd" d="M7.87352 12.0438C7.80522 12.1845 7.76976 12.3388 7.76984 12.4952V19.5485C7.76984 19.9164 7.96538 20.2567 8.28294 20.4409L14.3673 23.9674C14.5233 24.0579 14.7004 24.1055 14.8807 24.1055C15.0609 24.1055 15.238 24.0579 15.394 23.9674L21.4781 20.4409C21.6924 20.3165 21.8546 20.119 21.9351 19.8846L7.87352 12.0438Z" fill="url(#paint2_linear_0_13)"/>
<path id="Vector_6" fill-rule="evenodd" clip-rule="evenodd" d="M7.94149 20.1186C8.02876 20.2511 8.14575 20.3615 8.28317 20.441L14.3675 23.9675C14.5235 24.058 14.7006 24.1056 14.8809 24.1056C15.0612 24.1056 15.2383 24.058 15.3942 23.9675L21.4784 20.441C21.6345 20.3502 21.7641 20.22 21.8542 20.0634C21.9443 19.9068 21.9917 19.7293 21.9917 19.5486V12.4951C21.9917 12.3643 21.9669 12.2367 21.9207 12.1186L7.94149 20.1186Z" fill="url(#paint3_linear_0_13)"/>
</g>
<defs>
<linearGradient id="paint0_linear_0_13" x1="22.4861" y1="10.0099" x2="16.2182" y2="19.0767" gradientUnits="userSpaceOnUse">
<stop stop-color="white"/>
<stop offset="1" stop-color="#439246"/>
</linearGradient>
<linearGradient id="paint1_linear_0_13" x1="22.093" y1="13.3298" x2="13.9205" y2="28.0507" gradientUnits="userSpaceOnUse">
<stop stop-color="white"/>
<stop offset="1" stop-color="#439246"/>
</linearGradient>
<linearGradient id="paint2_linear_0_13" x1="4.3244" y1="14.7555" x2="11.479" y2="26.342" gradientUnits="userSpaceOnUse">
<stop stop-color="white"/>
<stop offset="1" stop-color="#439246"/>
</linearGradient>
<linearGradient id="paint3_linear_0_13" x1="6.75505" y1="20.0991" x2="15.6481" y2="37.1557" gradientUnits="userSpaceOnUse">
<stop stop-color="white"/>
<stop offset="1" stop-color="#439246"/>
</linearGradient>
<clipPath id="clip0_0_13">
<rect width="29.6912" height="29.6912" fill="white"/>
</clipPath>
</defs>
</svg>
