<svg preserveAspectRatio="none" width="100%" height="100%" overflow="visible" style="display: block;" viewBox="0 0 9.50095 9.50095" fill="none" xmlns="http://www.w3.org/2000/svg">
<g id="Vector (1) 1" clip-path="url(#clip0_0_5)">
<path id="Vector" d="M9.49857 7.96033C9.49857 9.20305 8.23574 9.49988 6.67798 9.49988H1.9275C0.861664 9.49988 -0.0023753 8.81058 -0.0023753 7.96033L0.591434 6.32183C0.591434 6.17556 0.427458 6.32183 0.591434 6.32183C0.75541 6.32183 0.591434 6.17556 0.591434 6.32183V7.51359C0.591434 8.31804 1.32254 8.9702 2.22441 8.9702H6.67798C7.90779 8.9702 8.90476 8.08091 8.90476 6.98392C8.90476 5.88693 7.90779 4.99764 6.67798 4.99764H2.07596C2.07596 5.14391 1.91198 4.99764 2.07596 4.99764C2.07596 4.85137 1.91198 4.99764 2.07596 4.99764L4.32258 4.46796H6.67798C8.23574 4.46796 9.49857 6.71766 9.49857 7.96033Z" fill="var(--fill-0, white)"/>
<path id="Vector_2" d="M-0.0023753 7.96067C-0.0023753 9.20339 1.26045 9.50022 2.81822 9.50022H7.56869C8.63454 9.50022 9.49857 8.81092 9.49857 7.96067L8.90476 6.31386C9.06873 6.31386 8.90476 6.16722 8.90476 6.31386C8.90476 6.16722 8.74079 6.31386 8.90476 6.31386V7.50875C8.90476 8.31529 8.17366 8.96919 7.27179 8.96919H2.81822C1.5884 8.96919 0.591434 8.07753 0.591434 6.97769C0.591434 5.87783 1.5884 4.98622 2.81822 4.98622H7.42024C7.58422 4.98622 7.42024 5.13287 7.42024 4.98622C7.58422 4.98622 7.42024 4.83957 7.42024 4.98622L6.2821 4.72069L5.14397 4.48768H2.81822C1.26045 4.48768 -0.0023753 6.718 -0.0023753 7.96067Z" fill="var(--fill-0, white)"/>
<path id="Vector_3" d="M-0.0023753 1.51812C-0.0023753 0.292539 1.26045 -0.000218045 2.81822 -0.000218045H7.56869C8.63454 -0.000218045 9.49857 0.679564 9.49857 1.51812L8.90476 3.16806C9.06873 3.16806 8.90476 3.31389 8.90476 3.16806C8.90476 3.31389 8.74079 3.16806 8.90476 3.16806V1.97996C8.90476 1.17797 8.17366 0.527829 7.27179 0.527829H2.81822C1.5884 0.527829 0.591434 1.41439 0.591434 2.50801C0.591434 3.60163 1.5884 4.48819 2.81822 4.48819H7.42024C7.58422 4.48819 7.42024 4.34237 7.42024 4.48819C7.58422 4.48819 7.42024 4.634 7.42024 4.48819L5.14397 4.96056L2.81822 4.98673C1.26045 4.98673 -0.0023753 2.74369 -0.0023753 1.51812Z" fill="var(--fill-0, white)"/>
<path id="Vector_4" d="M9.49857 1.51812C9.49857 0.292539 8.23574 -0.000218045 6.67798 -0.000218045H1.9275C0.861664 -0.000218045 -0.0023753 0.679564 -0.0023753 1.51812L0.591434 3.15195C0.591434 3.29702 0.427458 3.15195 0.591434 3.15195C0.75541 3.15195 0.591434 3.29702 0.591434 3.15195V1.96989C0.591434 1.17198 1.32254 0.525144 2.22441 0.525144H6.67798C7.90779 0.525144 8.90476 1.40719 8.90476 2.49525C8.90476 3.58331 7.90779 4.46535 6.67798 4.46535H2.07596C2.07596 4.32028 1.91198 4.46535 2.07596 4.46535C2.07596 4.61043 1.91198 4.46535 2.07596 4.46535L4.35657 4.99072H6.67798C8.23574 4.99072 9.49857 2.74369 9.49857 1.51812Z" fill="var(--fill-0, white)"/>
</g>
<defs>
<clipPath id="clip0_0_5">
<rect width="9.50095" height="9.50095" fill="white"/>
</clipPath>
</defs>
</svg>
