<svg width="58" height="58" viewBox="0 0 58 58" fill="none" xmlns="http://www.w3.org/2000/svg">
<path d="M1 15V8C1 6.14348 1.7375 4.36301 3.05025 3.05025C4.36301 1.7375 6.14348 1 8 1H15M1 43V50C1 51.8565 1.7375 53.637 3.05025 54.9497C4.36301 56.2625 6.14348 57 8 57H15M43 1H50C51.8565 1 53.637 1.7375 54.9497 3.05025C56.2625 4.36301 57 6.14348 57 8V15M43 57H50C51.8565 57 53.637 56.2625 54.9497 54.9497C56.2625 53.637 57 51.8565 57 50V43M22 25.5V18.5C22 16.6435 22.7375 14.863 24.0503 13.5503C25.363 12.2375 27.1435 11.5 29 11.5C30.8565 11.5 32.637 12.2375 33.9497 13.5503C35.2625 14.863 36 16.6435 36 18.5V25.5M15 29C15 28.0717 15.3687 27.1815 16.0251 26.5251C16.6815 25.8687 17.5717 25.5 18.5 25.5H39.5C40.4283 25.5 41.3185 25.8687 41.9749 26.5251C42.6313 27.1815 43 28.0717 43 29V39.5C43 40.4283 42.6313 41.3185 41.9749 41.9749C41.3185 42.6313 40.4283 43 39.5 43H18.5C17.5717 43 16.6815 42.6313 16.0251 41.9749C15.3687 41.3185 15 40.4283 15 39.5V29Z" stroke="#0C8CE9" stroke-width="2" stroke-linecap="round" stroke-linejoin="round"/>
</svg>
