<svg width="112" height="38" viewBox="0 0 112 38" fill="none" xmlns="http://www.w3.org/2000/svg">
<rect width="21.3328" height="21.3328" rx="5.3332" fill="#0C8CE9"/>
<g clip-path="url(#clip0_3045_9914)">
<path d="M18.6676 16.0724C18.6676 18.1652 16.5409 18.665 13.9177 18.665H5.91789C4.12301 18.665 2.66797 17.5043 2.66797 16.0724L3.66794 13.3132C3.39181 13.3132 3.66794 13.0669 3.66794 13.3132C3.66794 13.0669 3.94408 13.3132 3.66794 13.3132V15.3201C3.66794 16.6748 4.89913 17.7731 6.41787 17.7731H13.9177C15.9887 17.7731 17.6676 16.2755 17.6676 14.4282C17.6676 12.5808 15.9887 11.0833 13.9177 11.0833H6.16788C5.89174 11.0833 6.16788 11.3296 6.16788 11.0833C5.89174 11.0833 6.16788 10.8369 6.16788 11.0833L9.9512 10.1913H13.9177C16.5409 10.1913 18.6676 13.9798 18.6676 16.0724Z" fill="white"/>
<path d="M2.66797 16.0729C2.66797 18.1656 4.79457 18.6655 7.41785 18.6655H15.4176C17.2125 18.6655 18.6676 17.5047 18.6676 16.0729L17.6676 13.2997C17.6676 13.0527 17.9437 13.2997 17.6676 13.2997C17.3915 13.2997 17.6676 13.0527 17.6676 13.2997V15.3118C17.6676 16.6701 16.4364 17.7712 14.9177 17.7712H7.41785C5.34683 17.7712 3.66794 16.2697 3.66794 14.4175C3.66794 12.5654 5.34683 11.0639 7.41785 11.0639H15.1676C15.1676 11.3109 15.4438 11.0639 15.1676 11.0639C15.1676 10.8169 15.4438 11.0639 15.1676 11.0639L13.251 10.6168L11.3344 10.2244H7.41785C4.79457 10.2244 2.66797 13.9802 2.66797 16.0729Z" fill="white"/>
<path d="M2.66797 5.22351C2.66797 3.15963 4.79457 2.66663 7.41785 2.66663H15.4176C17.2125 2.66663 18.6676 3.81138 18.6676 5.22351L17.6676 8.00201C17.6676 8.24758 17.9437 8.00201 17.6676 8.00201C17.3915 8.00201 17.6676 8.24758 17.6676 8.00201V6.00125C17.6676 4.6507 16.4364 3.55586 14.9177 3.55586H7.41785C5.34683 3.55586 3.66794 5.04882 3.66794 6.89048C3.66794 8.73214 5.34683 10.2251 7.41785 10.2251H15.1676C15.1676 9.97955 15.4438 10.2251 15.1676 10.2251C15.1676 10.4707 15.4438 10.2251 15.1676 10.2251L11.3344 11.0206L7.41785 11.0646C4.79457 11.0646 2.66797 7.28737 2.66797 5.22351Z" fill="white"/>
<path d="M18.6676 5.22351C18.6676 3.15963 16.5409 2.66663 13.9177 2.66663H5.91789C4.12301 2.66663 2.66797 3.81138 2.66797 5.22351L3.66794 7.97488C3.39181 7.97488 3.66794 8.21918 3.66794 7.97488C3.66794 8.21918 3.94408 7.97488 3.66794 7.97488V5.98429C3.66794 4.6406 4.89913 3.55134 6.41787 3.55134H13.9177C15.9887 3.55134 17.6676 5.0367 17.6676 6.869C17.6676 8.70129 15.9887 10.1866 13.9177 10.1866H6.16788C5.89174 10.1866 6.16788 9.94235 6.16788 10.1866C5.89174 10.1866 6.16788 10.431 6.16788 10.1866L10.0084 11.0714H13.9177C16.5409 11.0714 18.6676 7.28737 18.6676 5.22351Z" fill="white"/>
</g>
<path d="M29.6396 18.8669C29.4346 18.8669 29.332 18.7643 29.332 18.5593V7.15368C29.332 7.04704 29.373 6.92401 29.4551 6.78456L32.3711 2.6505C32.4613 2.52746 32.5925 2.46594 32.7648 2.46594H36.8373C37.0178 2.46594 37.149 2.52746 37.231 2.6505L40.1593 6.78456C40.2414 6.8994 40.2824 7.02244 40.2824 7.15368V18.5593C40.2824 18.7643 40.1798 18.8669 39.9748 18.8669H36.4928C36.2878 18.8669 36.1852 18.7643 36.1852 18.5593V13.3302H33.4415V18.5593C33.4415 18.7643 33.339 18.8669 33.1339 18.8669H29.6396ZM34.8072 10.6849C35.5618 10.6849 36.0704 10.5208 36.3329 10.1927C36.6036 9.8564 36.7389 9.22071 36.7389 8.28562C36.7389 7.35054 36.6036 6.71894 36.3329 6.39084C36.0704 6.05454 35.5618 5.88639 34.8072 5.88639C34.0608 5.88639 33.5522 6.05454 33.2815 6.39084C33.0191 6.71894 32.8878 7.35054 32.8878 8.28562C32.8878 9.22071 33.0191 9.8564 33.2815 10.1927C33.5522 10.5208 34.0608 10.6849 34.8072 10.6849Z" fill="#5C5C5C"/>
<path d="M43.4714 18.8669C43.2663 18.8669 43.1638 18.7643 43.1638 18.5593V5.64031C43.1638 5.43525 43.2663 5.33272 43.4714 5.33272H50.0539C50.2425 5.33272 50.4066 5.40244 50.546 5.54188L53.0068 8.00264C53.1462 8.13388 53.2159 8.29793 53.2159 8.49479V18.5593C53.2159 18.7643 53.1134 18.8669 52.9084 18.8669H49.6232C49.4182 18.8669 49.3157 18.7643 49.3157 18.5593V8.98694C49.3157 8.60142 49.1229 8.40866 48.7374 8.40866H47.0641V18.5593C47.0641 18.7643 46.9615 18.8669 46.7565 18.8669H43.4714Z" fill="#5C5C5C"/>
<path d="M56.0185 18.8669C55.8134 18.8669 55.7109 18.7643 55.7109 18.5593V16.5661C55.7109 16.3774 55.7724 16.2544 55.8955 16.1969L58.4054 14.7082V13.4286L55.8955 12.0752C55.7724 12.0014 55.7109 11.8742 55.7109 11.6938V7.76886C55.7109 7.67864 55.7232 7.60482 55.7478 7.5474C55.7806 7.48998 55.8258 7.44076 55.8832 7.39975L58.5039 5.48036C58.5941 5.41474 58.6679 5.37373 58.7253 5.35733C58.7828 5.34092 58.8402 5.33272 58.8976 5.33272H61.8874C62.0925 5.33272 62.195 5.43525 62.195 5.64031V7.572C62.195 7.71145 62.1827 7.80578 62.1581 7.85499C62.1417 7.90421 62.1007 7.94522 62.0351 7.97803L59.7096 9.23301V10.6602L62.195 11.8906C62.3344 11.948 62.4042 12.0711 62.4042 12.2597V16.037C62.4042 16.2421 62.3344 16.4061 62.195 16.5291L59.5743 18.7069C59.4431 18.8135 59.279 18.8669 59.0821 18.8669H56.0185Z" fill="#5C5C5C"/>
<path d="M68.0597 18.8669C67.871 18.8669 67.707 18.7971 67.5675 18.6577L65.1068 16.1969C64.9673 16.0657 64.8976 15.9017 64.8976 15.7048V5.64031C64.8976 5.43525 65.0001 5.33272 65.2052 5.33272H68.4903C68.6954 5.33272 68.7979 5.43525 68.7979 5.64031V15.7909H70.8526V5.64031C70.8526 5.43525 70.9552 5.33272 71.1602 5.33272H74.433C74.6381 5.33272 74.7406 5.43525 74.7406 5.64031V15.7909H76.7953V5.64031C76.7953 5.43525 76.8979 5.33272 77.1029 5.33272H80.388C80.5931 5.33272 80.6956 5.43525 80.6956 5.64031V15.7048C80.6956 15.9017 80.6259 16.0657 80.4865 16.1969L78.0257 18.6577C77.8863 18.7971 77.7222 18.8669 77.5336 18.8669H74.7283C74.5314 18.8669 74.3674 18.7971 74.2362 18.6577L72.5751 16.9967H73.0181L71.3571 18.6577C71.2258 18.7971 71.0618 18.8669 70.8649 18.8669H68.0597Z" fill="#5C5C5C"/>
<path d="M89.0716 18.8669C88.9896 18.8669 88.8994 18.8546 88.8009 18.83C88.7107 18.8053 88.6246 18.7848 88.5426 18.7684L86.3525 18.2271L83.8425 17.3904C83.5964 17.3084 83.4734 17.0705 83.4734 16.6768V8.49479C83.4734 8.29793 83.5431 8.13388 83.6826 8.00264L86.1433 5.54188C86.2828 5.40244 86.4468 5.33272 86.6355 5.33272H90.5727C90.7613 5.33272 90.9254 5.40244 91.0648 5.54188L93.5256 8.00264C93.665 8.13388 93.7347 8.29793 93.7347 8.49479V13.5393H87.1276L87.0415 15.1757L88.7886 15.754L91.9261 15.9755C92.0655 16.0001 92.1353 16.0944 92.1353 16.2585V18.5593C92.1353 18.7643 92.0327 18.8669 91.8277 18.8669H89.0716ZM88.5795 11.6076H88.8132C89.2152 11.6076 89.5351 11.4559 89.7729 11.1524C90.019 10.8489 90.142 10.4388 90.142 9.92202V9.67595C90.142 9.16739 90.019 8.76137 89.7729 8.45788C89.5351 8.15438 89.2152 8.00264 88.8132 8.00264H88.5672C88.1734 8.00264 87.8576 8.15438 87.6198 8.45788C87.3901 8.76137 87.2753 9.16739 87.2753 9.67595V9.92202C87.2753 10.4388 87.3901 10.8489 87.6198 11.1524C87.8576 11.4559 88.1775 11.6076 88.5795 11.6076Z" fill="#5C5C5C"/>
<path d="M96.6034 18.8669C96.3984 18.8669 96.2958 18.7643 96.2958 18.5593V5.64031C96.2958 5.43525 96.3984 5.33272 96.6034 5.33272H98.4736C98.6295 5.33272 98.7648 5.40244 98.8796 5.54188L100.085 6.93221L101.427 5.48036C101.517 5.38193 101.632 5.33272 101.771 5.33272H103.1C103.305 5.33272 103.407 5.43525 103.407 5.64031V8.28562C103.407 8.41686 103.399 8.50709 103.383 8.55631C103.366 8.59732 103.321 8.64243 103.247 8.69165L100.196 10.9432V18.5593C100.196 18.7643 100.094 18.8669 99.8885 18.8669H96.6034Z" fill="#5C5C5C"/>
<path d="M104.801 18.8669C104.596 18.8669 104.493 18.7643 104.493 18.5593V16.5661C104.493 16.3774 104.555 16.2544 104.678 16.1969L107.188 14.7082V13.4286L104.678 12.0752C104.555 12.0014 104.493 11.8742 104.493 11.6938V7.76886C104.493 7.67864 104.506 7.60482 104.53 7.5474C104.563 7.48998 104.608 7.44076 104.666 7.39975L107.286 5.48036C107.377 5.41474 107.45 5.37373 107.508 5.35733C107.565 5.34092 107.623 5.33272 107.68 5.33272H110.67C110.875 5.33272 110.978 5.43525 110.978 5.64031V7.572C110.978 7.71145 110.965 7.80578 110.941 7.85499C110.924 7.90421 110.883 7.94522 110.818 7.97803L108.492 9.23301V10.6602L110.978 11.8906C111.117 11.948 111.187 12.0711 111.187 12.2597V16.037C111.187 16.2421 111.117 16.4061 110.978 16.5291L108.357 18.7069C108.226 18.8135 108.062 18.8669 107.865 18.8669H104.801Z" fill="#5C5C5C"/>
<path d="M4.88 33.6128C4.88 34.1394 4.70333 34.5761 4.35 34.9228C3.99667 35.2628 3.46667 35.4328 2.76 35.4328C2.26667 35.4328 1.85667 35.3561 1.53 35.2028C1.20333 35.0428 0.96 34.8361 0.8 34.5828C0.64 34.3294 0.56 34.0594 0.56 33.7728C0.56 33.4061 0.683333 33.0694 0.93 32.7628C1.17667 32.4494 1.53333 32.1894 2 31.9828C1.6 31.7894 1.28333 31.5561 1.05 31.2828C0.816667 31.0028 0.7 30.6494 0.7 30.2228C0.7 29.8961 0.776667 29.5994 0.93 29.3328C1.08333 29.0594 1.30667 28.8428 1.6 28.6828C1.9 28.5161 2.26333 28.4328 2.69 28.4328C3.11667 28.4328 3.48 28.5061 3.78 28.6528C4.08667 28.7994 4.32 28.9994 4.48 29.2528C4.64667 29.4994 4.73 29.7728 4.73 30.0728C4.73 30.4061 4.62 30.6994 4.4 30.9528C4.18 31.2061 3.83667 31.4294 3.37 31.6228C3.86333 31.8294 4.23667 32.0894 4.49 32.4028C4.75 32.7094 4.88 33.1128 4.88 33.6128ZM2.64 31.3128L3.06 31.4928C3.38667 31.3194 3.60667 31.1161 3.72 30.8828C3.84 30.6494 3.9 30.3794 3.9 30.0728C3.9 29.6328 3.79 29.3028 3.57 29.0828C3.35 28.8628 3.05333 28.7528 2.68 28.7528C2.32667 28.7528 2.03 28.8561 1.79 29.0628C1.55667 29.2628 1.44 29.5594 1.44 29.9528C1.44 30.2861 1.54333 30.5561 1.75 30.7628C1.95667 30.9628 2.25333 31.1461 2.64 31.3128ZM1.39 33.7528C1.39 34.1794 1.50667 34.5128 1.74 34.7528C1.97333 34.9928 2.31333 35.1128 2.76 35.1128C3.2 35.1128 3.54 35.0061 3.78 34.7928C4.02 34.5728 4.14 34.2594 4.14 33.8528C4.14 33.4994 4.04333 33.2128 3.85 32.9928C3.66333 32.7661 3.35 32.5594 2.91 32.3728L2.32 32.1228C2.01333 32.2761 1.78 32.4994 1.62 32.7928C1.46667 33.0794 1.39 33.3994 1.39 33.7528ZM9.90945 35.4028C9.38945 35.4028 9.08279 35.1628 8.98945 34.6828C8.75612 34.9494 8.49945 35.1428 8.21945 35.2628C7.93945 35.3761 7.66279 35.4328 7.38945 35.4328C6.92279 35.4328 6.57945 35.3028 6.35945 35.0428C6.13945 34.7828 6.02945 34.4694 6.02945 34.1028C6.02945 33.7094 6.16279 33.3994 6.42945 33.1728C6.70279 32.9394 7.17279 32.8228 7.83945 32.8228H8.96945V32.0128C8.96945 31.4794 8.87612 31.1128 8.68945 30.9128C8.50945 30.7061 8.26279 30.6028 7.94945 30.6028C7.74945 30.6028 7.56945 30.6428 7.40945 30.7228C7.24945 30.8028 7.13279 30.9494 7.05945 31.1628C6.99279 31.3694 6.98612 31.6728 7.03945 32.0728L6.24945 31.9528C6.21612 31.6394 6.25612 31.3594 6.36945 31.1128C6.48945 30.8594 6.68279 30.6594 6.94945 30.5128C7.22279 30.3594 7.56279 30.2828 7.96945 30.2828C8.45612 30.2828 8.82945 30.3661 9.08945 30.5328C9.34945 30.6928 9.52945 30.9028 9.62945 31.1628C9.73612 31.4228 9.78945 31.7061 9.78945 32.0128V34.2628C9.78945 34.6028 9.82612 34.8161 9.89945 34.9028C9.97945 34.9894 10.0661 35.0328 10.1595 35.0328C10.2195 35.0328 10.2828 35.0194 10.3495 34.9928C10.4161 34.9594 10.4895 34.9094 10.5695 34.8428L10.7495 35.0928C10.6495 35.1794 10.5295 35.2528 10.3895 35.3128C10.2561 35.3728 10.0961 35.4028 9.90945 35.4028ZM7.66945 35.0128C7.85612 35.0128 8.05612 34.9628 8.26945 34.8628C8.48945 34.7561 8.72279 34.5461 8.96945 34.2328V33.1428H7.94945C7.57612 33.1428 7.30279 33.2194 7.12945 33.3728C6.96279 33.5194 6.87945 33.7494 6.87945 34.0628C6.87945 34.3628 6.94279 34.5961 7.06945 34.7628C7.20279 34.9294 7.40279 35.0128 7.66945 35.0128ZM16.7798 35.0728V35.3328H14.4198V35.0728L14.9698 35.0128C15.0765 34.9994 15.1398 34.9728 15.1598 34.9328C15.1798 34.8928 15.1898 34.7561 15.1898 34.5228V32.0328C15.1898 31.5394 15.1098 31.1928 14.9498 30.9928C14.7898 30.7861 14.5598 30.6828 14.2598 30.6828C14.0398 30.6828 13.7965 30.7494 13.5298 30.8828C13.2632 31.0161 13.0132 31.2761 12.7798 31.6628V34.5228C12.7798 34.7561 12.7898 34.8928 12.8098 34.9328C12.8298 34.9728 12.8932 34.9994 12.9998 35.0128L13.5498 35.0728V35.3328H11.1898V35.0728L11.7398 35.0128C11.8465 34.9994 11.9098 34.9728 11.9298 34.9328C11.9498 34.8928 11.9598 34.7561 11.9598 34.5228V31.1928C11.9598 30.9594 11.9498 30.8228 11.9298 30.7828C11.9098 30.7428 11.8465 30.7161 11.7398 30.7028L11.1898 30.6528V30.3828H12.7298V31.1928C12.9698 30.8728 13.2398 30.6428 13.5398 30.5028C13.8465 30.3561 14.1532 30.2828 14.4598 30.2828C14.9532 30.2828 15.3332 30.4361 15.5998 30.7428C15.8732 31.0428 16.0098 31.4694 16.0098 32.0228V34.5228C16.0098 34.7561 16.0198 34.8928 16.0398 34.9328C16.0598 34.9728 16.1232 34.9994 16.2298 35.0128L16.7798 35.0728ZM19.4717 33.3128L18.8617 33.1628C18.0284 32.9494 17.6117 32.4694 17.6117 31.7228C17.6117 31.4761 17.6684 31.2428 17.7817 31.0228C17.8951 30.8028 18.0751 30.6261 18.3217 30.4928C18.5751 30.3528 18.8984 30.2828 19.2917 30.2828C19.7317 30.2828 20.0851 30.3561 20.3517 30.5028C20.6184 30.6494 20.8051 30.8394 20.9117 31.0728C21.0184 31.3061 21.0517 31.5594 21.0117 31.8328L20.2317 31.9728C20.3117 31.5394 20.2651 31.2028 20.0917 30.9628C19.9251 30.7228 19.6484 30.6028 19.2617 30.6028C18.9617 30.6028 18.7217 30.6794 18.5417 30.8328C18.3617 30.9794 18.2717 31.1961 18.2717 31.4828C18.2717 31.6961 18.3384 31.8861 18.4717 32.0528C18.6051 32.2128 18.8284 32.3328 19.1417 32.4128L19.7717 32.5628C20.2117 32.6694 20.5517 32.8394 20.7917 33.0728C21.0384 33.3061 21.1617 33.6128 21.1617 33.9928C21.1617 34.4194 21.0051 34.7661 20.6917 35.0328C20.3851 35.2994 19.9451 35.4328 19.3717 35.4328C19.0984 35.4328 18.8317 35.3928 18.5717 35.3128C18.3184 35.2261 18.0951 35.0928 17.9017 34.9128C17.7151 34.7261 17.5784 34.4861 17.4917 34.1928L18.0517 33.9928C18.1251 34.4128 18.2851 34.7061 18.5317 34.8728C18.7784 35.0394 19.0617 35.1228 19.3817 35.1228C19.5684 35.1228 19.7451 35.0928 19.9117 35.0328C20.0851 34.9728 20.2251 34.8794 20.3317 34.7528C20.4384 34.6194 20.4917 34.4494 20.4917 34.2428C20.4917 34.0294 20.4184 33.8461 20.2717 33.6928C20.1251 33.5394 19.8584 33.4128 19.4717 33.3128ZM28.6195 31.1328L27.4995 35.3328H26.8495L25.5395 31.2028L24.2295 35.3328H23.6095L22.4995 31.1328C22.4528 30.9394 22.4128 30.8228 22.3795 30.7828C22.3528 30.7428 22.2861 30.7161 22.1795 30.7028L21.6695 30.6528V30.3828H23.9395V30.6528L23.4195 30.7028C23.3128 30.7161 23.2528 30.7428 23.2395 30.7828C23.2328 30.8228 23.2561 30.9394 23.3095 31.1328L24.1695 34.4328L25.4395 30.3828H26.0895L27.3795 34.4928L28.2495 31.1328C28.3028 30.9394 28.3228 30.8228 28.3095 30.7828C28.3028 30.7428 28.2461 30.7161 28.1395 30.7028L27.6195 30.6528V30.3828H29.4495V30.6528L28.9395 30.7028C28.8395 30.7161 28.7728 30.7428 28.7395 30.7828C28.7128 30.8228 28.6728 30.9394 28.6195 31.1328ZM33.9166 34.1928C33.7966 34.6461 33.57 34.9661 33.2366 35.1528C32.91 35.3394 32.5466 35.4328 32.1466 35.4328C31.4066 35.4328 30.8533 35.2094 30.4866 34.7628C30.12 34.3094 29.9366 33.7061 29.9366 32.9528V32.7528C29.9366 32.0061 30.1133 31.4094 30.4666 30.9628C30.82 30.5094 31.3333 30.2828 32.0066 30.2828C32.3666 30.2828 32.6933 30.3561 32.9866 30.5028C33.2866 30.6494 33.5233 30.8661 33.6966 31.1528C33.8766 31.4394 33.9666 31.7961 33.9666 32.2228C33.9666 32.4228 33.9466 32.6328 33.9066 32.8528H30.8366V33.1528C30.8366 33.8528 30.9433 34.3561 31.1566 34.6628C31.3766 34.9628 31.73 35.1128 32.2166 35.1128C32.5233 35.1128 32.7766 35.0328 32.9766 34.8728C33.1833 34.7128 33.32 34.4361 33.3866 34.0428L33.9166 34.1928ZM32.0066 30.6028C31.6133 30.6028 31.32 30.7528 31.1266 31.0528C30.9333 31.3528 30.8366 31.8461 30.8366 32.5328H33.0866V32.5028C33.1 32.4161 33.11 32.3328 33.1166 32.2528C33.1233 32.1661 33.1266 32.0894 33.1266 32.0228C33.1266 31.5228 33.0233 31.1628 32.8166 30.9428C32.61 30.7161 32.34 30.6028 32.0066 30.6028ZM34.9105 30.6528V30.3828H36.4505V31.1828C36.6839 30.8694 36.9172 30.6428 37.1505 30.5028C37.3905 30.3561 37.6339 30.2828 37.8805 30.2828C38.0939 30.2828 38.2939 30.3461 38.4805 30.4728C38.6672 30.5994 38.8239 30.8028 38.9505 31.0828L38.3005 31.4728C38.2005 31.2328 38.0872 31.0661 37.9605 30.9728C37.8339 30.8794 37.6939 30.8328 37.5405 30.8328C37.3739 30.8328 37.2072 30.8861 37.0405 30.9928C36.8805 31.0994 36.7005 31.2994 36.5005 31.5928V34.5228C36.5005 34.7561 36.5105 34.8961 36.5305 34.9428C36.5505 34.9828 36.6139 35.0061 36.7205 35.0128L37.4705 35.0728V35.3328H34.9105V35.0728L35.4605 35.0128C35.5672 34.9994 35.6305 34.9728 35.6505 34.9328C35.6705 34.8928 35.6805 34.7561 35.6805 34.5228V31.1928C35.6805 30.9594 35.6705 30.8228 35.6505 30.7828C35.6305 30.7428 35.5672 30.7161 35.4605 30.7028L34.9105 30.6528ZM41.4151 33.3128L40.8051 33.1628C39.9717 32.9494 39.5551 32.4694 39.5551 31.7228C39.5551 31.4761 39.6117 31.2428 39.7251 31.0228C39.8384 30.8028 40.0184 30.6261 40.2651 30.4928C40.5184 30.3528 40.8417 30.2828 41.2351 30.2828C41.6751 30.2828 42.0284 30.3561 42.2951 30.5028C42.5617 30.6494 42.7484 30.8394 42.8551 31.0728C42.9617 31.3061 42.9951 31.5594 42.9551 31.8328L42.1751 31.9728C42.2551 31.5394 42.2084 31.2028 42.0351 30.9628C41.8684 30.7228 41.5917 30.6028 41.2051 30.6028C40.9051 30.6028 40.6651 30.6794 40.4851 30.8328C40.3051 30.9794 40.2151 31.1961 40.2151 31.4828C40.2151 31.6961 40.2817 31.8861 40.4151 32.0528C40.5484 32.2128 40.7717 32.3328 41.0851 32.4128L41.7151 32.5628C42.1551 32.6694 42.4951 32.8394 42.7351 33.0728C42.9817 33.3061 43.1051 33.6128 43.1051 33.9928C43.1051 34.4194 42.9484 34.7661 42.6351 35.0328C42.3284 35.2994 41.8884 35.4328 41.3151 35.4328C41.0417 35.4328 40.7751 35.3928 40.5151 35.3128C40.2617 35.2261 40.0384 35.0928 39.8451 34.9128C39.6584 34.7261 39.5217 34.4861 39.4351 34.1928L39.9951 33.9928C40.0684 34.4128 40.2284 34.7061 40.4751 34.8728C40.7217 35.0394 41.0051 35.1228 41.3251 35.1228C41.5117 35.1228 41.6884 35.0928 41.8551 35.0328C42.0284 34.9728 42.1684 34.8794 42.2751 34.7528C42.3817 34.6194 42.4351 34.4494 42.4351 34.2428C42.4351 34.0294 42.3617 33.8461 42.2151 33.6928C42.0684 33.5394 41.8017 33.4128 41.4151 33.3128ZM44.9128 35.4328C44.7461 35.4328 44.6095 35.3794 44.5028 35.2728C44.4028 35.1661 44.3528 35.0294 44.3528 34.8628C44.3528 34.6961 44.4028 34.5628 44.5028 34.4628C44.6095 34.3561 44.7461 34.3028 44.9128 34.3028C45.0861 34.3028 45.2261 34.3561 45.3328 34.4628C45.4395 34.5628 45.4928 34.6961 45.4928 34.8628C45.4928 35.0294 45.4395 35.1661 45.3328 35.2728C45.2261 35.3794 45.0861 35.4328 44.9128 35.4328ZM48.7447 30.6028C48.378 30.6028 48.0914 30.7561 47.8847 31.0628C47.6847 31.3628 47.5847 31.8594 47.5847 32.5528V33.1528C47.5847 33.8528 47.6847 34.3561 47.8847 34.6628C48.0914 34.9628 48.4247 35.1128 48.8847 35.1128C49.198 35.1128 49.4514 35.0328 49.6447 34.8728C49.838 34.7128 49.968 34.4361 50.0347 34.0428L50.5647 34.1928C50.4447 34.6461 50.2247 34.9661 49.9047 35.1528C49.5847 35.3394 49.228 35.4328 48.8347 35.4328C48.1147 35.4328 47.5747 35.2094 47.2147 34.7628C46.8614 34.3094 46.6847 33.7061 46.6847 32.9528V32.7528C46.6847 32.0061 46.8614 31.4094 47.2147 30.9628C47.568 30.5094 48.078 30.2828 48.7447 30.2828C49.1714 30.2828 49.5247 30.3661 49.8047 30.5328C50.0914 30.6994 50.2947 30.9261 50.4147 31.2128C50.5347 31.4928 50.568 31.8028 50.5147 32.1428L49.7247 32.2628C49.798 31.7294 49.748 31.3194 49.5747 31.0328C49.408 30.7461 49.1314 30.6028 48.7447 30.6028ZM56.0242 32.7528V32.9528C56.0242 33.7061 55.8342 34.3094 55.4542 34.7628C55.0809 35.2094 54.5476 35.4328 53.8542 35.4328C53.1676 35.4328 52.6342 35.2094 52.2542 34.7628C51.8809 34.3094 51.6942 33.7061 51.6942 32.9528V32.7528C51.6942 32.0061 51.8809 31.4094 52.2542 30.9628C52.6276 30.5094 53.1609 30.2828 53.8542 30.2828C54.5476 30.2828 55.0809 30.5094 55.4542 30.9628C55.8342 31.4094 56.0242 32.0061 56.0242 32.7528ZM55.1242 32.5528C55.1242 31.8594 55.0142 31.3628 54.7942 31.0628C54.5809 30.7561 54.2676 30.6028 53.8542 30.6028C53.4476 30.6028 53.1342 30.7561 52.9142 31.0628C52.7009 31.3628 52.5942 31.8594 52.5942 32.5528V33.1528C52.5942 33.8528 52.7009 34.3561 52.9142 34.6628C53.1342 34.9628 53.4476 35.1128 53.8542 35.1128C54.2676 35.1128 54.5809 34.9628 54.7942 34.6628C55.0142 34.3561 55.1242 33.8528 55.1242 33.1528V32.5528ZM62.4806 35.0728V35.3328H60.1206V35.0728L60.6706 35.0128C60.7773 34.9994 60.8406 34.9728 60.8606 34.9328C60.8806 34.8928 60.8906 34.7561 60.8906 34.5228V32.0328C60.8906 31.5394 60.814 31.1928 60.6606 30.9928C60.514 30.7861 60.2973 30.6828 60.0106 30.6828C59.804 30.6828 59.5706 30.7494 59.3106 30.8828C59.0573 31.0161 58.814 31.2728 58.5806 31.6528V34.5228C58.5806 34.7561 58.5906 34.8928 58.6106 34.9328C58.6306 34.9728 58.694 34.9994 58.8006 35.0128L59.3506 35.0728V35.3328H56.9906V35.0728L57.5406 35.0128C57.6473 34.9994 57.7106 34.9728 57.7306 34.9328C57.7506 34.8928 57.7606 34.7561 57.7606 34.5228V31.1928C57.7606 30.9594 57.7506 30.8228 57.7306 30.7828C57.7106 30.7428 57.6473 30.7161 57.5406 30.7028L56.9906 30.6528V30.3828H58.5306V31.1928C58.764 30.8794 59.0273 30.6494 59.3206 30.5028C59.6206 30.3561 59.9173 30.2828 60.2106 30.2828C60.9306 30.2828 61.394 30.6128 61.6006 31.2728C61.8473 30.9261 62.1206 30.6761 62.4206 30.5228C62.7273 30.3628 63.034 30.2828 63.3406 30.2828C63.814 30.2828 64.1806 30.4361 64.4406 30.7428C64.7073 31.0428 64.8406 31.4694 64.8406 32.0228V34.5228C64.8406 34.7561 64.8506 34.8928 64.8706 34.9328C64.8906 34.9728 64.954 34.9994 65.0606 35.0128L65.6106 35.0728V35.3328H63.2506V35.0728L63.8006 35.0128C63.9073 34.9994 63.9706 34.9728 63.9906 34.9328C64.0106 34.8928 64.0206 34.7561 64.0206 34.5228V32.0328C64.0206 31.5394 63.944 31.1928 63.7906 30.9928C63.644 30.7861 63.4273 30.6828 63.1406 30.6828C62.934 30.6828 62.6973 30.7528 62.4306 30.8928C62.1706 31.0261 61.924 31.2894 61.6906 31.6828C61.6973 31.7361 61.7006 31.7928 61.7006 31.8528C61.7073 31.9061 61.7106 31.9628 61.7106 32.0228V34.5228C61.7106 34.7561 61.7206 34.8928 61.7406 34.9328C61.7606 34.9728 61.824 34.9994 61.9306 35.0128L62.4806 35.0728Z" fill="#0C8CE9"/>
<defs>
<clipPath id="clip0_3045_9914">
<rect width="15.9996" height="15.9996" fill="white" transform="translate(2.66797 2.66663)"/>
</clipPath>
</defs>
</svg>
