<svg width="16" height="16" viewBox="0 0 16 16" fill="none" xmlns="http://www.w3.org/2000/svg">
<path d="M15.8831 0.12656C15.8467 0.0887477 15.8031 0.0584844 15.755 0.0374979C15.7069 0.0165114 15.6551 0.00521287 15.6026 0.00424737C15.5501 0.00328187 15.4979 0.0126684 15.449 0.0318709C15.4001 0.0510733 15.3555 0.0797156 15.3177 0.116163L13.3567 2.07888C12.8856 1.64479 12.3642 1.26885 11.8035 0.959157C8.26853 -0.946778 3.94417 0.0833706 1.60485 3.20181V1.1991C1.60485 1.09304 1.56272 0.991321 1.48773 0.916325C1.41273 0.841328 1.31102 0.799196 1.20497 0.799196C1.09891 0.799196 0.997199 0.841328 0.922206 0.916325C0.847213 0.991321 0.805082 1.09304 0.805082 1.1991V4.39832C0.805082 4.50438 0.847213 4.60609 0.922206 4.68109C0.997199 4.75609 1.09891 4.79822 1.20497 4.79822H4.40404C4.5101 4.79822 4.61181 4.75609 4.6868 4.68109C4.7618 4.60609 4.80393 4.50438 4.80393 4.39832C4.80393 4.29226 4.7618 4.19054 4.6868 4.11554C4.61181 4.04055 4.5101 3.99841 4.40404 3.99841H2.02873C2.28625 3.61451 2.56697 3.2466 2.89488 2.91788C5.61249 0.192944 9.96243 0.104165 12.7968 2.63795L2.64215 12.7931C1.45643 11.4776 0.801711 9.76847 0.805082 7.99744C0.805082 7.61673 0.835207 7.23842 0.895456 6.86252C0.908167 6.75998 0.880698 6.65649 0.818804 6.57376C0.75691 6.49102 0.665396 6.43546 0.563441 6.41871C0.461487 6.40195 0.357006 6.42532 0.271895 6.4839C0.186784 6.54248 0.127649 6.63173 0.106884 6.73295C-0.0813948 7.91409 -0.00183934 9.12246 0.339671 10.2687C0.681181 11.415 1.27591 12.4698 2.07991 13.3553L0.12208 15.3125C0.0838868 15.3493 0.0534229 15.3935 0.0324654 15.4423C0.0115078 15.491 0.000476492 15.5435 1.50985e-05 15.5966C-0.000446295 15.6497 0.00967138 15.7024 0.0297779 15.7515C0.0498845 15.8007 0.0795771 15.8453 0.117123 15.8829C0.15467 15.9204 0.199317 15.9501 0.248462 15.9702C0.297606 15.9903 0.350263 16.0004 0.403359 16C0.456456 15.9995 0.508928 15.9885 0.557716 15.9675C0.606503 15.9466 0.650628 15.9161 0.687516 15.8779L15.8831 0.681625C15.955 0.607094 15.9951 0.50761 15.9951 0.404092C15.9951 0.300575 15.955 0.20109 15.8831 0.12656ZM14.801 11.1967H11.602C11.4959 11.1967 11.3942 11.2388 11.3192 11.3138C11.2442 11.3888 11.2021 11.4905 11.2021 11.5966C11.2021 11.7026 11.2442 11.8043 11.3192 11.8793C11.3942 11.9543 11.4959 11.9965 11.602 11.9965H13.9909C11.9219 15.0893 7.79266 16.1267 4.48802 14.2791C4.44223 14.2534 4.39181 14.2369 4.33966 14.2307C4.28751 14.2244 4.23463 14.2285 4.18406 14.2427C4.13348 14.2569 4.0862 14.2809 4.0449 14.3133C4.00361 14.3458 3.96911 14.3861 3.94337 14.4319C3.91764 14.4777 3.90118 14.5281 3.89493 14.5802C3.88868 14.6324 3.89277 14.6853 3.90695 14.7358C3.92114 14.7864 3.94515 14.8337 3.97761 14.875C4.01006 14.9163 4.05034 14.9508 4.09613 14.9765C5.28985 15.6447 6.635 15.9956 8.003 15.9955C9.24454 15.9956 10.469 15.7066 11.5796 15.1515C12.6901 14.5963 13.6561 13.7902 14.4012 12.7971V14.7958C14.4012 14.9018 14.4433 15.0036 14.5183 15.0786C14.5933 15.1535 14.695 15.1957 14.801 15.1957C14.9071 15.1957 15.0088 15.1535 15.0838 15.0786C15.1588 15.0036 15.2009 14.9018 15.2009 14.7958V11.5966C15.2009 11.4905 15.1588 11.3888 15.0838 11.3138C15.0088 11.2388 14.9071 11.1967 14.801 11.1967ZM14.9818 4.09039C14.9561 4.0446 14.9216 4.00432 14.8803 3.97186C14.839 3.9394 14.7917 3.91539 14.7411 3.90121C14.6905 3.88702 14.6376 3.88294 14.5855 3.88919C14.5333 3.89544 14.4829 3.9119 14.4371 3.93763C14.3913 3.96336 14.3511 3.99786 14.3186 4.03916C14.2862 4.08046 14.2621 4.12775 14.248 4.17832C14.2338 4.2289 14.2297 4.28178 14.2359 4.33393C14.2422 4.38609 14.2587 4.4365 14.2844 4.4823C15.075 5.89584 15.3658 7.5347 15.1097 9.13396C15.1013 9.18579 15.1032 9.23878 15.1153 9.28988C15.1274 9.34098 15.1494 9.38921 15.1801 9.4318C15.2108 9.47439 15.2496 9.51052 15.2943 9.53812C15.339 9.56572 15.3886 9.58425 15.4404 9.59265C15.4923 9.60105 15.5453 9.59916 15.5964 9.58709C15.6475 9.57502 15.6957 9.553 15.7383 9.52229C15.7809 9.49158 15.817 9.45278 15.8446 9.40811C15.8722 9.36343 15.8907 9.31376 15.8991 9.26193C16.1842 7.48397 15.861 5.66182 14.9818 4.09039Z" fill="#0C8CE9"/>
</svg>
