<svg width="83" height="73" viewBox="0 0 83 73" fill="none" xmlns="http://www.w3.org/2000/svg">
<rect x="0" y="0" width="67" height="73" fill="#EFEFEF"/>
<rect x="51" y="0" width="32" height="73" rx="16" fill="#EFEFEF"/>
<path d="M29.5581 40.8744L39.1783 26.3056C39.4587 25.879 39.8258 25.5087 40.2587 25.216C40.6916 24.9233 41.1817 24.7139 41.7009 24.5998C42.2201 24.4857 42.7581 24.4693 43.2841 24.5513C43.81 24.6334 44.3136 24.8123 44.7658 25.0779L54.5793 30.811C55.033 31.0744 55.4269 31.4196 55.7383 31.8267C56.0497 32.2338 56.2724 32.6947 56.3938 33.1831C56.5152 33.6714 56.5327 34.1775 56.4454 34.6723C56.3582 35.167 56.1678 35.6407 55.8853 36.066L46.265 50.6341L29.9456 41.1008L29.5581 40.8744Z" fill="white"/>
<path d="M29.5581 40.8744L39.1783 26.3056C39.4587 25.879 39.8258 25.5087 40.2587 25.216C40.6916 24.9233 41.1817 24.7139 41.7009 24.5998C42.2201 24.4857 42.7581 24.4693 43.2841 24.5513C43.81 24.6334 44.3136 24.8123 44.7658 25.0779L54.5793 30.811C55.033 31.0744 55.4269 31.4196 55.7383 31.8267C56.0497 32.2338 56.2724 32.6947 56.3938 33.1831C56.5152 33.6714 56.5327 34.1775 56.4454 34.6723C56.3582 35.167 56.1678 35.6407 55.8853 36.066L46.265 50.6341M29.5581 40.8744L46.265 50.6341M29.5581 40.8744L29.9456 41.1008M46.265 50.6341L29.9456 41.1008M45.8776 50.4085L43.0471 54.6944C42.7668 55.121 42.3996 55.4913 41.9667 55.784C41.5338 56.0767 41.0437 56.2861 40.5246 56.4002C40.0054 56.5143 39.4674 56.5307 38.9414 56.4487C38.4155 56.3666 37.9119 56.1877 37.4597 55.9221L28.421 50.6425C27.9672 50.3791 27.5733 50.0338 27.2618 49.6267C26.9504 49.2195 26.7275 48.7585 26.6062 48.2701C26.4848 47.7816 26.4673 47.2754 26.5546 46.7806C26.642 46.2858 26.8325 45.8121 27.1151 45.3867L29.9456 41.1008" stroke="white" stroke-width="2" stroke-linecap="round" stroke-linejoin="round"/>
</svg>
