<svg width="531" height="153" viewBox="0 0 531 153" fill="none" xmlns="http://www.w3.org/2000/svg">
<rect width="531" height="152.585" fill="#F7F7F7"/>
<line x1="13.9074" y1="31" x2="517.095" y2="31.585" stroke="#0C8CE9" stroke-width="2"/>
<circle cx="17" cy="65.585" r="1" fill="#404040"/>
<circle cx="51" cy="65.585" r="1" fill="#404040"/>
<circle cx="85" cy="65.585" r="1" fill="#404040"/>
<circle cx="119" cy="65.585" r="1" fill="#404040"/>
<circle cx="153" cy="65.585" r="1" fill="#404040"/>
<circle cx="187" cy="65.585" r="1" fill="#404040"/>
<circle cx="221" cy="65.585" r="1" fill="#404040"/>
<circle cx="255" cy="65.585" r="1" fill="#404040"/>
<circle cx="289" cy="65.585" r="1" fill="#404040"/>
<circle cx="323" cy="65.585" r="1" fill="#404040"/>
<circle cx="17" cy="83.585" r="1" fill="#404040"/>
<circle cx="51" cy="83.585" r="1" fill="#404040"/>
<circle cx="85" cy="83.585" r="1" fill="#404040"/>
<circle cx="119" cy="83.585" r="1" fill="#404040"/>
<circle cx="153" cy="83.585" r="1" fill="#404040"/>
<circle cx="187" cy="83.585" r="1" fill="#404040"/>
<circle cx="221" cy="83.585" r="1" fill="#404040"/>
<circle cx="255" cy="83.585" r="1" fill="#404040"/>
<circle cx="289" cy="83.585" r="1" fill="#404040"/>
<circle cx="323" cy="83.585" r="1" fill="#404040"/>
<circle cx="17" cy="101.585" r="1" fill="#404040"/>
<circle cx="51" cy="101.585" r="1" fill="#404040"/>
<circle cx="85" cy="101.585" r="1" fill="#404040"/>
<circle cx="119" cy="101.585" r="1" fill="#404040"/>
<circle cx="153" cy="101.585" r="1" fill="#404040"/>
<circle cx="187" cy="101.585" r="1" fill="#404040"/>
<circle cx="221" cy="101.585" r="1" fill="#404040"/>
<circle cx="255" cy="101.585" r="1" fill="#404040"/>
<circle cx="289" cy="101.585" r="1" fill="#404040"/>
<circle cx="323" cy="101.585" r="1" fill="#404040"/>
<circle cx="17" cy="119.585" r="1" fill="#404040"/>
<circle cx="51" cy="119.585" r="1" fill="#404040"/>
<circle cx="85" cy="119.585" r="1" fill="#404040"/>
<circle cx="119" cy="119.585" r="1" fill="#404040"/>
<circle cx="153" cy="119.585" r="1" fill="#404040"/>
<circle cx="187" cy="119.585" r="1" fill="#404040"/>
<circle cx="221" cy="119.585" r="1" fill="#404040"/>
<circle cx="255" cy="119.585" r="1" fill="#404040"/>
<circle cx="289" cy="119.585" r="1" fill="#404040"/>
<circle cx="323" cy="119.585" r="1" fill="#404040"/>
<rect x="392" y="65.9185" width="21.3328" height="21.3328" rx="5.3332" fill="#0C8CE9"/>
<g clip-path="url(#clip0_2470_7928)">
<path d="M410.668 81.9908C410.668 84.0835 408.541 84.5834 405.918 84.5834H397.918C396.123 84.5834 394.668 83.4226 394.668 81.9908L395.668 79.2315C395.392 79.2315 395.668 78.9852 395.668 79.2315C395.668 78.9852 395.944 79.2315 395.668 79.2315V81.2385C395.668 82.5931 396.899 83.6914 398.418 83.6914H405.918C407.989 83.6914 409.668 82.1938 409.668 80.3465C409.668 78.4992 407.989 77.0016 405.918 77.0016H398.168C397.892 77.0016 398.168 77.2479 398.168 77.0016C397.892 77.0016 398.168 76.7553 398.168 77.0016L401.951 76.1096H405.918C408.541 76.1096 410.668 79.8981 410.668 81.9908Z" fill="white"/>
<path d="M394.668 81.9911C394.668 84.0838 396.795 84.5837 399.418 84.5837H407.418C409.213 84.5837 410.668 83.4229 410.668 81.9911L409.668 79.2179C409.668 78.9709 409.944 79.2179 409.668 79.2179C409.391 79.2179 409.668 78.9709 409.668 79.2179V81.2301C409.668 82.5883 408.436 83.6895 406.918 83.6895H399.418C397.347 83.6895 395.668 82.1879 395.668 80.3358C395.668 78.4836 397.347 76.9821 399.418 76.9821H407.168C407.168 77.2291 407.444 76.9821 407.168 76.9821C407.168 76.7352 407.444 76.9821 407.168 76.9821L405.251 76.535L403.334 76.1426H399.418C396.795 76.1426 394.668 79.8984 394.668 81.9911Z" fill="white"/>
<path d="M394.668 71.1418C394.668 69.078 396.795 68.585 399.418 68.585H407.418C409.213 68.585 410.668 69.7297 410.668 71.1418L409.668 73.9203C409.668 74.1659 409.944 73.9203 409.668 73.9203C409.391 73.9203 409.668 74.1659 409.668 73.9203V71.9196C409.668 70.569 408.436 69.4742 406.918 69.4742H399.418C397.347 69.4742 395.668 70.9672 395.668 72.8088C395.668 74.6505 397.347 76.1434 399.418 76.1434H407.168C407.168 75.8979 407.444 76.1434 407.168 76.1434C407.168 76.389 407.444 76.1434 407.168 76.1434L403.334 76.9389L399.418 76.983C396.795 76.983 394.668 73.2057 394.668 71.1418Z" fill="white"/>
<path d="M410.668 71.1418C410.668 69.078 408.541 68.585 405.918 68.585H397.918C396.123 68.585 394.668 69.7297 394.668 71.1418L395.668 73.8932C395.392 73.8932 395.668 74.1375 395.668 73.8932C395.668 74.1375 395.944 73.8932 395.668 73.8932V71.9026C395.668 70.5589 396.899 69.4697 398.418 69.4697H405.918C407.989 69.4697 409.668 70.955 409.668 72.7873C409.668 74.6196 407.989 76.105 405.918 76.105H398.168C397.892 76.105 398.168 75.8607 398.168 76.105C397.892 76.105 398.168 76.3493 398.168 76.105L402.008 76.9897H405.918C408.541 76.9897 410.668 73.2057 410.668 71.1418Z" fill="white"/>
</g>
<path d="M421.64 84.7852C421.435 84.7852 421.332 84.6827 421.332 84.4776V73.072C421.332 72.9654 421.373 72.8423 421.455 72.7029L424.371 68.5688C424.461 68.4458 424.593 68.3843 424.765 68.3843H428.837C429.018 68.3843 429.149 68.4458 429.231 68.5688L432.159 72.7029C432.241 72.8177 432.282 72.9408 432.282 73.072V84.4776C432.282 84.6827 432.18 84.7852 431.975 84.7852H428.493C428.288 84.7852 428.185 84.6827 428.185 84.4776V79.2485H425.441V84.4776C425.441 84.6827 425.339 84.7852 425.134 84.7852H421.64ZM426.807 76.6032C427.562 76.6032 428.07 76.4391 428.333 76.111C428.604 75.7747 428.739 75.139 428.739 74.204C428.739 73.2689 428.604 72.6373 428.333 72.3092C428.07 71.9729 427.562 71.8047 426.807 71.8047C426.061 71.8047 425.552 71.9729 425.282 72.3092C425.019 72.6373 424.888 73.2689 424.888 74.204C424.888 75.139 425.019 75.7747 425.282 76.111C425.552 76.4391 426.061 76.6032 426.807 76.6032Z" fill="#5C5C5C"/>
<path d="M435.471 84.7852C435.266 84.7852 435.164 84.6827 435.164 84.4776V71.5586C435.164 71.3536 435.266 71.2511 435.471 71.2511H442.054C442.243 71.2511 442.407 71.3208 442.546 71.4602L445.007 73.921C445.146 74.0522 445.216 74.2163 445.216 74.4131V84.4776C445.216 84.6827 445.113 84.7852 444.908 84.7852H441.623C441.418 84.7852 441.316 84.6827 441.316 84.4776V74.9053C441.316 74.5198 441.123 74.327 440.737 74.327H439.064V84.4776C439.064 84.6827 438.962 84.7852 438.756 84.7852H435.471Z" fill="#5C5C5C"/>
<path d="M448.019 84.7852C447.813 84.7852 447.711 84.6827 447.711 84.4776V82.4844C447.711 82.2957 447.772 82.1727 447.895 82.1153L450.405 80.6265V79.3469L447.895 77.9935C447.772 77.9197 447.711 77.7926 447.711 77.6121V73.6872C447.711 73.597 447.723 73.5231 447.748 73.4657C447.781 73.4083 447.826 73.3591 447.883 73.3181L450.504 71.3987C450.594 71.3331 450.668 71.2921 450.725 71.2757C450.783 71.2593 450.84 71.2511 450.898 71.2511H453.887C454.092 71.2511 454.195 71.3536 454.195 71.5586V73.4903C454.195 73.6298 454.183 73.7241 454.158 73.7733C454.142 73.8225 454.101 73.8636 454.035 73.8964L451.71 75.1513V76.5786L454.195 77.809C454.334 77.8664 454.404 77.9894 454.404 78.1781V81.9553C454.404 82.1604 454.334 82.3244 454.195 82.4475L451.574 84.6252C451.443 84.7319 451.279 84.7852 451.082 84.7852H448.019Z" fill="#5C5C5C"/>
<path d="M460.06 84.7852C459.871 84.7852 459.707 84.7155 459.568 84.576L457.107 82.1153C456.967 81.984 456.898 81.82 456.898 81.6231V71.5586C456.898 71.3536 457 71.2511 457.205 71.2511H460.49C460.695 71.2511 460.798 71.3536 460.798 71.5586V81.7093H462.853V71.5586C462.853 71.3536 462.955 71.2511 463.16 71.2511H466.433C466.638 71.2511 466.741 71.3536 466.741 71.5586V81.7093H468.795V71.5586C468.795 71.3536 468.898 71.2511 469.103 71.2511H472.388C472.593 71.2511 472.696 71.3536 472.696 71.5586V81.6231C472.696 81.82 472.626 81.984 472.486 82.1153L470.026 84.576C469.886 84.7155 469.722 84.7852 469.534 84.7852H466.728C466.531 84.7852 466.367 84.7155 466.236 84.576L464.575 82.915H465.018L463.357 84.576C463.226 84.7155 463.062 84.7852 462.865 84.7852H460.06Z" fill="#5C5C5C"/>
<path d="M481.072 84.7852C480.99 84.7852 480.899 84.7729 480.801 84.7483C480.711 84.7237 480.625 84.7032 480.543 84.6868L478.352 84.1454L475.843 83.3087C475.596 83.2267 475.473 82.9888 475.473 82.5951V74.4131C475.473 74.2163 475.543 74.0522 475.683 73.921L478.143 71.4602C478.283 71.3208 478.447 71.2511 478.635 71.2511H482.573C482.761 71.2511 482.925 71.3208 483.065 71.4602L485.526 73.921C485.665 74.0522 485.735 74.2163 485.735 74.4131V79.4577H479.128L479.041 81.0941L480.789 81.6723L483.926 81.8938C484.066 81.9184 484.135 82.0127 484.135 82.1768V84.4776C484.135 84.6827 484.033 84.7852 483.828 84.7852H481.072ZM480.579 77.526H480.813C481.215 77.526 481.535 77.3742 481.773 77.0707C482.019 76.7672 482.142 76.3571 482.142 75.8404V75.5943C482.142 75.0857 482.019 74.6797 481.773 74.3762C481.535 74.0727 481.215 73.921 480.813 73.921H480.567C480.173 73.921 479.858 74.0727 479.62 74.3762C479.39 74.6797 479.275 75.0857 479.275 75.5943V75.8404C479.275 76.3571 479.39 76.7672 479.62 77.0707C479.858 77.3742 480.178 77.526 480.579 77.526Z" fill="#5C5C5C"/>
<path d="M488.603 84.7852C488.398 84.7852 488.296 84.6827 488.296 84.4776V71.5586C488.296 71.3536 488.398 71.2511 488.603 71.2511H490.474C490.629 71.2511 490.765 71.3208 490.88 71.4602L492.085 72.8505L493.427 71.3987C493.517 71.3003 493.632 71.2511 493.771 71.2511H495.1C495.305 71.2511 495.407 71.3536 495.407 71.5586V74.204C495.407 74.3352 495.399 74.4254 495.383 74.4746C495.366 74.5157 495.321 74.5608 495.247 74.61L492.196 76.8616V84.4776C492.196 84.6827 492.094 84.7852 491.889 84.7852H488.603Z" fill="#5C5C5C"/>
<path d="M496.801 84.7852C496.596 84.7852 496.493 84.6827 496.493 84.4776V82.4844C496.493 82.2957 496.555 82.1727 496.678 82.1153L499.188 80.6265V79.3469L496.678 77.9935C496.555 77.9197 496.493 77.7926 496.493 77.6121V73.6872C496.493 73.597 496.506 73.5231 496.53 73.4657C496.563 73.4083 496.608 73.3591 496.666 73.3181L499.286 71.3987C499.377 71.3331 499.45 71.2921 499.508 71.2757C499.565 71.2593 499.623 71.2511 499.68 71.2511H502.67C502.875 71.2511 502.978 71.3536 502.978 71.5586V73.4903C502.978 73.6298 502.965 73.7241 502.941 73.7733C502.924 73.8225 502.883 73.8636 502.818 73.8964L500.492 75.1513V76.5786L502.978 77.809C503.117 77.8664 503.187 77.9894 503.187 78.1781V81.9553C503.187 82.1604 503.117 82.3244 502.978 82.4475L500.357 84.6252C500.226 84.7319 500.062 84.7852 499.865 84.7852H496.801Z" fill="#5C5C5C"/>
<path d="M395.72 98.4412V98.1712H398.27V98.4412L397.72 98.4912C397.613 98.5046 397.55 98.5312 397.53 98.5712C397.51 98.6112 397.5 98.7479 397.5 98.9812V101.251H397.26C397.133 101.058 396.983 100.905 396.81 100.791C396.617 100.965 396.39 101.101 396.13 101.201C395.877 101.301 395.583 101.351 395.25 101.351C394.717 101.351 394.263 101.221 393.89 100.961C393.517 100.695 393.23 100.325 393.03 99.8512C392.837 99.3779 392.74 98.8279 392.74 98.2012V97.4512C392.74 96.8379 392.837 96.2979 393.03 95.8312C393.23 95.3646 393.52 95.0012 393.9 94.7412C394.287 94.4812 394.753 94.3512 395.3 94.3512C395.827 94.3512 396.26 94.4512 396.6 94.6512C396.947 94.8446 397.193 95.1012 397.34 95.4212C397.493 95.7412 397.543 96.0846 397.49 96.4512L396.63 96.6612C396.703 96.0212 396.623 95.5312 396.39 95.1912C396.157 94.8446 395.793 94.6712 395.3 94.6712C394.767 94.6712 394.363 94.8579 394.09 95.2312C393.823 95.6046 393.69 96.1979 393.69 97.0112V98.6812C393.69 99.4946 393.827 100.091 394.1 100.471C394.38 100.845 394.79 101.031 395.33 101.031C395.603 101.031 395.857 100.981 396.09 100.881C396.33 100.781 396.53 100.621 396.69 100.401V98.9812C396.69 98.7479 396.68 98.6112 396.66 98.5712C396.64 98.5246 396.577 98.4979 396.47 98.4912L395.72 98.4412ZM403.104 100.111C402.984 100.565 402.757 100.885 402.424 101.071C402.097 101.258 401.734 101.351 401.334 101.351C400.594 101.351 400.041 101.128 399.674 100.681C399.307 100.228 399.124 99.6246 399.124 98.8712V98.6712C399.124 97.9246 399.301 97.3279 399.654 96.8812C400.007 96.4279 400.521 96.2012 401.194 96.2012C401.554 96.2012 401.881 96.2746 402.174 96.4212C402.474 96.5679 402.711 96.7846 402.884 97.0712C403.064 97.3579 403.154 97.7146 403.154 98.1412C403.154 98.3412 403.134 98.5512 403.094 98.7712H400.024V99.0712C400.024 99.7712 400.131 100.275 400.344 100.581C400.564 100.881 400.917 101.031 401.404 101.031C401.711 101.031 401.964 100.951 402.164 100.791C402.371 100.631 402.507 100.355 402.574 99.9612L403.104 100.111ZM401.194 96.5212C400.801 96.5212 400.507 96.6712 400.314 96.9712C400.121 97.2712 400.024 97.7646 400.024 98.4512H402.274V98.4212C402.287 98.3346 402.297 98.2512 402.304 98.1712C402.311 98.0846 402.314 98.0079 402.314 97.9412C402.314 97.4412 402.211 97.0812 402.004 96.8612C401.797 96.6346 401.527 96.5212 401.194 96.5212ZM409.688 100.991V101.251H407.328V100.991L407.878 100.931C407.985 100.918 408.048 100.891 408.068 100.851C408.088 100.811 408.098 100.675 408.098 100.441V97.9512C408.098 97.4579 408.018 97.1112 407.858 96.9112C407.698 96.7046 407.468 96.6012 407.168 96.6012C406.948 96.6012 406.705 96.6679 406.438 96.8012C406.171 96.9346 405.921 97.1946 405.688 97.5812V100.441C405.688 100.675 405.698 100.811 405.718 100.851C405.738 100.891 405.801 100.918 405.908 100.931L406.458 100.991V101.251H404.098V100.991L404.648 100.931C404.755 100.918 404.818 100.891 404.838 100.851C404.858 100.811 404.868 100.675 404.868 100.441V97.1112C404.868 96.8779 404.858 96.7412 404.838 96.7012C404.818 96.6612 404.755 96.6346 404.648 96.6212L404.098 96.5712V96.3012H405.638V97.1112C405.878 96.7912 406.148 96.5612 406.448 96.4212C406.755 96.2746 407.061 96.2012 407.368 96.2012C407.861 96.2012 408.241 96.3546 408.508 96.6612C408.781 96.9612 408.918 97.3879 408.918 97.9412V100.441C408.918 100.675 408.928 100.811 408.948 100.851C408.968 100.891 409.031 100.918 409.138 100.931L409.688 100.991ZM414.53 100.111C414.41 100.565 414.183 100.885 413.85 101.071C413.523 101.258 413.16 101.351 412.76 101.351C412.02 101.351 411.467 101.128 411.1 100.681C410.733 100.228 410.55 99.6246 410.55 98.8712V98.6712C410.55 97.9246 410.727 97.3279 411.08 96.8812C411.433 96.4279 411.947 96.2012 412.62 96.2012C412.98 96.2012 413.307 96.2746 413.6 96.4212C413.9 96.5679 414.137 96.7846 414.31 97.0712C414.49 97.3579 414.58 97.7146 414.58 98.1412C414.58 98.3412 414.56 98.5512 414.52 98.7712H411.45V99.0712C411.45 99.7712 411.557 100.275 411.77 100.581C411.99 100.881 412.343 101.031 412.83 101.031C413.137 101.031 413.39 100.951 413.59 100.791C413.797 100.631 413.933 100.355 414 99.9612L414.53 100.111ZM412.62 96.5212C412.227 96.5212 411.933 96.6712 411.74 96.9712C411.547 97.2712 411.45 97.7646 411.45 98.4512H413.7V98.4212C413.713 98.3346 413.723 98.2512 413.73 98.1712C413.737 98.0846 413.74 98.0079 413.74 97.9412C413.74 97.4412 413.637 97.0812 413.43 96.8612C413.223 96.6346 412.953 96.5212 412.62 96.5212ZM415.524 96.5712V96.3012H417.064V97.1012C417.297 96.7879 417.53 96.5612 417.764 96.4212C418.004 96.2746 418.247 96.2012 418.494 96.2012C418.707 96.2012 418.907 96.2646 419.094 96.3912C419.28 96.5179 419.437 96.7212 419.564 97.0012L418.914 97.3912C418.814 97.1512 418.7 96.9846 418.574 96.8912C418.447 96.7979 418.307 96.7512 418.154 96.7512C417.987 96.7512 417.82 96.8046 417.654 96.9112C417.494 97.0179 417.314 97.2179 417.114 97.5112V100.441C417.114 100.675 417.124 100.815 417.144 100.861C417.164 100.901 417.227 100.925 417.334 100.931L418.084 100.991V101.251H415.524V100.991L416.074 100.931C416.18 100.918 416.244 100.891 416.264 100.851C416.284 100.811 416.294 100.675 416.294 100.441V97.1112C416.294 96.8779 416.284 96.7412 416.264 96.7012C416.244 96.6612 416.18 96.6346 416.074 96.6212L415.524 96.5712ZM424.019 101.321C423.499 101.321 423.192 101.081 423.099 100.601C422.865 100.868 422.609 101.061 422.329 101.181C422.049 101.295 421.772 101.351 421.499 101.351C421.032 101.351 420.689 101.221 420.469 100.961C420.249 100.701 420.139 100.388 420.139 100.021C420.139 99.6279 420.272 99.3179 420.539 99.0912C420.812 98.8579 421.282 98.7412 421.949 98.7412H423.079V97.9312C423.079 97.3979 422.985 97.0312 422.799 96.8312C422.619 96.6246 422.372 96.5212 422.059 96.5212C421.859 96.5212 421.679 96.5612 421.519 96.6412C421.359 96.7212 421.242 96.8679 421.169 97.0812C421.102 97.2879 421.095 97.5912 421.149 97.9912L420.359 97.8712C420.325 97.5579 420.365 97.2779 420.479 97.0312C420.599 96.7779 420.792 96.5779 421.059 96.4312C421.332 96.2779 421.672 96.2012 422.079 96.2012C422.565 96.2012 422.939 96.2846 423.199 96.4512C423.459 96.6112 423.639 96.8212 423.739 97.0812C423.845 97.3412 423.899 97.6246 423.899 97.9312V100.181C423.899 100.521 423.935 100.735 424.009 100.821C424.089 100.908 424.175 100.951 424.269 100.951C424.329 100.951 424.392 100.938 424.459 100.911C424.525 100.878 424.599 100.828 424.679 100.761L424.859 101.011C424.759 101.098 424.639 101.171 424.499 101.231C424.365 101.291 424.205 101.321 424.019 101.321ZM421.779 100.931C421.965 100.931 422.165 100.881 422.379 100.781C422.599 100.675 422.832 100.465 423.079 100.151V99.0612H422.059C421.685 99.0612 421.412 99.1379 421.239 99.2912C421.072 99.4379 420.989 99.6679 420.989 99.9812C420.989 100.281 421.052 100.515 421.179 100.681C421.312 100.848 421.512 100.931 421.779 100.931ZM428.599 100.231C428.499 100.618 428.343 100.901 428.129 101.081C427.916 101.261 427.643 101.351 427.309 101.351C426.989 101.351 426.729 101.281 426.529 101.141C426.329 100.995 426.183 100.805 426.089 100.571C425.996 100.338 425.949 100.095 425.949 99.8412V97.1112C425.949 96.8779 425.939 96.7412 425.919 96.7012C425.906 96.6612 425.843 96.6346 425.729 96.6212L425.179 96.5712V96.3012H425.949V94.9912L426.769 94.8212V96.3012H428.399V96.6212H426.769V99.9212C426.769 100.341 426.826 100.631 426.939 100.791C427.059 100.951 427.216 101.031 427.409 101.031C427.603 101.031 427.749 100.958 427.849 100.811C427.956 100.665 428.033 100.425 428.079 100.091L428.599 100.231ZM433.426 100.111C433.306 100.565 433.08 100.885 432.746 101.071C432.42 101.258 432.056 101.351 431.656 101.351C430.916 101.351 430.363 101.128 429.996 100.681C429.63 100.228 429.446 99.6246 429.446 98.8712V98.6712C429.446 97.9246 429.623 97.3279 429.976 96.8812C430.33 96.4279 430.843 96.2012 431.516 96.2012C431.876 96.2012 432.203 96.2746 432.496 96.4212C432.796 96.5679 433.033 96.7846 433.206 97.0712C433.386 97.3579 433.476 97.7146 433.476 98.1412C433.476 98.3412 433.456 98.5512 433.416 98.7712H430.346V99.0712C430.346 99.7712 430.453 100.275 430.666 100.581C430.886 100.881 431.24 101.031 431.726 101.031C432.033 101.031 432.286 100.951 432.486 100.791C432.693 100.631 432.83 100.355 432.896 99.9612L433.426 100.111ZM431.516 96.5212C431.123 96.5212 430.83 96.6712 430.636 96.9712C430.443 97.2712 430.346 97.7646 430.346 98.4512H432.596V98.4212C432.61 98.3346 432.62 98.2512 432.626 98.1712C432.633 98.0846 432.636 98.0079 432.636 97.9412C432.636 97.4412 432.533 97.0812 432.326 96.8612C432.12 96.6346 431.85 96.5212 431.516 96.5212ZM439.59 101.001V101.251H438.05V100.461C437.844 100.768 437.614 100.995 437.36 101.141C437.114 101.281 436.837 101.351 436.53 101.351C435.957 101.351 435.51 101.138 435.19 100.711C434.877 100.278 434.72 99.6679 434.72 98.8812V98.6812C434.72 97.9279 434.904 97.3279 435.27 96.8812C435.644 96.4279 436.154 96.2012 436.8 96.2012C437.274 96.2012 437.674 96.3479 438 96.6412V94.6612C438 94.4279 437.99 94.2912 437.97 94.2512C437.95 94.2112 437.887 94.1846 437.78 94.1712L437.23 94.1212V93.8512H438.82V100.441C438.82 100.675 438.83 100.811 438.85 100.851C438.87 100.891 438.934 100.918 439.04 100.931L439.59 101.001ZM435.62 99.1812C435.62 99.8079 435.71 100.268 435.89 100.561C436.077 100.855 436.334 101.001 436.66 101.001C436.874 101.001 437.094 100.935 437.32 100.801C437.547 100.668 437.774 100.398 438 99.9912V97.1312C437.707 96.7379 437.324 96.5412 436.85 96.5412C436.424 96.5412 436.11 96.7046 435.91 97.0312C435.717 97.3579 435.62 97.8079 435.62 98.3812V99.1812ZM447.837 100.991V101.251H446.297V100.451C446.063 100.765 445.797 100.995 445.497 101.141C445.203 101.281 444.91 101.351 444.617 101.351C444.143 101.351 443.773 101.201 443.507 100.901C443.247 100.595 443.117 100.165 443.117 99.6112V97.1112C443.117 96.8779 443.107 96.7412 443.087 96.7012C443.067 96.6612 443.003 96.6346 442.897 96.6212L442.347 96.5712V96.3012H443.937V99.6012C443.937 100.095 444.01 100.445 444.157 100.651C444.31 100.851 444.53 100.951 444.817 100.951C445.03 100.951 445.263 100.885 445.517 100.751C445.777 100.618 446.02 100.361 446.247 99.9812V97.1112C446.247 96.8779 446.237 96.7412 446.217 96.7012C446.197 96.6546 446.133 96.6279 446.027 96.6212L445.277 96.5712V96.3012H447.067V100.441C447.067 100.675 447.077 100.811 447.097 100.851C447.117 100.891 447.18 100.918 447.287 100.931L447.837 100.991ZM450.583 99.2312L449.973 99.0812C449.14 98.8679 448.723 98.3879 448.723 97.6412C448.723 97.3946 448.78 97.1612 448.893 96.9412C449.006 96.7212 449.186 96.5446 449.433 96.4112C449.686 96.2712 450.01 96.2012 450.403 96.2012C450.843 96.2012 451.196 96.2746 451.463 96.4212C451.73 96.5679 451.916 96.7579 452.023 96.9912C452.13 97.2246 452.163 97.4779 452.123 97.7512L451.343 97.8912C451.423 97.4579 451.376 97.1212 451.203 96.8812C451.036 96.6412 450.76 96.5212 450.373 96.5212C450.073 96.5212 449.833 96.5979 449.653 96.7512C449.473 96.8979 449.383 97.1146 449.383 97.4012C449.383 97.6146 449.45 97.8046 449.583 97.9712C449.716 98.1312 449.94 98.2512 450.253 98.3312L450.883 98.4812C451.323 98.5879 451.663 98.7579 451.903 98.9912C452.15 99.2246 452.273 99.5312 452.273 99.9112C452.273 100.338 452.116 100.685 451.803 100.951C451.496 101.218 451.056 101.351 450.483 101.351C450.21 101.351 449.943 101.311 449.683 101.231C449.43 101.145 449.206 101.011 449.013 100.831C448.826 100.645 448.69 100.405 448.603 100.111L449.163 99.9112C449.236 100.331 449.396 100.625 449.643 100.791C449.89 100.958 450.173 101.041 450.493 101.041C450.68 101.041 450.856 101.011 451.023 100.951C451.196 100.891 451.336 100.798 451.443 100.671C451.55 100.538 451.603 100.368 451.603 100.161C451.603 99.9479 451.53 99.7646 451.383 99.6112C451.236 99.4579 450.97 99.3312 450.583 99.2312ZM454.379 95.1812C454.219 95.1812 454.086 95.1312 453.979 95.0312C453.879 94.9246 453.829 94.7879 453.829 94.6212C453.829 94.4612 453.879 94.3312 453.979 94.2312C454.086 94.1312 454.219 94.0812 454.379 94.0812C454.539 94.0812 454.669 94.1312 454.769 94.2312C454.876 94.3312 454.929 94.4612 454.929 94.6212C454.929 94.7879 454.876 94.9246 454.769 95.0312C454.669 95.1312 454.539 95.1812 454.379 95.1812ZM453.209 96.5712V96.3012H454.799V100.441C454.799 100.675 454.809 100.811 454.829 100.851C454.849 100.891 454.913 100.918 455.019 100.931L455.569 100.991V101.251H453.209V100.991L453.759 100.931C453.866 100.918 453.929 100.891 453.949 100.851C453.969 100.811 453.979 100.675 453.979 100.441V97.1112C453.979 96.8779 453.969 96.7412 453.949 96.7012C453.929 96.6612 453.866 96.6346 453.759 96.6212L453.209 96.5712ZM461.788 100.991V101.251H459.428V100.991L459.978 100.931C460.084 100.918 460.148 100.891 460.168 100.851C460.188 100.811 460.198 100.675 460.198 100.441V97.9512C460.198 97.4579 460.118 97.1112 459.958 96.9112C459.798 96.7046 459.568 96.6012 459.268 96.6012C459.048 96.6012 458.804 96.6679 458.538 96.8012C458.271 96.9346 458.021 97.1946 457.788 97.5812V100.441C457.788 100.675 457.798 100.811 457.818 100.851C457.838 100.891 457.901 100.918 458.008 100.931L458.558 100.991V101.251H456.198V100.991L456.748 100.931C456.854 100.918 456.918 100.891 456.938 100.851C456.958 100.811 456.968 100.675 456.968 100.441V97.1112C456.968 96.8779 456.958 96.7412 456.938 96.7012C456.918 96.6612 456.854 96.6346 456.748 96.6212L456.198 96.5712V96.3012H457.738V97.1112C457.978 96.7912 458.248 96.5612 458.548 96.4212C458.854 96.2746 459.161 96.2012 459.468 96.2012C459.961 96.2012 460.341 96.3546 460.608 96.6612C460.881 96.9612 461.018 97.3879 461.018 97.9412V100.441C461.018 100.675 461.028 100.811 461.048 100.851C461.068 100.891 461.131 100.918 461.238 100.931L461.788 100.991ZM467.03 101.831C467.03 102.365 466.833 102.771 466.44 103.051C466.053 103.338 465.513 103.481 464.82 103.481C464.06 103.481 463.503 103.348 463.15 103.081C462.796 102.821 462.613 102.491 462.6 102.091L463.34 101.941C463.313 102.308 463.41 102.601 463.63 102.821C463.856 103.048 464.253 103.161 464.82 103.161C465.326 103.161 465.733 103.068 466.04 102.881C466.353 102.695 466.51 102.421 466.51 102.061C466.51 101.795 466.42 101.595 466.24 101.461C466.06 101.328 465.763 101.261 465.35 101.261H464.16C463.713 101.261 463.4 101.168 463.22 100.981C463.04 100.788 462.95 100.575 462.95 100.341C462.95 100.148 462.996 99.9679 463.09 99.8012C463.19 99.6279 463.346 99.4579 463.56 99.2912C463.293 99.1646 463.076 98.9812 462.91 98.7412C462.743 98.4946 462.66 98.1979 462.66 97.8512C462.66 97.4846 462.743 97.1812 462.91 96.9412C463.083 96.6946 463.31 96.5112 463.59 96.3912C463.876 96.2646 464.193 96.2012 464.54 96.2012H464.71C465.076 96.2012 465.403 96.2679 465.69 96.4012L467.14 95.9012L467.25 96.6512H466.08C466.233 96.7846 466.353 96.9512 466.44 97.1512C466.533 97.3512 466.58 97.5846 466.58 97.8512C466.58 98.2046 466.493 98.5046 466.32 98.7512C466.153 98.9979 465.93 99.1846 465.65 99.3112C465.37 99.4312 465.056 99.4912 464.71 99.4912H464.54C464.426 99.4912 464.316 99.4846 464.21 99.4712C464.103 99.4579 464 99.4379 463.9 99.4112C463.753 99.5112 463.646 99.6146 463.58 99.7212C463.52 99.8279 463.49 99.9379 463.49 100.051C463.49 100.185 463.536 100.291 463.63 100.371C463.73 100.451 463.886 100.491 464.1 100.491H465.4C465.926 100.491 466.33 100.605 466.61 100.831C466.89 101.058 467.03 101.391 467.03 101.831ZM464.71 99.1712C464.89 99.1712 465.053 99.1312 465.2 99.0512C465.353 98.9712 465.476 98.8379 465.57 98.6512C465.663 98.4579 465.71 98.1912 465.71 97.8512C465.71 97.5046 465.663 97.2379 465.57 97.0512C465.476 96.8579 465.353 96.7212 465.2 96.6412C465.053 96.5612 464.89 96.5212 464.71 96.5212H464.54C464.36 96.5212 464.193 96.5612 464.04 96.6412C463.886 96.7212 463.763 96.8579 463.67 97.0512C463.576 97.2379 463.53 97.5046 463.53 97.8512C463.53 98.1912 463.576 98.4579 463.67 98.6512C463.763 98.8379 463.886 98.9712 464.04 99.0512C464.193 99.1312 464.36 99.1712 464.54 99.1712H464.71Z" fill="black"/>
<path d="M474.566 99.5312C474.566 100.058 474.389 100.495 474.036 100.841C473.682 101.181 473.152 101.351 472.446 101.351C471.952 101.351 471.542 101.275 471.216 101.121C470.889 100.961 470.646 100.755 470.486 100.501C470.326 100.248 470.246 99.9779 470.246 99.6912C470.246 99.3246 470.369 98.9879 470.616 98.6812C470.862 98.3679 471.219 98.1079 471.686 97.9012C471.286 97.7079 470.969 97.4746 470.736 97.2012C470.502 96.9212 470.386 96.5679 470.386 96.1412C470.386 95.8146 470.462 95.5179 470.616 95.2512C470.769 94.9779 470.992 94.7612 471.286 94.6012C471.586 94.4346 471.949 94.3512 472.376 94.3512C472.802 94.3512 473.166 94.4246 473.466 94.5712C473.772 94.7179 474.006 94.9179 474.166 95.1712C474.332 95.4179 474.416 95.6912 474.416 95.9912C474.416 96.3246 474.306 96.6179 474.086 96.8712C473.866 97.1246 473.522 97.3479 473.056 97.5412C473.549 97.7479 473.922 98.0079 474.176 98.3212C474.436 98.6279 474.566 99.0312 474.566 99.5312ZM472.326 97.2312L472.746 97.4112C473.072 97.2379 473.292 97.0346 473.406 96.8012C473.526 96.5679 473.586 96.2979 473.586 95.9912C473.586 95.5512 473.476 95.2212 473.256 95.0012C473.036 94.7812 472.739 94.6712 472.366 94.6712C472.012 94.6712 471.716 94.7746 471.476 94.9812C471.242 95.1812 471.126 95.4779 471.126 95.8712C471.126 96.2046 471.229 96.4746 471.436 96.6812C471.642 96.8812 471.939 97.0646 472.326 97.2312ZM471.076 99.6712C471.076 100.098 471.192 100.431 471.426 100.671C471.659 100.911 471.999 101.031 472.446 101.031C472.886 101.031 473.226 100.925 473.466 100.711C473.706 100.491 473.826 100.178 473.826 99.7712C473.826 99.4179 473.729 99.1312 473.536 98.9112C473.349 98.6846 473.036 98.4779 472.596 98.2912L472.006 98.0412C471.699 98.1946 471.466 98.4179 471.306 98.7112C471.152 98.9979 471.076 99.3179 471.076 99.6712ZM477.005 100.991V101.251H475.105V100.991L475.645 100.931C475.718 100.925 475.772 100.915 475.805 100.901C475.838 100.881 475.868 100.841 475.895 100.781C475.928 100.715 475.968 100.601 476.015 100.441L477.945 94.4512H478.575L480.525 100.441C480.572 100.601 480.608 100.715 480.635 100.781C480.668 100.841 480.702 100.881 480.735 100.901C480.768 100.915 480.818 100.925 480.885 100.931L481.435 100.991V101.251H479.005V100.991L479.555 100.931C479.662 100.918 479.718 100.891 479.725 100.851C479.738 100.805 479.708 100.668 479.635 100.441L479.225 99.1612H476.785L476.375 100.441C476.302 100.668 476.268 100.805 476.275 100.851C476.288 100.891 476.348 100.918 476.455 100.931L477.005 100.991ZM476.885 98.8412H479.125L478.005 95.3612L476.885 98.8412ZM487.344 100.991V101.251H484.984V100.991L485.534 100.931C485.641 100.918 485.704 100.891 485.724 100.851C485.744 100.811 485.754 100.675 485.754 100.441V97.9512C485.754 97.4579 485.674 97.1112 485.514 96.9112C485.354 96.7046 485.124 96.6012 484.824 96.6012C484.604 96.6012 484.361 96.6679 484.094 96.8012C483.828 96.9346 483.578 97.1946 483.344 97.5812V100.441C483.344 100.675 483.354 100.811 483.374 100.851C483.394 100.891 483.458 100.918 483.564 100.931L484.114 100.991V101.251H481.754V100.991L482.304 100.931C482.411 100.918 482.474 100.891 482.494 100.851C482.514 100.811 482.524 100.675 482.524 100.441V97.1112C482.524 96.8779 482.514 96.7412 482.494 96.7012C482.474 96.6612 482.411 96.6346 482.304 96.6212L481.754 96.5712V96.3012H483.294V97.1112C483.534 96.7912 483.804 96.5612 484.104 96.4212C484.411 96.2746 484.718 96.2012 485.024 96.2012C485.518 96.2012 485.898 96.3546 486.164 96.6612C486.438 96.9612 486.574 97.3879 486.574 97.9412V100.441C486.574 100.675 486.584 100.811 486.604 100.851C486.624 100.891 486.688 100.918 486.794 100.931L487.344 100.991ZM490.036 99.2312L489.426 99.0812C488.593 98.8679 488.176 98.3879 488.176 97.6412C488.176 97.3946 488.233 97.1612 488.346 96.9412C488.46 96.7212 488.64 96.5446 488.886 96.4112C489.14 96.2712 489.463 96.2012 489.856 96.2012C490.296 96.2012 490.65 96.2746 490.916 96.4212C491.183 96.5679 491.37 96.7579 491.476 96.9912C491.583 97.2246 491.616 97.4779 491.576 97.7512L490.796 97.8912C490.876 97.4579 490.83 97.1212 490.656 96.8812C490.49 96.6412 490.213 96.5212 489.826 96.5212C489.526 96.5212 489.286 96.5979 489.106 96.7512C488.926 96.8979 488.836 97.1146 488.836 97.4012C488.836 97.6146 488.903 97.8046 489.036 97.9712C489.17 98.1312 489.393 98.2512 489.706 98.3312L490.336 98.4812C490.776 98.5879 491.116 98.7579 491.356 98.9912C491.603 99.2246 491.726 99.5312 491.726 99.9112C491.726 100.338 491.57 100.685 491.256 100.951C490.95 101.218 490.51 101.351 489.936 101.351C489.663 101.351 489.396 101.311 489.136 101.231C488.883 101.145 488.66 101.011 488.466 100.831C488.28 100.645 488.143 100.405 488.056 100.111L488.616 99.9112C488.69 100.331 488.85 100.625 489.096 100.791C489.343 100.958 489.626 101.041 489.946 101.041C490.133 101.041 490.31 101.011 490.476 100.951C490.65 100.891 490.79 100.798 490.896 100.671C491.003 100.538 491.056 100.368 491.056 100.161C491.056 99.9479 490.983 99.7646 490.836 99.6112C490.69 99.4579 490.423 99.3312 490.036 99.2312ZM499.184 97.0512L498.064 101.251H497.414L496.104 97.1212L494.794 101.251H494.174L493.064 97.0512C493.017 96.8579 492.977 96.7412 492.944 96.7012C492.917 96.6612 492.851 96.6346 492.744 96.6212L492.234 96.5712V96.3012H494.504V96.5712L493.984 96.6212C493.877 96.6346 493.817 96.6612 493.804 96.7012C493.797 96.7412 493.821 96.8579 493.874 97.0512L494.734 100.351L496.004 96.3012H496.654L497.944 100.411L498.814 97.0512C498.867 96.8579 498.887 96.7412 498.874 96.7012C498.867 96.6612 498.811 96.6346 498.704 96.6212L498.184 96.5712V96.3012H500.014V96.5712L499.504 96.6212C499.404 96.6346 499.337 96.6612 499.304 96.7012C499.277 96.7412 499.237 96.8579 499.184 97.0512ZM504.481 100.111C504.361 100.565 504.134 100.885 503.801 101.071C503.474 101.258 503.111 101.351 502.711 101.351C501.971 101.351 501.418 101.128 501.051 100.681C500.684 100.228 500.501 99.6246 500.501 98.8712V98.6712C500.501 97.9246 500.678 97.3279 501.031 96.8812C501.384 96.4279 501.898 96.2012 502.571 96.2012C502.931 96.2012 503.258 96.2746 503.551 96.4212C503.851 96.5679 504.088 96.7846 504.261 97.0712C504.441 97.3579 504.531 97.7146 504.531 98.1412C504.531 98.3412 504.511 98.5512 504.471 98.7712H501.401V99.0712C501.401 99.7712 501.508 100.275 501.721 100.581C501.941 100.881 502.294 101.031 502.781 101.031C503.088 101.031 503.341 100.951 503.541 100.791C503.748 100.631 503.884 100.355 503.951 99.9612L504.481 100.111ZM502.571 96.5212C502.178 96.5212 501.884 96.6712 501.691 96.9712C501.498 97.2712 501.401 97.7646 501.401 98.4512H503.651V98.4212C503.664 98.3346 503.674 98.2512 503.681 98.1712C503.688 98.0846 503.691 98.0079 503.691 97.9412C503.691 97.4412 503.588 97.0812 503.381 96.8612C503.174 96.6346 502.904 96.5212 502.571 96.5212ZM505.475 96.5712V96.3012H507.015V97.1012C507.248 96.7879 507.482 96.5612 507.715 96.4212C507.955 96.2746 508.198 96.2012 508.445 96.2012C508.658 96.2012 508.858 96.2646 509.045 96.3912C509.232 96.5179 509.388 96.7212 509.515 97.0012L508.865 97.3912C508.765 97.1512 508.652 96.9846 508.525 96.8912C508.398 96.7979 508.258 96.7512 508.105 96.7512C507.938 96.7512 507.772 96.8046 507.605 96.9112C507.445 97.0179 507.265 97.2179 507.065 97.5112V100.441C507.065 100.675 507.075 100.815 507.095 100.861C507.115 100.901 507.178 100.925 507.285 100.931L508.035 100.991V101.251H505.475V100.991L506.025 100.931C506.132 100.918 506.195 100.891 506.215 100.851C506.235 100.811 506.245 100.675 506.245 100.441V97.1112C506.245 96.8779 506.235 96.7412 506.215 96.7012C506.195 96.6612 506.132 96.6346 506.025 96.6212L505.475 96.5712ZM511.98 99.2312L511.37 99.0812C510.536 98.8679 510.12 98.3879 510.12 97.6412C510.12 97.3946 510.176 97.1612 510.29 96.9412C510.403 96.7212 510.583 96.5446 510.83 96.4112C511.083 96.2712 511.406 96.2012 511.8 96.2012C512.24 96.2012 512.593 96.2746 512.86 96.4212C513.126 96.5679 513.313 96.7579 513.42 96.9912C513.526 97.2246 513.56 97.4779 513.52 97.7512L512.74 97.8912C512.82 97.4579 512.773 97.1212 512.6 96.8812C512.433 96.6412 512.156 96.5212 511.77 96.5212C511.47 96.5212 511.23 96.5979 511.05 96.7512C510.87 96.8979 510.78 97.1146 510.78 97.4012C510.78 97.6146 510.846 97.8046 510.98 97.9712C511.113 98.1312 511.336 98.2512 511.65 98.3312L512.28 98.4812C512.72 98.5879 513.06 98.7579 513.3 98.9912C513.546 99.2246 513.67 99.5312 513.67 99.9112C513.67 100.338 513.513 100.685 513.2 100.951C512.893 101.218 512.453 101.351 511.88 101.351C511.606 101.351 511.34 101.311 511.08 101.231C510.826 101.145 510.603 101.011 510.41 100.831C510.223 100.645 510.086 100.405 510 100.111L510.56 99.9112C510.633 100.331 510.793 100.625 511.04 100.791C511.286 100.958 511.57 101.041 511.89 101.041C512.076 101.041 512.253 101.011 512.42 100.951C512.593 100.891 512.733 100.798 512.84 100.671C512.946 100.538 513 100.368 513 100.161C513 99.9479 512.926 99.7646 512.78 99.6112C512.633 99.4579 512.366 99.3312 511.98 99.2312Z" fill="#0C8CE9"/>
<path d="M398.93 113.051L397.81 117.251H397.16L395.85 113.121L394.54 117.251H393.92L392.81 113.051C392.763 112.858 392.723 112.741 392.69 112.701C392.663 112.661 392.597 112.635 392.49 112.621L391.98 112.571V112.301H394.25V112.571L393.73 112.621C393.623 112.635 393.563 112.661 393.55 112.701C393.543 112.741 393.567 112.858 393.62 113.051L394.48 116.351L395.75 112.301H396.4L397.69 116.411L398.56 113.051C398.613 112.858 398.633 112.741 398.62 112.701C398.613 112.661 398.557 112.635 398.45 112.621L397.93 112.571V112.301H399.76V112.571L399.25 112.621C399.15 112.635 399.083 112.661 399.05 112.701C399.023 112.741 398.983 112.858 398.93 113.051ZM406.674 113.051L405.554 117.251H404.904L403.594 113.121L402.284 117.251H401.664L400.554 113.051C400.507 112.858 400.467 112.741 400.434 112.701C400.407 112.661 400.341 112.635 400.234 112.621L399.724 112.571V112.301H401.994V112.571L401.474 112.621C401.367 112.635 401.307 112.661 401.294 112.701C401.287 112.741 401.311 112.858 401.364 113.051L402.224 116.351L403.494 112.301H404.144L405.434 116.411L406.304 113.051C406.357 112.858 406.377 112.741 406.364 112.701C406.357 112.661 406.301 112.635 406.194 112.621L405.674 112.571V112.301H407.504V112.571L406.994 112.621C406.894 112.635 406.827 112.661 406.794 112.701C406.767 112.741 406.727 112.858 406.674 113.051ZM414.418 113.051L413.298 117.251H412.648L411.338 113.121L410.028 117.251H409.408L408.298 113.051C408.252 112.858 408.212 112.741 408.178 112.701C408.152 112.661 408.085 112.635 407.978 112.621L407.468 112.571V112.301H409.738V112.571L409.218 112.621C409.112 112.635 409.052 112.661 409.038 112.701C409.032 112.741 409.055 112.858 409.108 113.051L409.968 116.351L411.238 112.301H411.888L413.178 116.411L414.048 113.051C414.102 112.858 414.122 112.741 414.108 112.701C414.102 112.661 414.045 112.635 413.938 112.621L413.418 112.571V112.301H415.248V112.571L414.738 112.621C414.638 112.635 414.572 112.661 414.538 112.701C414.512 112.741 414.472 112.858 414.418 113.051ZM415.839 117.351C415.672 117.351 415.535 117.298 415.429 117.191C415.329 117.085 415.279 116.948 415.279 116.781C415.279 116.615 415.329 116.481 415.429 116.381C415.535 116.275 415.672 116.221 415.839 116.221C416.012 116.221 416.152 116.275 416.259 116.381C416.365 116.481 416.419 116.615 416.419 116.781C416.419 116.948 416.365 117.085 416.259 117.191C416.152 117.298 416.012 117.351 415.839 117.351ZM421.919 115.531C421.919 116.058 421.742 116.495 421.389 116.841C421.036 117.181 420.506 117.351 419.799 117.351C419.306 117.351 418.896 117.275 418.569 117.121C418.242 116.961 417.999 116.755 417.839 116.501C417.679 116.248 417.599 115.978 417.599 115.691C417.599 115.325 417.722 114.988 417.969 114.681C418.216 114.368 418.572 114.108 419.039 113.901C418.639 113.708 418.322 113.475 418.089 113.201C417.856 112.921 417.739 112.568 417.739 112.141C417.739 111.815 417.816 111.518 417.969 111.251C418.122 110.978 418.346 110.761 418.639 110.601C418.939 110.435 419.302 110.351 419.729 110.351C420.156 110.351 420.519 110.425 420.819 110.571C421.126 110.718 421.359 110.918 421.519 111.171C421.686 111.418 421.769 111.691 421.769 111.991C421.769 112.325 421.659 112.618 421.439 112.871C421.219 113.125 420.876 113.348 420.409 113.541C420.902 113.748 421.276 114.008 421.529 114.321C421.789 114.628 421.919 115.031 421.919 115.531ZM419.679 113.231L420.099 113.411C420.426 113.238 420.646 113.035 420.759 112.801C420.879 112.568 420.939 112.298 420.939 111.991C420.939 111.551 420.829 111.221 420.609 111.001C420.389 110.781 420.092 110.671 419.719 110.671C419.366 110.671 419.069 110.775 418.829 110.981C418.596 111.181 418.479 111.478 418.479 111.871C418.479 112.205 418.582 112.475 418.789 112.681C418.996 112.881 419.292 113.065 419.679 113.231ZM418.429 115.671C418.429 116.098 418.546 116.431 418.779 116.671C419.012 116.911 419.352 117.031 419.799 117.031C420.239 117.031 420.579 116.925 420.819 116.711C421.059 116.491 421.179 116.178 421.179 115.771C421.179 115.418 421.082 115.131 420.889 114.911C420.702 114.685 420.389 114.478 419.949 114.291L419.359 114.041C419.052 114.195 418.819 114.418 418.659 114.711C418.506 114.998 418.429 115.318 418.429 115.671ZM426.949 117.321C426.429 117.321 426.122 117.081 426.029 116.601C425.795 116.868 425.539 117.061 425.259 117.181C424.979 117.295 424.702 117.351 424.429 117.351C423.962 117.351 423.619 117.221 423.399 116.961C423.179 116.701 423.069 116.388 423.069 116.021C423.069 115.628 423.202 115.318 423.469 115.091C423.742 114.858 424.212 114.741 424.879 114.741H426.009V113.931C426.009 113.398 425.915 113.031 425.729 112.831C425.549 112.625 425.302 112.521 424.989 112.521C424.789 112.521 424.609 112.561 424.449 112.641C424.289 112.721 424.172 112.868 424.099 113.081C424.032 113.288 424.025 113.591 424.079 113.991L423.289 113.871C423.255 113.558 423.295 113.278 423.409 113.031C423.529 112.778 423.722 112.578 423.989 112.431C424.262 112.278 424.602 112.201 425.009 112.201C425.495 112.201 425.869 112.285 426.129 112.451C426.389 112.611 426.569 112.821 426.669 113.081C426.775 113.341 426.829 113.625 426.829 113.931V116.181C426.829 116.521 426.865 116.735 426.939 116.821C427.019 116.908 427.105 116.951 427.199 116.951C427.259 116.951 427.322 116.938 427.389 116.911C427.455 116.878 427.529 116.828 427.609 116.761L427.789 117.011C427.689 117.098 427.569 117.171 427.429 117.231C427.295 117.291 427.135 117.321 426.949 117.321ZM424.709 116.931C424.895 116.931 425.095 116.881 425.309 116.781C425.529 116.675 425.762 116.465 426.009 116.151V115.061H424.989C424.615 115.061 424.342 115.138 424.169 115.291C424.002 115.438 423.919 115.668 423.919 115.981C423.919 116.281 423.982 116.515 424.109 116.681C424.242 116.848 424.442 116.931 424.709 116.931ZM433.819 116.991V117.251H431.459V116.991L432.009 116.931C432.116 116.918 432.179 116.891 432.199 116.851C432.219 116.811 432.229 116.675 432.229 116.441V113.951C432.229 113.458 432.149 113.111 431.989 112.911C431.829 112.705 431.599 112.601 431.299 112.601C431.079 112.601 430.836 112.668 430.569 112.801C430.302 112.935 430.052 113.195 429.819 113.581V116.441C429.819 116.675 429.829 116.811 429.849 116.851C429.869 116.891 429.932 116.918 430.039 116.931L430.589 116.991V117.251H428.229V116.991L428.779 116.931C428.886 116.918 428.949 116.891 428.969 116.851C428.989 116.811 428.999 116.675 428.999 116.441V113.111C428.999 112.878 428.989 112.741 428.969 112.701C428.949 112.661 428.886 112.635 428.779 112.621L428.229 112.571V112.301H429.769V113.111C430.009 112.791 430.279 112.561 430.579 112.421C430.886 112.275 431.192 112.201 431.499 112.201C431.992 112.201 432.372 112.355 432.639 112.661C432.912 112.961 433.049 113.388 433.049 113.941V116.441C433.049 116.675 433.059 116.811 433.079 116.851C433.099 116.891 433.162 116.918 433.269 116.931L433.819 116.991ZM436.511 115.231L435.901 115.081C435.067 114.868 434.651 114.388 434.651 113.641C434.651 113.395 434.707 113.161 434.821 112.941C434.934 112.721 435.114 112.545 435.361 112.411C435.614 112.271 435.937 112.201 436.331 112.201C436.771 112.201 437.124 112.275 437.391 112.421C437.657 112.568 437.844 112.758 437.951 112.991C438.057 113.225 438.091 113.478 438.051 113.751L437.271 113.891C437.351 113.458 437.304 113.121 437.131 112.881C436.964 112.641 436.687 112.521 436.301 112.521C436.001 112.521 435.761 112.598 435.581 112.751C435.401 112.898 435.311 113.115 435.311 113.401C435.311 113.615 435.377 113.805 435.511 113.971C435.644 114.131 435.867 114.251 436.181 114.331L436.811 114.481C437.251 114.588 437.591 114.758 437.831 114.991C438.077 115.225 438.201 115.531 438.201 115.911C438.201 116.338 438.044 116.685 437.731 116.951C437.424 117.218 436.984 117.351 436.411 117.351C436.137 117.351 435.871 117.311 435.611 117.231C435.357 117.145 435.134 117.011 434.941 116.831C434.754 116.645 434.617 116.405 434.531 116.111L435.091 115.911C435.164 116.331 435.324 116.625 435.571 116.791C435.817 116.958 436.101 117.041 436.421 117.041C436.607 117.041 436.784 117.011 436.951 116.951C437.124 116.891 437.264 116.798 437.371 116.671C437.477 116.538 437.531 116.368 437.531 116.161C437.531 115.948 437.457 115.765 437.311 115.611C437.164 115.458 436.897 115.331 436.511 115.231ZM445.659 113.051L444.539 117.251H443.889L442.579 113.121L441.269 117.251H440.649L439.539 113.051C439.492 112.858 439.452 112.741 439.419 112.701C439.392 112.661 439.325 112.635 439.219 112.621L438.709 112.571V112.301H440.979V112.571L440.459 112.621C440.352 112.635 440.292 112.661 440.279 112.701C440.272 112.741 440.295 112.858 440.349 113.051L441.209 116.351L442.479 112.301H443.129L444.419 116.411L445.289 113.051C445.342 112.858 445.362 112.741 445.349 112.701C445.342 112.661 445.285 112.635 445.179 112.621L444.659 112.571V112.301H446.489V112.571L445.979 112.621C445.879 112.635 445.812 112.661 445.779 112.701C445.752 112.741 445.712 112.858 445.659 113.051ZM450.956 116.111C450.836 116.565 450.609 116.885 450.276 117.071C449.949 117.258 449.586 117.351 449.186 117.351C448.446 117.351 447.892 117.128 447.526 116.681C447.159 116.228 446.976 115.625 446.976 114.871V114.671C446.976 113.925 447.152 113.328 447.506 112.881C447.859 112.428 448.372 112.201 449.046 112.201C449.406 112.201 449.732 112.275 450.026 112.421C450.326 112.568 450.562 112.785 450.736 113.071C450.916 113.358 451.006 113.715 451.006 114.141C451.006 114.341 450.986 114.551 450.946 114.771H447.876V115.071C447.876 115.771 447.982 116.275 448.196 116.581C448.416 116.881 448.769 117.031 449.256 117.031C449.562 117.031 449.816 116.951 450.016 116.791C450.222 116.631 450.359 116.355 450.426 115.961L450.956 116.111ZM449.046 112.521C448.652 112.521 448.359 112.671 448.166 112.971C447.972 113.271 447.876 113.765 447.876 114.451H450.126V114.421C450.139 114.335 450.149 114.251 450.156 114.171C450.162 114.085 450.166 114.008 450.166 113.941C450.166 113.441 450.062 113.081 449.856 112.861C449.649 112.635 449.379 112.521 449.046 112.521ZM451.95 112.571V112.301H453.49V113.101C453.723 112.788 453.956 112.561 454.19 112.421C454.43 112.275 454.673 112.201 454.92 112.201C455.133 112.201 455.333 112.265 455.52 112.391C455.706 112.518 455.863 112.721 455.99 113.001L455.34 113.391C455.24 113.151 455.126 112.985 455 112.891C454.873 112.798 454.733 112.751 454.58 112.751C454.413 112.751 454.246 112.805 454.08 112.911C453.92 113.018 453.74 113.218 453.54 113.511V116.441C453.54 116.675 453.55 116.815 453.57 116.861C453.59 116.901 453.653 116.925 453.76 116.931L454.51 116.991V117.251H451.95V116.991L452.5 116.931C452.606 116.918 452.67 116.891 452.69 116.851C452.71 116.811 452.72 116.675 452.72 116.441V113.111C452.72 112.878 452.71 112.741 452.69 112.701C452.67 112.661 452.606 112.635 452.5 112.621L451.95 112.571ZM458.454 115.231L457.844 115.081C457.011 114.868 456.594 114.388 456.594 113.641C456.594 113.395 456.651 113.161 456.764 112.941C456.877 112.721 457.057 112.545 457.304 112.411C457.557 112.271 457.881 112.201 458.274 112.201C458.714 112.201 459.067 112.275 459.334 112.421C459.601 112.568 459.787 112.758 459.894 112.991C460.001 113.225 460.034 113.478 459.994 113.751L459.214 113.891C459.294 113.458 459.247 113.121 459.074 112.881C458.907 112.641 458.631 112.521 458.244 112.521C457.944 112.521 457.704 112.598 457.524 112.751C457.344 112.898 457.254 113.115 457.254 113.401C457.254 113.615 457.321 113.805 457.454 113.971C457.587 114.131 457.811 114.251 458.124 114.331L458.754 114.481C459.194 114.588 459.534 114.758 459.774 114.991C460.021 115.225 460.144 115.531 460.144 115.911C460.144 116.338 459.987 116.685 459.674 116.951C459.367 117.218 458.927 117.351 458.354 117.351C458.081 117.351 457.814 117.311 457.554 117.231C457.301 117.145 457.077 117.011 456.884 116.831C456.697 116.645 456.561 116.405 456.474 116.111L457.034 115.911C457.107 116.331 457.267 116.625 457.514 116.791C457.761 116.958 458.044 117.041 458.364 117.041C458.551 117.041 458.727 117.011 458.894 116.951C459.067 116.891 459.207 116.798 459.314 116.671C459.421 116.538 459.474 116.368 459.474 116.161C459.474 115.948 459.401 115.765 459.254 115.611C459.107 115.458 458.841 115.331 458.454 115.231ZM461.952 117.351C461.785 117.351 461.649 117.298 461.542 117.191C461.442 117.085 461.392 116.948 461.392 116.781C461.392 116.615 461.442 116.481 461.542 116.381C461.649 116.275 461.785 116.221 461.952 116.221C462.125 116.221 462.265 116.275 462.372 116.381C462.479 116.481 462.532 116.615 462.532 116.781C462.532 116.948 462.479 117.085 462.372 117.191C462.265 117.298 462.125 117.351 461.952 117.351ZM465.784 112.521C465.417 112.521 465.13 112.675 464.924 112.981C464.724 113.281 464.624 113.778 464.624 114.471V115.071C464.624 115.771 464.724 116.275 464.924 116.581C465.13 116.881 465.464 117.031 465.924 117.031C466.237 117.031 466.49 116.951 466.684 116.791C466.877 116.631 467.007 116.355 467.074 115.961L467.604 116.111C467.484 116.565 467.264 116.885 466.944 117.071C466.624 117.258 466.267 117.351 465.874 117.351C465.154 117.351 464.614 117.128 464.254 116.681C463.9 116.228 463.724 115.625 463.724 114.871V114.671C463.724 113.925 463.9 113.328 464.254 112.881C464.607 112.428 465.117 112.201 465.784 112.201C466.21 112.201 466.564 112.285 466.844 112.451C467.13 112.618 467.334 112.845 467.454 113.131C467.574 113.411 467.607 113.721 467.554 114.061L466.764 114.181C466.837 113.648 466.787 113.238 466.614 112.951C466.447 112.665 466.17 112.521 465.784 112.521ZM473.063 114.671V114.871C473.063 115.625 472.873 116.228 472.493 116.681C472.12 117.128 471.587 117.351 470.893 117.351C470.207 117.351 469.673 117.128 469.293 116.681C468.92 116.228 468.733 115.625 468.733 114.871V114.671C468.733 113.925 468.92 113.328 469.293 112.881C469.667 112.428 470.2 112.201 470.893 112.201C471.587 112.201 472.12 112.428 472.493 112.881C472.873 113.328 473.063 113.925 473.063 114.671ZM472.163 114.471C472.163 113.778 472.053 113.281 471.833 112.981C471.62 112.675 471.307 112.521 470.893 112.521C470.487 112.521 470.173 112.675 469.953 112.981C469.74 113.281 469.633 113.778 469.633 114.471V115.071C469.633 115.771 469.74 116.275 469.953 116.581C470.173 116.881 470.487 117.031 470.893 117.031C471.307 117.031 471.62 116.881 471.833 116.581C472.053 116.275 472.163 115.771 472.163 115.071V114.471ZM479.52 116.991V117.251H477.16V116.991L477.71 116.931C477.816 116.918 477.88 116.891 477.9 116.851C477.92 116.811 477.93 116.675 477.93 116.441V113.951C477.93 113.458 477.853 113.111 477.7 112.911C477.553 112.705 477.336 112.601 477.05 112.601C476.843 112.601 476.61 112.668 476.35 112.801C476.096 112.935 475.853 113.191 475.62 113.571V116.441C475.62 116.675 475.63 116.811 475.65 116.851C475.67 116.891 475.733 116.918 475.84 116.931L476.39 116.991V117.251H474.03V116.991L474.58 116.931C474.686 116.918 474.75 116.891 474.77 116.851C474.79 116.811 474.8 116.675 474.8 116.441V113.111C474.8 112.878 474.79 112.741 474.77 112.701C474.75 112.661 474.686 112.635 474.58 112.621L474.03 112.571V112.301H475.57V113.111C475.803 112.798 476.066 112.568 476.36 112.421C476.66 112.275 476.956 112.201 477.25 112.201C477.97 112.201 478.433 112.531 478.64 113.191C478.886 112.845 479.16 112.595 479.46 112.441C479.766 112.281 480.073 112.201 480.38 112.201C480.853 112.201 481.22 112.355 481.48 112.661C481.746 112.961 481.88 113.388 481.88 113.941V116.441C481.88 116.675 481.89 116.811 481.91 116.851C481.93 116.891 481.993 116.918 482.1 116.931L482.65 116.991V117.251H480.29V116.991L480.84 116.931C480.946 116.918 481.01 116.891 481.03 116.851C481.05 116.811 481.06 116.675 481.06 116.441V113.951C481.06 113.458 480.983 113.111 480.83 112.911C480.683 112.705 480.466 112.601 480.18 112.601C479.973 112.601 479.736 112.671 479.47 112.811C479.21 112.945 478.963 113.208 478.73 113.601C478.736 113.655 478.74 113.711 478.74 113.771C478.746 113.825 478.75 113.881 478.75 113.941V116.441C478.75 116.675 478.76 116.811 478.78 116.851C478.8 116.891 478.863 116.918 478.97 116.931L479.52 116.991Z" fill="#0C8CE9"/>
<defs>
<clipPath id="clip0_2470_7928">
<rect width="15.9996" height="15.9996" fill="white" transform="translate(394.668 68.585)"/>
</clipPath>
</defs>
</svg>
