<svg width="20" height="20" viewBox="0 0 20 20" fill="none" xmlns="http://www.w3.org/2000/svg">
<path d="M18.5 10C18.5 5.30558 14.6944 1.5 10 1.5C5.30558 1.5 1.5 5.30558 1.5 10C1.5 14.6944 5.30558 18.5 10 18.5C14.6944 18.5 18.5 14.6944 18.5 10ZM20 10C20 15.5228 15.5228 20 10 20C4.47715 20 0 15.5228 0 10C0 4.47715 4.47715 0 10 0C15.5228 0 20 4.47715 20 10Z" fill="#0C8CE9"/>
<path d="M9.25 14.813V9.813C9.25 9.39879 9.58579 9.063 10 9.063C10.4142 9.063 10.75 9.39879 10.75 9.813V14.813C10.75 15.2272 10.4142 15.563 10 15.563C9.58579 15.563 9.25 15.2272 9.25 14.813Z" fill="#0C8CE9"/>
<path d="M10 7.688C10.6904 7.688 11.25 7.12836 11.25 6.438C11.25 5.74764 10.6904 5.188 10 5.188C9.30964 5.188 8.75 5.74764 8.75 6.438C8.75 7.12836 9.30964 7.688 10 7.688Z" fill="#0C8CE9"/>
</svg>
