<svg width="44" height="44" viewBox="0 0 44 44" fill="none" xmlns="http://www.w3.org/2000/svg">
<rect width="44" height="44" rx="11" fill="#0C8CE9"/>
<g clip-path="url(#clip0_2711_7307)">
<path d="M38.4922 33.1546C38.4922 37.471 34.1059 38.502 28.6953 38.502H12.1953C8.49329 38.502 5.49219 36.1078 5.49219 33.1546L7.55469 27.4635C6.98514 27.4635 7.55469 26.9555 7.55469 27.4635C7.55469 26.9555 8.12423 27.4635 7.55469 27.4635V31.6029C7.55469 34.397 10.0941 36.6622 13.2266 36.6622H28.6953C32.9669 36.6622 36.4297 33.5734 36.4297 29.7632C36.4297 25.953 32.9669 22.8642 28.6953 22.8642H12.7109C12.1414 22.8642 12.7109 23.3722 12.7109 22.8642C12.1414 22.8642 12.7109 22.3561 12.7109 22.8642L20.5142 21.0244H28.6953C34.1059 21.0244 38.4922 28.8384 38.4922 33.1546Z" fill="white"/>
<path d="M5.49219 33.1537C5.49219 37.4701 9.87841 38.5011 15.2891 38.5011H31.7891C35.4911 38.5011 38.4922 36.1069 38.4922 33.1537L36.4297 27.4338C36.4297 26.9244 36.9992 27.4338 36.4297 27.4338C35.8602 27.4338 36.4297 26.9244 36.4297 27.4338V31.584C36.4297 34.3854 33.8903 36.6566 30.7578 36.6566H15.2891C11.0175 36.6566 7.55469 33.5596 7.55469 29.7395C7.55469 25.9193 11.0175 22.8224 15.2891 22.8224H31.2734C31.2734 23.3318 31.843 22.8224 31.2734 22.8224C31.2734 22.3131 31.843 22.8224 31.2734 22.8224L27.3203 21.9001L23.3672 21.0908H15.2891C9.87841 21.0908 5.49219 28.8375 5.49219 33.1537Z" fill="white"/>
<path d="M5.49219 10.7737C5.49219 6.51685 9.87841 5.5 15.2891 5.5H31.7891C35.4911 5.5 38.4922 7.86111 38.4922 10.7737L36.4297 16.5045C36.4297 17.011 36.9992 16.5045 36.4297 16.5045C35.8602 16.5045 36.4297 17.011 36.4297 16.5045V12.3778C36.4297 9.59225 33.8903 7.33409 30.7578 7.33409H15.2891C11.0175 7.33409 7.55469 10.4134 7.55469 14.2119C7.55469 18.0104 11.0175 21.0898 15.2891 21.0898H31.2734C31.2734 20.5833 31.843 21.0898 31.2734 21.0898C31.2734 21.5962 31.843 21.0898 31.2734 21.0898L23.3672 22.7305L15.2891 22.8213C9.87841 22.8213 5.49219 15.0305 5.49219 10.7737Z" fill="white"/>
<path d="M38.4922 10.7737C38.4922 6.51685 34.1059 5.5 28.6953 5.5H12.1953C8.49329 5.5 5.49219 7.86111 5.49219 10.7737L7.55469 16.4485C6.98514 16.4485 7.55469 16.9524 7.55469 16.4485C7.55469 16.9524 8.12423 16.4485 7.55469 16.4485V12.3429C7.55469 9.57143 10.0941 7.32476 13.2266 7.32476H28.6953C32.9669 7.32476 36.4297 10.3884 36.4297 14.1676C36.4297 17.9468 32.9669 21.0104 28.6953 21.0104H12.7109C12.1414 21.0104 12.7109 20.5066 12.7109 21.0104C12.1414 21.0104 12.7109 21.5144 12.7109 21.0104L20.6323 22.8352H28.6953C34.1059 22.8352 38.4922 15.0305 38.4922 10.7737Z" fill="white"/>
</g>
<defs>
<clipPath id="clip0_2711_7307">
<rect width="33" height="33" fill="white" transform="translate(5.5 5.5)"/>
</clipPath>
</defs>
</svg>
