<svg width="18" height="16" viewBox="0 0 18 16" fill="none" xmlns="http://www.w3.org/2000/svg">
<path d="M8.98406 16C8.74266 16 8.50362 15.9483 8.2806 15.8478C8.05757 15.7472 7.85493 15.5999 7.68423 15.4142C7.51354 15.2285 7.37814 15.008 7.28576 14.7654C7.19338 14.5227 7.14583 14.2626 7.14583 14C7.14583 13.7374 7.19338 13.4773 7.28576 13.2346C7.37814 12.992 7.51354 12.7715 7.68423 12.5858C7.85493 12.4001 8.05757 12.2528 8.2806 12.1522C8.50362 12.0517 8.74266 12 8.98406 12C9.47159 12 9.93914 12.2107 10.2839 12.5858C10.6286 12.9609 10.8223 13.4696 10.8223 14C10.8223 14.5304 10.6286 15.0391 10.2839 15.4142C9.93914 15.7893 9.47159 16 8.98406 16ZM8.98406 14.6667C9.14657 14.6667 9.30242 14.5964 9.41733 14.4714C9.53224 14.3464 9.5968 14.1768 9.5968 14C9.5968 13.8232 9.53224 13.6536 9.41733 13.5286C9.30242 13.4036 9.14657 13.3333 8.98406 13.3333C8.82155 13.3333 8.66569 13.4036 8.55078 13.5286C8.43587 13.6536 8.37131 13.8232 8.37131 14C8.37131 14.1768 8.43587 14.3464 8.55078 14.4714C8.66569 14.5964 8.82155 14.6667 8.98406 14.6667ZM12.8921 9.81334C12.9978 9.94212 13.0535 10.1105 13.0474 10.283C13.0412 10.4556 12.9739 10.6188 12.8594 10.7383C12.7449 10.8579 12.5922 10.9245 12.4335 10.924C12.2748 10.9236 12.1225 10.8562 12.0086 10.736C11.6182 10.2912 11.1488 9.93751 10.6288 9.69637C10.1089 9.45524 9.54928 9.33172 8.98406 9.33334C7.83578 9.33334 6.76225 9.83733 5.97794 10.716C5.86425 10.8407 5.70992 10.9115 5.54849 10.9131C5.38706 10.9147 5.23157 10.847 5.11581 10.7245C5.00006 10.6021 4.93339 10.4349 4.93029 10.2593C4.92719 10.0837 4.98792 9.91384 5.09927 9.78667C5.60323 9.22013 6.20698 8.76992 6.87445 8.46295C7.54191 8.15597 8.25941 7.99852 8.98406 8C10.4791 8 11.8774 8.66267 12.8921 9.81334ZM15.3676 6.96C15.4234 7.02313 15.4672 7.09758 15.4965 7.17911C15.5258 7.26065 15.5401 7.34767 15.5385 7.4352C15.5369 7.52274 15.5195 7.60907 15.4872 7.68928C15.4549 7.76949 15.4085 7.842 15.3505 7.90267C15.2924 7.96334 15.224 8.01099 15.1491 8.04288C15.0741 8.07478 14.9941 8.0903 14.9137 8.08857C14.8332 8.08684 14.7539 8.06788 14.6802 8.03278C14.6064 7.99768 14.5398 7.94713 14.484 7.884C13.7735 7.07627 12.9197 6.43376 11.9743 5.99535C11.029 5.55693 10.0117 5.33172 8.98406 5.33334C7.96464 5.33192 6.95539 5.5537 6.0164 5.98549C5.0774 6.41728 4.22787 7.05023 3.51839 7.84667C3.40512 7.97362 3.25014 8.04642 3.08754 8.04904C2.92494 8.05167 2.76804 7.98391 2.65136 7.86067C2.53468 7.73743 2.46777 7.56881 2.46536 7.3919C2.46295 7.21499 2.52522 7.04429 2.63849 6.91734C3.46232 5.99291 4.44865 5.25825 5.53879 4.75706C6.62892 4.25588 7.80059 3.99842 8.98406 4C10.1769 3.9982 11.3578 4.25957 12.4552 4.76833C13.5526 5.27709 14.5438 6.02267 15.3688 6.96M17.8443 4.10934C17.95 4.23813 18.0057 4.40651 17.9995 4.57903C17.9934 4.75156 17.926 4.91478 17.8116 5.03434C17.6971 5.1539 17.5444 5.22046 17.3857 5.22003C17.227 5.21959 17.0747 5.15219 16.9607 5.032C15.9298 3.86115 14.6914 2.92975 13.3205 2.29405C11.9495 1.65835 10.4743 1.33154 8.98406 1.33334C7.50553 1.33181 6.04182 1.65373 4.67993 2.27996C3.31804 2.90619 2.08577 3.82395 1.05639 4.97867C1.00053 5.04247 0.933599 5.09359 0.859467 5.12907C0.785336 5.16455 0.705475 5.18368 0.624502 5.18538C0.54353 5.18707 0.463053 5.17128 0.387724 5.13892C0.312396 5.10656 0.24371 5.05827 0.185639 4.99686C0.127568 4.93544 0.0812645 4.8621 0.0494048 4.78109C0.0175451 4.70008 0.000761783 4.61301 2.53362e-05 4.52489C-0.00071111 4.43678 0.0146139 4.34939 0.0451142 4.26776C0.0756146 4.18613 0.120685 4.1119 0.17772 4.04934C1.3213 2.76678 2.69017 1.74741 4.20298 1.05179C5.71579 0.356168 7.34169 -0.00151117 8.98406 5.52656e-06C10.6395 -0.00163424 12.278 0.361641 13.8008 1.06791C15.3236 1.77418 16.6991 2.8088 17.8443 4.10934Z" fill="black"/>
<path d="M8.98406 14.6667C9.14657 14.6667 9.30242 14.5964 9.41733 14.4714C9.53224 14.3464 9.5968 14.1768 9.5968 14C9.5968 13.8232 9.53224 13.6536 9.41733 13.5286C9.30242 13.4036 9.14657 13.3333 8.98406 13.3333C8.82155 13.3333 8.66569 13.4036 8.55078 13.5286C8.43587 13.6536 8.37131 13.8232 8.37131 14C8.37131 14.1768 8.43587 14.3464 8.55078 14.4714C8.66569 14.5964 8.82155 14.6667 8.98406 14.6667Z" fill="#06AB00"/>
</svg>
