<svg width="18" height="16" viewBox="0 0 18 16" fill="none" xmlns="http://www.w3.org/2000/svg">
<path fill-rule="evenodd" clip-rule="evenodd" d="M9.29599 12.1971L10.8329 13.7239C10.8902 14.0927 10.8325 14.47 10.6675 14.8052C10.5024 15.1404 10.2381 15.4173 9.90987 15.5987C9.58168 15.7801 9.20544 15.8573 8.83176 15.8199C8.45809 15.7825 8.10491 15.6323 7.81974 15.3895C7.53458 15.1467 7.33111 14.8229 7.23671 14.4618C7.14231 14.1007 7.16152 13.7195 7.29174 13.3695C7.42197 13.0195 7.65696 12.7176 7.96511 12.5043C8.27325 12.291 8.63976 12.1766 9.01533 12.1764C9.11093 12.1764 9.20448 12.1833 9.29599 12.1971ZM6.31663 9.23843L7.22355 10.1394C6.76159 10.3561 6.34366 10.6553 5.99063 11.0222C5.878 11.1386 5.72344 11.2058 5.56095 11.209C5.39845 11.2122 5.24133 11.1511 5.12415 11.0392C5.00698 10.9273 4.93934 10.7738 4.93612 10.6123C4.9329 10.4509 4.99437 10.2948 5.10699 10.1784C5.46609 9.80703 5.8742 9.49169 6.31663 9.23843ZM3.69637 6.63528L4.57387 7.50584C4.19381 7.77731 3.83939 8.08255 3.51498 8.41779C3.4593 8.47551 3.39271 8.52177 3.31903 8.55393C3.24535 8.58609 3.16601 8.60351 3.08555 8.60521C3.00509 8.6069 2.92508 8.59284 2.85009 8.56382C2.77511 8.53479 2.70661 8.49138 2.64851 8.43606C2.5904 8.38073 2.54384 8.31458 2.51147 8.24138C2.4791 8.16818 2.46157 8.08936 2.45986 8.00943C2.45815 7.9295 2.47231 7.85001 2.50152 7.77551C2.53074 7.70101 2.57443 7.63296 2.63012 7.57524C2.96266 7.23189 3.31807 6.91857 3.69637 6.63528ZM14.4814 8.3837C13.3249 7.1981 11.8091 6.42184 10.1661 6.17382L8.85356 4.87225C10.0639 4.84894 11.2662 5.07331 12.3856 5.53141C13.5049 5.98951 14.5174 6.67154 15.3601 7.53506C15.4715 7.65119 15.5322 7.80629 15.5291 7.96666C15.526 8.12702 15.4593 8.27969 15.3436 8.39149C15.2278 8.50329 15.0723 8.56519 14.9108 8.56373C14.7494 8.56227 14.5951 8.49758 14.4814 8.3837ZM1.119 4.07474L1.98915 4.93921C1.65559 5.21189 1.33843 5.50379 1.03933 5.81342C0.92539 5.92317 0.773033 5.98472 0.614332 5.98512C0.455631 5.98552 0.302963 5.92473 0.188465 5.81556C0.073967 5.70638 0.006567 5.55733 0.000455856 5.39978C-0.00565529 5.24223 0.0499973 5.08847 0.155699 4.97087C0.462091 4.6543 0.78319 4.35559 1.119 4.07474ZM9.01533 2.4359C8.22173 2.4349 7.43033 2.51899 6.65489 2.68672L5.64502 1.68344C6.72597 1.37783 7.8584 1.21833 9.01533 1.21833C10.6578 1.21695 12.2838 1.54357 13.7967 2.1788C15.3097 2.81402 16.6786 3.74488 17.8223 4.91608C17.8793 4.9732 17.9244 5.041 17.9549 5.11554C17.9854 5.19008 18.0007 5.26988 18 5.35034C17.9992 5.4308 17.9825 5.51032 17.9506 5.5843C17.9187 5.65827 17.8724 5.72524 17.8143 5.78133C17.7563 5.83741 17.6876 5.88151 17.6122 5.91105C17.5369 5.9406 17.4564 5.95502 17.3755 5.95348C17.2945 5.95193 17.2146 5.93446 17.1405 5.90206C17.0663 5.86966 16.9994 5.82298 16.9435 5.76472C15.9141 4.71026 14.6817 3.87218 13.3198 3.30033C11.9578 2.72847 10.494 2.4345 9.01533 2.4359ZM8.58203 14.4332C8.69695 14.5474 8.85281 14.6115 9.01533 14.6115C9.17785 14.6115 9.33372 14.5474 9.44864 14.4332C9.56356 14.3191 9.62812 14.1642 9.62812 14.0028C9.62812 13.8413 9.56356 13.6865 9.44864 13.5723C9.33372 13.4581 9.17785 13.394 9.01533 13.394C8.85281 13.394 8.69695 13.4581 8.58203 13.5723C8.46711 13.6865 8.40255 13.8413 8.40255 14.0028C8.40255 14.1642 8.46711 14.3191 8.58203 14.4332Z" fill="black"/>
<path d="M15.6628 15.8291C15.7784 15.94 15.9332 16.0014 16.0938 16C16.2545 15.9986 16.4082 15.9346 16.5218 15.8217C16.6354 15.7088 16.6999 15.5561 16.7013 15.3965C16.7027 15.2369 16.6409 15.0831 16.5293 14.9683L9.00614 7.57341L1.48299 0.178534C1.36792 0.0642205 1.21186 0 1.04914 0C0.886412 0 0.73035 0.0642205 0.615286 0.178534C0.500221 0.292847 0.435579 0.447888 0.435579 0.609551C0.435579 0.771214 0.500221 0.926256 0.615286 1.04057L15.6628 15.8291Z" fill="#FF0000"/>
</svg>
