<svg width="20" height="16" viewBox="0 0 20 16" fill="none" xmlns="http://www.w3.org/2000/svg">
<path d="M0 9.23082C0 6.80772 1.52886 5.2551 3.46313 4.61782C3.79029 4.5104 4.14469 4.68515 4.25415 5.00724C4.36318 5.32924 4.18674 5.67818 3.85986 5.78609C2.33867 6.28728 1.25 7.43082 1.25 9.23082C1.25 11.3749 3.02146 12.9232 5.3125 12.9232H12.5146C12.8597 12.9233 13.1396 13.1987 13.1396 13.5385C13.1396 13.8783 12.8597 14.1538 12.5146 14.1539H5.3125C2.44729 14.1539 0 12.1637 0 9.23082ZM18.75 10.1539C18.75 9.21263 18.3376 8.56256 17.7502 8.12024C17.1426 7.66273 16.3332 7.42147 15.592 7.38346C15.284 7.36743 15.0344 7.13278 15.0037 6.83057C14.6847 3.66724 12.4965 1.84616 10 1.84616C9.09285 1.84616 8.3191 2.08145 7.67944 2.45675C7.38305 2.63066 6.99932 2.53567 6.82251 2.244C6.6458 1.95205 6.74328 1.57424 7.03979 1.40025C7.8696 0.913347 8.86356 0.615388 10 0.615388C13.0608 0.615388 15.6254 2.77388 16.1792 6.20917C16.9757 6.3261 17.8161 6.61982 18.5095 7.14187C19.3771 7.79513 20 8.79448 20 10.1539C20 11.4571 19.5109 12.4725 18.6731 13.1563C18.4073 13.3732 18.0132 13.3362 17.793 13.0746C17.573 12.813 17.6092 12.4248 17.8748 12.208C18.3979 11.781 18.75 11.1284 18.75 10.1539Z" fill="black"/>
<path d="M2.05806 0.180243C2.30214 -0.060081 2.69777 -0.060081 2.94185 0.180243L17.9418 14.9496C18.1859 15.1899 18.1859 15.5794 17.9418 15.8198C17.6978 16.0601 17.3021 16.0601 17.0581 15.8198L2.05806 1.05044C1.81398 0.810116 1.81398 0.420567 2.05806 0.180243Z" fill="#FF0000"/>
</svg>
