<svg width="57" height="44" viewBox="0 0 57 44" fill="none" xmlns="http://www.w3.org/2000/svg">
<g filter="url(#filter0_d_3909_12565)">
<rect x="2" y="2" width="53" height="40" rx="8" fill="white" shape-rendering="crispEdges"/>
<path d="M19.8853 30C19.3479 30 18.8995 29.824 18.5402 29.472C18.1808 29.12 18.0008 28.6804 18 28.1531V15.8469C18 15.3204 18.1801 14.8811 18.5402 14.5291C18.9003 14.1771 19.3483 14.0008 19.8842 14H37.1158C37.6525 14 38.1005 14.1764 38.4598 14.5291C38.8192 14.8819 38.9992 15.3211 39 15.8469V28.1543C39 28.68 38.8199 29.1192 38.4598 29.472C38.0997 29.8248 37.6517 30.0008 37.1158 30H19.8853ZM37.8333 16.1543L29.0227 21.8046C28.9402 21.8465 28.857 21.8819 28.773 21.9109C28.6882 21.939 28.5972 21.9531 28.5 21.9531C28.4028 21.9531 28.3118 21.939 28.227 21.9109C28.1422 21.8827 28.059 21.8472 27.9773 21.8046L19.1667 16.1531V28.1531C19.1667 28.3589 19.2339 28.5276 19.3685 28.6594C19.5031 28.7912 19.6753 28.8571 19.8853 28.8571H37.1158C37.3251 28.8571 37.4969 28.7912 37.6315 28.6594C37.7661 28.5276 37.8333 28.3589 37.8333 28.1531V16.1543ZM28.5 20.8571L37.474 15.1429H19.526L28.5 20.8571ZM19.1667 16.3954V15.4686V15.5074V15.1429V15.5086V15.4491V16.3954Z" fill="#0C8CE9"/>
</g>
<defs>
<filter id="filter0_d_3909_12565" x="0" y="0" width="57" height="44" filterUnits="userSpaceOnUse" color-interpolation-filters="sRGB">
<feFlood flood-opacity="0" result="BackgroundImageFix"/>
<feColorMatrix in="SourceAlpha" type="matrix" values="0 0 0 0 0 0 0 0 0 0 0 0 0 0 0 0 0 0 127 0" result="hardAlpha"/>
<feOffset/>
<feGaussianBlur stdDeviation="1"/>
<feComposite in2="hardAlpha" operator="out"/>
<feColorMatrix type="matrix" values="0 0 0 0 0 0 0 0 0 0 0 0 0 0 0 0 0 0 0.25 0"/>
<feBlend mode="normal" in2="BackgroundImageFix" result="effect1_dropShadow_3909_12565"/>
<feBlend mode="normal" in="SourceGraphic" in2="effect1_dropShadow_3909_12565" result="shape"/>
</filter>
</defs>
</svg>
