<svg width="151" height="44" viewBox="0 0 151 44" fill="none" xmlns="http://www.w3.org/2000/svg">
<g filter="url(#filter0_d_3899_8042)">
<rect x="2" y="2" width="147" height="40" rx="8" fill="white" fill-opacity="0.95" shape-rendering="crispEdges"/>
<path d="M20.8452 27V16.8182H24.4744C25.2666 16.8182 25.9228 16.9624 26.4432 17.2507C26.9635 17.5391 27.353 17.9335 27.6115 18.4339C27.87 18.9311 27.9993 19.4912 27.9993 20.1143C27.9993 20.7408 27.8684 21.3042 27.6065 21.8047C27.348 22.3018 26.9569 22.6963 26.4332 22.9879C25.9129 23.2763 25.2583 23.4205 24.4695 23.4205H21.9737V22.1179H24.3303C24.8307 22.1179 25.2367 22.0317 25.5483 21.8594C25.8598 21.6837 26.0885 21.4451 26.2344 21.1435C26.3802 20.8419 26.4531 20.4988 26.4531 20.1143C26.4531 19.7299 26.3802 19.3885 26.2344 19.0902C26.0885 18.7919 25.8582 18.5582 25.5433 18.3892C25.2318 18.2202 24.8208 18.1357 24.3104 18.1357H22.3814V27H20.8452ZM31.8349 27.169C31.351 27.169 30.9135 27.0795 30.5224 26.9006C30.1313 26.7183 29.8214 26.4548 29.5927 26.1101C29.3673 25.7654 29.2546 25.3428 29.2546 24.8423C29.2546 24.4115 29.3375 24.0568 29.5032 23.7784C29.6689 23.5 29.8926 23.2796 30.1744 23.1172C30.4561 22.9548 30.771 22.8321 31.119 22.7493C31.467 22.6664 31.8216 22.6035 32.1829 22.5604C32.6403 22.5073 33.0115 22.4643 33.2965 22.4311C33.5816 22.3946 33.7887 22.3366 33.918 22.2571C34.0472 22.1776 34.1119 22.0483 34.1119 21.8693V21.8345C34.1119 21.4003 33.9892 21.0639 33.744 20.8253C33.502 20.5866 33.1407 20.4673 32.6602 20.4673C32.1597 20.4673 31.7653 20.5784 31.4769 20.8004C31.1919 21.0192 30.9947 21.2628 30.8853 21.5312L29.4883 21.2131C29.654 20.7491 29.896 20.3745 30.2141 20.0895C30.5356 19.8011 30.9052 19.5923 31.3228 19.4631C31.7404 19.3305 32.1796 19.2642 32.6403 19.2642C32.9452 19.2642 33.2683 19.3007 33.6097 19.3736C33.9544 19.4432 34.2759 19.5724 34.5742 19.7614C34.8758 19.9503 35.1228 20.2204 35.315 20.5717C35.5072 20.9197 35.6033 21.3722 35.6033 21.929V27H34.1516V25.956H34.092C33.9959 26.1482 33.8517 26.3371 33.6594 26.5227C33.4672 26.7083 33.2203 26.8625 32.9187 26.9851C32.6171 27.1077 32.2558 27.169 31.8349 27.169ZM32.158 25.9759C32.569 25.9759 32.9203 25.8946 33.212 25.7322C33.507 25.5698 33.7307 25.3577 33.8832 25.0959C34.0389 24.8307 34.1168 24.5473 34.1168 24.2457V23.2614C34.0638 23.3144 33.9611 23.3641 33.8086 23.4105C33.6594 23.4536 33.4888 23.4917 33.2965 23.5249C33.1043 23.5547 32.917 23.5829 32.7347 23.6094C32.5524 23.6326 32.4 23.6525 32.2773 23.669C31.989 23.7055 31.7255 23.7668 31.4869 23.853C31.2515 23.9392 31.0626 24.0634 30.9201 24.2259C30.7809 24.3849 30.7113 24.5971 30.7113 24.8622C30.7113 25.2301 30.8472 25.5085 31.119 25.6974C31.3907 25.883 31.7371 25.9759 32.158 25.9759ZM42.4206 23.8331V19.3636H43.9121V27H42.4505V25.6776H42.3709C42.1953 26.0852 41.9135 26.425 41.5257 26.6967C41.1413 26.9652 40.6623 27.0994 40.089 27.0994C39.5984 27.0994 39.1642 26.9917 38.7864 26.7763C38.4119 26.5575 38.1169 26.2344 37.9015 25.8068C37.6893 25.3793 37.5833 24.8506 37.5833 24.2209V19.3636H39.0698V24.0419C39.0698 24.5623 39.214 24.9766 39.5023 25.2848C39.7907 25.593 40.1652 25.7472 40.6259 25.7472C40.9043 25.7472 41.181 25.6776 41.4561 25.5384C41.7346 25.3991 41.9649 25.1887 42.1472 24.907C42.3328 24.6252 42.4239 24.2673 42.4206 23.8331ZM51.6317 21.228L50.2844 21.4666C50.2281 21.2943 50.1386 21.1302 50.016 20.9744C49.8967 20.8187 49.7343 20.6911 49.5288 20.5916C49.3233 20.4922 49.0664 20.4425 48.7582 20.4425C48.3372 20.4425 47.9859 20.5369 47.7042 20.7259C47.4225 20.9115 47.2816 21.1518 47.2816 21.4467C47.2816 21.7019 47.3761 21.9074 47.565 22.0632C47.7539 22.219 48.0588 22.3466 48.4798 22.446L49.6928 22.7244C50.3955 22.8868 50.9192 23.1371 51.2638 23.4751C51.6085 23.8132 51.7809 24.2524 51.7809 24.7926C51.7809 25.25 51.6483 25.6577 51.3832 26.0156C51.1213 26.3703 50.7551 26.6487 50.2844 26.8509C49.8171 27.053 49.2752 27.1541 48.6587 27.1541C47.8036 27.1541 47.1059 26.9718 46.5657 26.6072C46.0254 26.2393 45.694 25.7173 45.5714 25.0412L47.0082 24.8224C47.0977 25.197 47.2816 25.4804 47.56 25.6726C47.8384 25.8615 48.2013 25.956 48.6488 25.956C49.136 25.956 49.5254 25.8549 49.8171 25.6527C50.1088 25.4472 50.2546 25.197 50.2546 24.902C50.2546 24.6634 50.1651 24.4628 49.9862 24.3004C49.8105 24.138 49.5404 24.0154 49.1758 23.9325L47.8832 23.6491C47.1706 23.4867 46.6436 23.2282 46.3022 22.8736C45.9641 22.5189 45.7951 22.0698 45.7951 21.5263C45.7951 21.0755 45.921 20.6811 46.1729 20.343C46.4248 20.005 46.7728 19.7415 47.217 19.5526C47.6611 19.3603 48.1699 19.2642 48.7433 19.2642C49.5685 19.2642 50.2182 19.4432 50.6921 19.8011C51.1661 20.1558 51.4793 20.6314 51.6317 21.228ZM56.7065 27.1541C55.9541 27.1541 55.3062 26.9934 54.7626 26.6719C54.2224 26.3471 53.8047 25.8913 53.5098 25.3047C53.2181 24.7147 53.0723 24.0237 53.0723 23.2315C53.0723 22.4493 53.2181 21.7599 53.5098 21.1634C53.8047 20.5668 54.2157 20.1011 54.7427 19.7663C55.273 19.4316 55.8928 19.2642 56.6021 19.2642C57.033 19.2642 57.4506 19.3355 57.8549 19.478C58.2593 19.6205 58.6222 19.8442 58.9437 20.1491C59.2652 20.4541 59.5188 20.8501 59.7044 21.3374C59.89 21.8213 59.9828 22.4096 59.9828 23.1023V23.6293H53.9125V22.5156H58.5261C58.5261 22.1245 58.4466 21.7782 58.2875 21.4766C58.1284 21.1716 57.9047 20.9313 57.6163 20.7557C57.3313 20.58 56.9965 20.4922 56.612 20.4922C56.1944 20.4922 55.8298 20.5949 55.5183 20.8004C55.21 21.0026 54.9714 21.2678 54.8024 21.5959C54.6367 21.9207 54.5538 22.2737 54.5538 22.6548V23.5249C54.5538 24.0353 54.6433 24.4695 54.8223 24.8274C55.0046 25.1854 55.2581 25.4588 55.5829 25.6477C55.9077 25.8333 56.2872 25.9261 56.7214 25.9261C57.0031 25.9261 57.26 25.8864 57.492 25.8068C57.724 25.724 57.9245 25.6013 58.0936 25.4389C58.2626 25.2765 58.3919 25.076 58.4814 24.8374L59.8883 25.0909C59.7756 25.5052 59.5734 25.8681 59.2818 26.1797C58.9934 26.4879 58.6305 26.7282 58.193 26.9006C57.7588 27.0696 57.2633 27.1541 56.7065 27.1541ZM66.3166 27H64.6859L68.35 16.8182H70.1248L73.7889 27H72.1582L69.2797 18.6676H69.2001L66.3166 27ZM66.59 23.0128H71.8798V24.3054H66.59V23.0128ZM78.2335 27.1541C77.4944 27.1541 76.858 26.9867 76.3244 26.652C75.7941 26.3139 75.3864 25.8482 75.1014 25.255C74.8163 24.6617 74.6738 23.9822 74.6738 23.2166C74.6738 22.4411 74.8197 21.7566 75.1113 21.1634C75.403 20.5668 75.814 20.1011 76.3443 19.7663C76.8746 19.4316 77.4993 19.2642 78.2186 19.2642C78.7986 19.2642 79.3156 19.3719 79.7697 19.5874C80.2238 19.7995 80.59 20.0978 80.8684 20.4822C81.1502 20.8667 81.3175 21.3158 81.3706 21.8295H79.9238C79.8443 21.4716 79.662 21.1634 79.377 20.9048C79.0952 20.6463 78.7174 20.517 78.2434 20.517C77.8291 20.517 77.4662 20.6264 77.1547 20.8452C76.8464 21.0606 76.6061 21.3688 76.4338 21.7699C76.2614 22.1676 76.1752 22.6383 76.1752 23.1818C76.1752 23.7386 76.2598 24.2192 76.4288 24.6236C76.5978 25.0279 76.8365 25.3411 77.1447 25.5632C77.4563 25.7853 77.8225 25.8963 78.2434 25.8963C78.5252 25.8963 78.7804 25.8449 79.0091 25.7422C79.2411 25.6361 79.435 25.4853 79.5907 25.2898C79.7498 25.0942 79.8609 24.8589 79.9238 24.5838H81.3706C81.3175 25.0777 81.1568 25.5185 80.8883 25.9062C80.6199 26.294 80.2602 26.599 79.8095 26.821C79.362 27.0431 78.8367 27.1541 78.2335 27.1541ZM86.1768 27.1541C85.4377 27.1541 84.8014 26.9867 84.2678 26.652C83.7375 26.3139 83.3298 25.8482 83.0447 25.255C82.7597 24.6617 82.6172 23.9822 82.6172 23.2166C82.6172 22.4411 82.763 21.7566 83.0547 21.1634C83.3464 20.5668 83.7573 20.1011 84.2876 19.7663C84.8179 19.4316 85.4427 19.2642 86.1619 19.2642C86.742 19.2642 87.259 19.3719 87.7131 19.5874C88.1671 19.7995 88.5334 20.0978 88.8118 20.4822C89.0935 20.8667 89.2609 21.3158 89.3139 21.8295H87.8672C87.7876 21.4716 87.6054 21.1634 87.3203 20.9048C87.0386 20.6463 86.6607 20.517 86.1868 20.517C85.7725 20.517 85.4096 20.6264 85.098 20.8452C84.7898 21.0606 84.5495 21.3688 84.3771 21.7699C84.2048 22.1676 84.1186 22.6383 84.1186 23.1818C84.1186 23.7386 84.2031 24.2192 84.3722 24.6236C84.5412 25.0279 84.7798 25.3411 85.0881 25.5632C85.3996 25.7853 85.7659 25.8963 86.1868 25.8963C86.4685 25.8963 86.7237 25.8449 86.9524 25.7422C87.1844 25.6361 87.3783 25.4853 87.5341 25.2898C87.6932 25.0942 87.8042 24.8589 87.8672 24.5838H89.3139C89.2609 25.0777 89.1001 25.5185 88.8317 25.9062C88.5632 26.294 88.2036 26.599 87.7528 26.821C87.3054 27.0431 86.7801 27.1541 86.1768 27.1541ZM94.1948 27.1541C93.4424 27.1541 92.7944 26.9934 92.2509 26.6719C91.7106 26.3471 91.293 25.8913 90.998 25.3047C90.7064 24.7147 90.5605 24.0237 90.5605 23.2315C90.5605 22.4493 90.7064 21.7599 90.998 21.1634C91.293 20.5668 91.704 20.1011 92.231 19.7663C92.7613 19.4316 93.3811 19.2642 94.0904 19.2642C94.5212 19.2642 94.9389 19.3355 95.3432 19.478C95.7476 19.6205 96.1105 19.8442 96.432 20.1491C96.7535 20.4541 97.007 20.8501 97.1926 21.3374C97.3783 21.8213 97.4711 22.4096 97.4711 23.1023V23.6293H91.4007V22.5156H96.0144C96.0144 22.1245 95.9348 21.7782 95.7757 21.4766C95.6167 21.1716 95.3929 20.9313 95.1046 20.7557C94.8195 20.58 94.4848 20.4922 94.1003 20.4922C93.6827 20.4922 93.3181 20.5949 93.0066 20.8004C92.6983 21.0026 92.4597 21.2678 92.2907 21.5959C92.1249 21.9207 92.0421 22.2737 92.0421 22.6548V23.5249C92.0421 24.0353 92.1316 24.4695 92.3105 24.8274C92.4928 25.1854 92.7464 25.4588 93.0712 25.6477C93.396 25.8333 93.7755 25.9261 94.2097 25.9261C94.4914 25.9261 94.7483 25.8864 94.9803 25.8068C95.2123 25.724 95.4128 25.6013 95.5819 25.4389C95.7509 25.2765 95.8801 25.076 95.9696 24.8374L97.3766 25.0909C97.2639 25.5052 97.0617 25.8681 96.7701 26.1797C96.4817 26.4879 96.1188 26.7282 95.6813 26.9006C95.2471 27.0696 94.7516 27.1541 94.1948 27.1541ZM104.843 21.228L103.495 21.4666C103.439 21.2943 103.35 21.1302 103.227 20.9744C103.108 20.8187 102.945 20.6911 102.74 20.5916C102.534 20.4922 102.277 20.4425 101.969 20.4425C101.548 20.4425 101.197 20.5369 100.915 20.7259C100.633 20.9115 100.493 21.1518 100.493 21.4467C100.493 21.7019 100.587 21.9074 100.776 22.0632C100.965 22.219 101.27 22.3466 101.691 22.446L102.904 22.7244C103.606 22.8868 104.13 23.1371 104.475 23.4751C104.819 23.8132 104.992 24.2524 104.992 24.7926C104.992 25.25 104.859 25.6577 104.594 26.0156C104.332 26.3703 103.966 26.6487 103.495 26.8509C103.028 27.053 102.486 27.1541 101.87 27.1541C101.015 27.1541 100.317 26.9718 99.7766 26.6072C99.2364 26.2393 98.9049 25.7173 98.7823 25.0412L100.219 24.8224C100.309 25.197 100.493 25.4804 100.771 25.6726C101.049 25.8615 101.412 25.956 101.86 25.956C102.347 25.956 102.736 25.8549 103.028 25.6527C103.32 25.4472 103.466 25.197 103.466 24.902C103.466 24.6634 103.376 24.4628 103.197 24.3004C103.021 24.138 102.751 24.0154 102.387 23.9325L101.094 23.6491C100.382 23.4867 99.8545 23.2282 99.5131 22.8736C99.1751 22.5189 99.006 22.0698 99.006 21.5263C99.006 21.0755 99.132 20.6811 99.3839 20.343C99.6358 20.005 99.9838 19.7415 100.428 19.5526C100.872 19.3603 101.381 19.2642 101.954 19.2642C102.779 19.2642 103.429 19.4432 103.903 19.8011C104.377 20.1558 104.69 20.6314 104.843 21.228ZM112.349 21.228L111.001 21.4666C110.945 21.2943 110.855 21.1302 110.733 20.9744C110.613 20.8187 110.451 20.6911 110.246 20.5916C110.04 20.4922 109.783 20.4425 109.475 20.4425C109.054 20.4425 108.703 20.5369 108.421 20.7259C108.139 20.9115 107.998 21.1518 107.998 21.4467C107.998 21.7019 108.093 21.9074 108.282 22.0632C108.471 22.219 108.776 22.3466 109.197 22.446L110.41 22.7244C111.112 22.8868 111.636 23.1371 111.981 23.4751C112.325 23.8132 112.498 24.2524 112.498 24.7926C112.498 25.25 112.365 25.6577 112.1 26.0156C111.838 26.3703 111.472 26.6487 111.001 26.8509C110.534 27.053 109.992 27.1541 109.376 27.1541C108.52 27.1541 107.823 26.9718 107.282 26.6072C106.742 26.2393 106.411 25.7173 106.288 25.0412L107.725 24.8224C107.814 25.197 107.998 25.4804 108.277 25.6726C108.555 25.8615 108.918 25.956 109.366 25.956C109.853 25.956 110.242 25.8549 110.534 25.6527C110.826 25.4472 110.971 25.197 110.971 24.902C110.971 24.6634 110.882 24.4628 110.703 24.3004C110.527 24.138 110.257 24.0154 109.893 23.9325L108.6 23.6491C107.887 23.4867 107.36 23.2282 107.019 22.8736C106.681 22.5189 106.512 22.0698 106.512 21.5263C106.512 21.0755 106.638 20.6811 106.89 20.343C107.142 20.005 107.49 19.7415 107.934 19.5526C108.378 19.3603 108.887 19.2642 109.46 19.2642C110.285 19.2642 110.935 19.4432 111.409 19.8011C111.883 20.1558 112.196 20.6314 112.349 21.228Z" fill="#CBB42C"/>
<path d="M121.727 29.1351V14.8684C121.727 14.6211 121.801 14.4148 121.949 14.2496C122.097 14.0832 122.281 14 122.502 14C122.723 14 122.907 14.0832 123.054 14.2496C123.202 14.416 123.276 14.6217 123.276 14.8666V29.1334C123.276 29.3806 123.202 29.5869 123.054 29.7521C122.906 29.9174 122.722 30 122.502 30C122.282 30 122.098 29.9174 121.949 29.7521C121.802 29.5869 121.728 29.3806 121.728 29.1334" fill="#CBB42C"/>
<path d="M129.727 29.1351V14.8684C129.727 14.6211 129.801 14.4148 129.949 14.2496C130.097 14.0832 130.281 14 130.502 14C130.723 14 130.907 14.0832 131.054 14.2496C131.202 14.416 131.276 14.6217 131.276 14.8666V29.1334C131.276 29.3806 131.202 29.5869 131.054 29.7521C130.906 29.9174 130.722 30 130.502 30C130.282 30 130.098 29.9174 129.949 29.7521C129.802 29.5869 129.728 29.3806 129.728 29.1334" fill="#CBB42C"/>
</g>
<defs>
<filter id="filter0_d_3899_8042" x="0" y="0" width="151" height="44" filterUnits="userSpaceOnUse" color-interpolation-filters="sRGB">
<feFlood flood-opacity="0" result="BackgroundImageFix"/>
<feColorMatrix in="SourceAlpha" type="matrix" values="0 0 0 0 0 0 0 0 0 0 0 0 0 0 0 0 0 0 127 0" result="hardAlpha"/>
<feOffset/>
<feGaussianBlur stdDeviation="1"/>
<feComposite in2="hardAlpha" operator="out"/>
<feColorMatrix type="matrix" values="0 0 0 0 0 0 0 0 0 0 0 0 0 0 0 0 0 0 0.25 0"/>
<feBlend mode="normal" in2="BackgroundImageFix" result="effect1_dropShadow_3899_8042"/>
<feBlend mode="normal" in="SourceGraphic" in2="effect1_dropShadow_3899_8042" result="shape"/>
</filter>
</defs>
</svg>
