<svg width="20" height="16" viewBox="0 0 20 16" fill="none" xmlns="http://www.w3.org/2000/svg">
<path fill-rule="evenodd" clip-rule="evenodd" d="M10.6683 0C7.83662 0 5.96198 1.34705 5.08999 3.47391C2.26205 3.75349 0 5.87321 0 8.5259C0 10.9938 1.6286 13.7387 4.75512 13.8146L6.17925 13.8163C6.52442 13.8163 6.80455 13.5591 6.80455 13.2416C6.80455 12.9244 6.52442 12.667 6.17925 12.667H4.75043C2.61222 12.667 1.19996 10.4843 1.19996 8.52588C1.19996 6.374 3.23657 4.64192 5.55957 4.59709L6.0101 4.58819L6.1439 4.19252C6.78921 2.27427 8.1846 1.14963 10.6683 1.14963C13.767 1.14963 15.7714 3.26098 15.7714 6.06021L15.7667 6.06682L15.7164 6.59351L16.2838 6.68344C17.6667 6.90182 18.7691 8.20546 18.7691 9.65048C18.7691 11.2857 17.3909 12.6669 15.7827 12.6669H13.9762C13.631 12.6669 13.3509 12.9241 13.3509 13.2416C13.3509 13.5588 13.631 13.8163 13.9762 13.8163H15.7827C18.0684 13.8163 20 11.9087 20 9.65048C20 7.80578 18.746 6.17716 17.0089 5.66656C16.7922 2.45874 14.2713 0 10.6683 0Z" fill="black"/>
<path d="M9.5265 8.05285C9.52994 8.0494 9.53121 8.04653 9.53342 8.04366L9.6916 7.89166C9.7782 7.80747 9.89357 7.7658 10.0089 7.76638C10.1243 7.76552 10.2391 7.80747 10.3272 7.89164L10.4854 8.04364C10.4885 8.04651 10.4892 8.04998 10.492 8.05285L12.749 10.3469C12.9238 10.5148 12.9238 10.7863 12.749 10.9547L12.5914 11.0529C12.4167 11.2207 12.1334 11.1664 11.9589 10.9986L10.628 9.63493V15.4253C10.628 15.7425 10.3478 16 10.0027 16C9.6575 16 9.37736 15.7425 9.37736 15.4253V9.64037L8.00232 11.0345C7.82755 11.2023 7.54491 11.2566 7.37045 11.0888L7.21288 10.9906C7.03808 10.8222 7.03808 10.5506 7.21288 10.3828L9.5265 8.05285Z" fill="#FF0000"/>
</svg>
