<svg width="9" height="8" viewBox="0 0 9 8" fill="none" xmlns="http://www.w3.org/2000/svg">
<path d="M4.05437 8C3.81297 8 3.57393 7.94827 3.35091 7.84776C3.12789 7.74725 2.92524 7.59993 2.75455 7.41421C2.58385 7.2285 2.44845 7.00802 2.35607 6.76537C2.26369 6.52272 2.21614 6.26264 2.21614 6C2.21614 5.73736 2.26369 5.47728 2.35607 5.23463C2.44845 4.99198 2.58385 4.7715 2.75455 4.58579C2.92524 4.40007 3.12789 4.25275 3.35091 4.15224C3.57393 4.05173 3.81297 4 4.05437 4C4.5419 4 5.00946 4.21071 5.35419 4.58579C5.69893 4.96086 5.8926 5.46957 5.8926 6C5.8926 6.53043 5.69893 7.03914 5.35419 7.41421C5.00946 7.78929 4.5419 8 4.05437 8ZM4.05437 6.66667C4.21688 6.66667 4.37273 6.59643 4.48764 6.47141C4.60256 6.34638 4.66711 6.17681 4.66711 6C4.66711 5.82319 4.60256 5.65362 4.48764 5.5286C4.37273 5.40357 4.21688 5.33333 4.05437 5.33333C3.89186 5.33333 3.73601 5.40357 3.62109 5.5286C3.50618 5.65362 3.44163 5.82319 3.44163 6C3.44163 6.17681 3.50618 6.34638 3.62109 6.47141C3.73601 6.59643 3.89186 6.66667 4.05437 6.66667ZM7.96244 1.81334C8.06814 1.94212 8.12378 2.1105 8.11767 2.28303C8.11156 2.45556 8.04417 2.61878 7.92968 2.73834C7.81519 2.85789 7.66253 2.92446 7.50384 2.92402C7.34515 2.92359 7.1928 2.85618 7.07887 2.736C6.68853 2.29123 6.21911 1.93751 5.69915 1.69637C5.1792 1.45524 4.61959 1.33172 4.05437 1.33334C2.90609 1.33334 1.83256 1.83734 1.04825 2.716C0.934563 2.8407 0.780234 2.91155 0.618803 2.91315C0.457372 2.91474 0.301884 2.84696 0.186127 2.72453C0.0703707 2.6021 0.00369978 2.43491 0.000601292 2.2593C-0.0024972 2.08369 0.0582275 1.91384 0.16958 1.78667C0.673542 1.22013 1.27729 0.769923 1.94476 0.462946C2.61223 0.155969 3.32972 -0.00148153 4.05437 2.86102e-06C5.54946 2.86102e-06 6.94774 0.662669 7.96244 1.81334Z" fill="black"/>
<path d="M4.05437 6.66667C4.21688 6.66667 4.37273 6.59643 4.48764 6.47141C4.60256 6.34638 4.66711 6.17681 4.66711 6C4.66711 5.82319 4.60256 5.65362 4.48764 5.5286C4.37273 5.40357 4.21688 5.33333 4.05437 5.33333C3.89186 5.33333 3.73601 5.40357 3.62109 5.5286C3.50618 5.65362 3.44163 5.82319 3.44163 6C3.44163 6.17681 3.50618 6.34638 3.62109 6.47141C3.73601 6.59643 3.89186 6.66667 4.05437 6.66667Z" fill="#06AB00"/>
</svg>
