<svg width="151" height="44" viewBox="0 0 151 44" fill="none" xmlns="http://www.w3.org/2000/svg">
<g filter="url(#filter0_d_3899_8035)">
<rect x="2" y="2" width="147" height="40" rx="8" fill="white" fill-opacity="0.95" shape-rendering="crispEdges"/>
<path d="M13.1186 27V16.8182H16.7479C17.5367 16.8182 18.1913 16.9541 18.7116 17.2259C19.2353 17.4976 19.6264 17.8738 19.8849 18.3544C20.1435 18.8317 20.2727 19.3835 20.2727 20.0099C20.2727 20.633 20.1418 21.1816 19.88 21.6555C19.6214 22.1262 19.2304 22.4924 18.7067 22.7543C18.1863 23.0161 17.5317 23.147 16.7429 23.147H13.9936V21.8246H16.6037C17.1009 21.8246 17.5052 21.7533 17.8168 21.6108C18.1316 21.4683 18.362 21.2611 18.5078 20.9893C18.6536 20.7176 18.7266 20.3911 18.7266 20.0099C18.7266 19.6255 18.652 19.2924 18.5028 19.0107C18.357 18.7289 18.1267 18.5135 17.8118 18.3643C17.5002 18.2119 17.0909 18.1357 16.5838 18.1357H14.6548V27H13.1186ZM18.1449 22.4062L20.6605 27H18.9105L16.4446 22.4062H18.1449ZM25.2182 27.1541C24.4658 27.1541 23.8179 26.9934 23.2743 26.6719C22.7341 26.3471 22.3165 25.8913 22.0215 25.3047C21.7298 24.7147 21.584 24.0237 21.584 23.2315C21.584 22.4493 21.7298 21.7599 22.0215 21.1634C22.3165 20.5668 22.7275 20.1011 23.2544 19.7663C23.7847 19.4316 24.4045 19.2642 25.1138 19.2642C25.5447 19.2642 25.9623 19.3355 26.3667 19.478C26.771 19.6205 27.1339 19.8442 27.4554 20.1491C27.7769 20.4541 28.0305 20.8501 28.2161 21.3374C28.4017 21.8213 28.4945 22.4096 28.4945 23.1023V23.6293H22.4242V22.5156H27.0378C27.0378 22.1245 26.9583 21.7782 26.7992 21.4766C26.6401 21.1716 26.4164 20.9313 26.128 20.7557C25.843 20.58 25.5082 20.4922 25.1238 20.4922C24.7061 20.4922 24.3416 20.5949 24.03 20.8004C23.7218 21.0026 23.4831 21.2678 23.3141 21.5959C23.1484 21.9207 23.0655 22.2737 23.0655 22.6548V23.5249C23.0655 24.0353 23.155 24.4695 23.334 24.8274C23.5163 25.1854 23.7698 25.4588 24.0946 25.6477C24.4194 25.8333 24.7989 25.9261 25.2331 25.9261C25.5149 25.9261 25.7717 25.8864 26.0037 25.8068C26.2357 25.724 26.4363 25.6013 26.6053 25.4389C26.7743 25.2765 26.9036 25.076 26.9931 24.8374L28.4 25.0909C28.2873 25.5052 28.0852 25.8681 27.7935 26.1797C27.5051 26.4879 27.1422 26.7282 26.7047 26.9006C26.2705 27.0696 25.775 27.1541 25.2182 27.1541ZM35.8661 21.228L34.5188 21.4666C34.4625 21.2943 34.373 21.1302 34.2504 20.9744C34.131 20.8187 33.9686 20.6911 33.7631 20.5916C33.5576 20.4922 33.3008 20.4425 32.9925 20.4425C32.5716 20.4425 32.2203 20.5369 31.9386 20.7259C31.6568 20.9115 31.516 21.1518 31.516 21.4467C31.516 21.7019 31.6104 21.9074 31.7994 22.0632C31.9883 22.219 32.2932 22.3466 32.7141 22.446L33.9272 22.7244C34.6299 22.8868 35.1535 23.1371 35.4982 23.4751C35.8429 23.8132 36.0153 24.2524 36.0153 24.7926C36.0153 25.25 35.8827 25.6577 35.6175 26.0156C35.3557 26.3703 34.9895 26.6487 34.5188 26.8509C34.0515 27.053 33.5096 27.1541 32.8931 27.1541C32.038 27.1541 31.3403 26.9718 30.8001 26.6072C30.2598 26.2393 29.9284 25.7173 29.8058 25.0412L31.2425 24.8224C31.332 25.197 31.516 25.4804 31.7944 25.6726C32.0728 25.8615 32.4357 25.956 32.8832 25.956C33.3704 25.956 33.7598 25.8549 34.0515 25.6527C34.3432 25.4472 34.489 25.197 34.489 24.902C34.489 24.6634 34.3995 24.4628 34.2205 24.3004C34.0449 24.138 33.7747 24.0154 33.4102 23.9325L32.1175 23.6491C31.4049 23.4867 30.878 23.2282 30.5366 22.8736C30.1985 22.5189 30.0295 22.0698 30.0295 21.5263C30.0295 21.0755 30.1554 20.6811 30.4073 20.343C30.6592 20.005 31.0072 19.7415 31.4513 19.5526C31.8955 19.3603 32.4042 19.2642 32.9776 19.2642C33.8029 19.2642 34.4525 19.4432 34.9265 19.8011C35.4005 20.1558 35.7137 20.6314 35.8661 21.228ZM42.487 23.8331V19.3636H43.9785V27H42.5169V25.6776H42.4373C42.2617 26.0852 41.9799 26.425 41.5922 26.6967C41.2077 26.9652 40.7288 27.0994 40.1554 27.0994C39.6648 27.0994 39.2306 26.9917 38.8528 26.7763C38.4783 26.5575 38.1833 26.2344 37.9679 25.8068C37.7557 25.3793 37.6497 24.8506 37.6497 24.2209V19.3636H39.1362V24.0419C39.1362 24.5623 39.2804 24.9766 39.5687 25.2848C39.8571 25.593 40.2316 25.7472 40.6923 25.7472C40.9707 25.7472 41.2475 25.6776 41.5225 25.5384C41.801 25.3991 42.0313 25.1887 42.2136 24.907C42.3992 24.6252 42.4904 24.2673 42.487 23.8331ZM45.9759 27V19.3636H47.4027V20.6065H47.4972C47.6563 20.1856 47.9164 19.8575 48.2777 19.6222C48.639 19.3835 49.0715 19.2642 49.5753 19.2642C50.0857 19.2642 50.5133 19.3835 50.858 19.6222C51.206 19.8608 51.4628 20.1889 51.6286 20.6065H51.7081C51.8904 20.1989 52.1804 19.8741 52.5781 19.6321C52.9759 19.3868 53.4498 19.2642 54 19.2642C54.6927 19.2642 55.2578 19.4813 55.6953 19.9155C56.1361 20.3497 56.3565 21.0043 56.3565 21.8793V27H54.87V22.0185C54.87 21.5014 54.7292 21.1269 54.4474 20.8949C54.1657 20.6629 53.8293 20.5469 53.4382 20.5469C52.9543 20.5469 52.5781 20.696 52.3097 20.9943C52.0412 21.2893 51.907 21.6688 51.907 22.1328V27H50.4254V21.924C50.4254 21.5097 50.2962 21.1766 50.0376 20.9247C49.7791 20.6728 49.4427 20.5469 49.0284 20.5469C48.7467 20.5469 48.4865 20.6214 48.2479 20.7706C48.0125 20.9164 47.822 21.1203 47.6761 21.3821C47.5336 21.6439 47.4624 21.9472 47.4624 22.2919V27H45.9759ZM61.6401 27.1541C60.8877 27.1541 60.2398 26.9934 59.6962 26.6719C59.156 26.3471 58.7383 25.8913 58.4434 25.3047C58.1517 24.7147 58.0059 24.0237 58.0059 23.2315C58.0059 22.4493 58.1517 21.7599 58.4434 21.1634C58.7383 20.5668 59.1493 20.1011 59.6763 19.7663C60.2066 19.4316 60.8264 19.2642 61.5357 19.2642C61.9666 19.2642 62.3842 19.3355 62.7885 19.478C63.1929 19.6205 63.5558 19.8442 63.8773 20.1491C64.1988 20.4541 64.4524 20.8501 64.638 21.3374C64.8236 21.8213 64.9164 22.4096 64.9164 23.1023V23.6293H58.8461V22.5156H63.4597C63.4597 22.1245 63.3801 21.7782 63.2211 21.4766C63.062 21.1716 62.8382 20.9313 62.5499 20.7557C62.2649 20.58 61.9301 20.4922 61.5456 20.4922C61.128 20.4922 60.7634 20.5949 60.4519 20.8004C60.1436 21.0026 59.905 21.2678 59.736 21.5959C59.5703 21.9207 59.4874 22.2737 59.4874 22.6548V23.5249C59.4874 24.0353 59.5769 24.4695 59.7559 24.8274C59.9382 25.1854 60.1917 25.4588 60.5165 25.6477C60.8413 25.8333 61.2208 25.9261 61.655 25.9261C61.9367 25.9261 62.1936 25.8864 62.4256 25.8068C62.6576 25.724 62.8581 25.6013 63.0272 25.4389C63.1962 25.2765 63.3255 25.076 63.415 24.8374L64.8219 25.0909C64.7092 25.5052 64.507 25.8681 64.2154 26.1797C63.927 26.4879 63.5641 26.7282 63.1266 26.9006C62.6924 27.0696 62.1969 27.1541 61.6401 27.1541ZM71.2502 27H69.6195L73.2836 16.8182H75.0584L78.7225 27H77.0918L74.2132 18.6676H74.1337L71.2502 27ZM71.5236 23.0128H76.8134V24.3054H71.5236V23.0128ZM83.1671 27.1541C82.428 27.1541 81.7916 26.9867 81.258 26.652C80.7277 26.3139 80.32 25.8482 80.035 25.255C79.7499 24.6617 79.6074 23.9822 79.6074 23.2166C79.6074 22.4411 79.7533 21.7566 80.0449 21.1634C80.3366 20.5668 80.7476 20.1011 81.2779 19.7663C81.8082 19.4316 82.4329 19.2642 83.1522 19.2642C83.7322 19.2642 84.2492 19.3719 84.7033 19.5874C85.1574 19.7995 85.5236 20.0978 85.802 20.4822C86.0837 20.8667 86.2511 21.3158 86.3042 21.8295H84.8574C84.7779 21.4716 84.5956 21.1634 84.3105 20.9048C84.0288 20.6463 83.651 20.517 83.177 20.517C82.7627 20.517 82.3998 20.6264 82.0882 20.8452C81.78 21.0606 81.5397 21.3688 81.3674 21.7699C81.195 22.1676 81.1088 22.6383 81.1088 23.1818C81.1088 23.7386 81.1934 24.2192 81.3624 24.6236C81.5314 25.0279 81.7701 25.3411 82.0783 25.5632C82.3899 25.7853 82.7561 25.8963 83.177 25.8963C83.4587 25.8963 83.714 25.8449 83.9426 25.7422C84.1747 25.6361 84.3685 25.4853 84.5243 25.2898C84.6834 25.0942 84.7944 24.8589 84.8574 24.5838H86.3042C86.2511 25.0777 86.0904 25.5185 85.8219 25.9062C85.5534 26.294 85.1938 26.599 84.7431 26.821C84.2956 27.0431 83.7703 27.1541 83.1671 27.1541ZM91.1104 27.1541C90.3713 27.1541 89.735 26.9867 89.2013 26.652C88.671 26.3139 88.2634 25.8482 87.9783 25.255C87.6933 24.6617 87.5508 23.9822 87.5508 23.2166C87.5508 22.4411 87.6966 21.7566 87.9883 21.1634C88.2799 20.5668 88.6909 20.1011 89.2212 19.7663C89.7515 19.4316 90.3763 19.2642 91.0955 19.2642C91.6755 19.2642 92.1926 19.3719 92.6467 19.5874C93.1007 19.7995 93.467 20.0978 93.7454 20.4822C94.0271 20.8667 94.1945 21.3158 94.2475 21.8295H92.8008C92.7212 21.4716 92.5389 21.1634 92.2539 20.9048C91.9722 20.6463 91.5943 20.517 91.1204 20.517C90.7061 20.517 90.3432 20.6264 90.0316 20.8452C89.7234 21.0606 89.4831 21.3688 89.3107 21.7699C89.1384 22.1676 89.0522 22.6383 89.0522 23.1818C89.0522 23.7386 89.1367 24.2192 89.3058 24.6236C89.4748 25.0279 89.7134 25.3411 90.0217 25.5632C90.3332 25.7853 90.6995 25.8963 91.1204 25.8963C91.4021 25.8963 91.6573 25.8449 91.886 25.7422C92.118 25.6361 92.3119 25.4853 92.4677 25.2898C92.6268 25.0942 92.7378 24.8589 92.8008 24.5838H94.2475C94.1945 25.0777 94.0337 25.5185 93.7653 25.9062C93.4968 26.294 93.1372 26.599 92.6864 26.821C92.239 27.0431 91.7137 27.1541 91.1104 27.1541ZM99.1284 27.1541C98.376 27.1541 97.728 26.9934 97.1845 26.6719C96.6442 26.3471 96.2266 25.8913 95.9316 25.3047C95.64 24.7147 95.4941 24.0237 95.4941 23.2315C95.4941 22.4493 95.64 21.7599 95.9316 21.1634C96.2266 20.5668 96.6376 20.1011 97.1646 19.7663C97.6949 19.4316 98.3147 19.2642 99.024 19.2642C99.4548 19.2642 99.8725 19.3355 100.277 19.478C100.681 19.6205 101.044 19.8442 101.366 20.1491C101.687 20.4541 101.941 20.8501 102.126 21.3374C102.312 21.8213 102.405 22.4096 102.405 23.1023V23.6293H96.3343V22.5156H100.948C100.948 22.1245 100.868 21.7782 100.709 21.4766C100.55 21.1716 100.327 20.9313 100.038 20.7557C99.7531 20.58 99.4184 20.4922 99.0339 20.4922C98.6163 20.4922 98.2517 20.5949 97.9402 20.8004C97.6319 21.0026 97.3933 21.2678 97.2243 21.5959C97.0585 21.9207 96.9757 22.2737 96.9757 22.6548V23.5249C96.9757 24.0353 97.0652 24.4695 97.2441 24.8274C97.4264 25.1854 97.68 25.4588 98.0048 25.6477C98.3296 25.8333 98.7091 25.9261 99.1433 25.9261C99.425 25.9261 99.6819 25.8864 99.9139 25.8068C100.146 25.724 100.346 25.6013 100.515 25.4389C100.684 25.2765 100.814 25.076 100.903 24.8374L102.31 25.0909C102.198 25.5052 101.995 25.8681 101.704 26.1797C101.415 26.4879 101.052 26.7282 100.615 26.9006C100.181 27.0696 99.6852 27.1541 99.1284 27.1541ZM109.776 21.228L108.429 21.4666C108.373 21.2943 108.283 21.1302 108.161 20.9744C108.041 20.8187 107.879 20.6911 107.673 20.5916C107.468 20.4922 107.211 20.4425 106.903 20.4425C106.482 20.4425 106.13 20.5369 105.849 20.7259C105.567 20.9115 105.426 21.1518 105.426 21.4467C105.426 21.7019 105.521 21.9074 105.71 22.0632C105.898 22.219 106.203 22.3466 106.624 22.446L107.837 22.7244C108.54 22.8868 109.064 23.1371 109.408 23.4751C109.753 23.8132 109.925 24.2524 109.925 24.7926C109.925 25.25 109.793 25.6577 109.528 26.0156C109.266 26.3703 108.9 26.6487 108.429 26.8509C107.962 27.053 107.42 27.1541 106.803 27.1541C105.948 27.1541 105.25 26.9718 104.71 26.6072C104.17 26.2393 103.839 25.7173 103.716 25.0412L105.153 24.8224C105.242 25.197 105.426 25.4804 105.705 25.6726C105.983 25.8615 106.346 25.956 106.793 25.956C107.281 25.956 107.67 25.8549 107.962 25.6527C108.253 25.4472 108.399 25.197 108.399 24.902C108.399 24.6634 108.31 24.4628 108.131 24.3004C107.955 24.138 107.685 24.0154 107.32 23.9325L106.028 23.6491C105.315 23.4867 104.788 23.2282 104.447 22.8736C104.109 22.5189 103.94 22.0698 103.94 21.5263C103.94 21.0755 104.066 20.6811 104.317 20.343C104.569 20.005 104.917 19.7415 105.362 19.5526C105.806 19.3603 106.314 19.2642 106.888 19.2642C107.713 19.2642 108.363 19.4432 108.837 19.8011C109.311 20.1558 109.624 20.6314 109.776 21.228ZM117.282 21.228L115.935 21.4666C115.878 21.2943 115.789 21.1302 115.666 20.9744C115.547 20.8187 115.385 20.6911 115.179 20.5916C114.974 20.4922 114.717 20.4425 114.409 20.4425C113.988 20.4425 113.636 20.5369 113.355 20.7259C113.073 20.9115 112.932 21.1518 112.932 21.4467C112.932 21.7019 113.026 21.9074 113.215 22.0632C113.404 22.219 113.709 22.3466 114.13 22.446L115.343 22.7244C116.046 22.8868 116.57 23.1371 116.914 23.4751C117.259 23.8132 117.431 24.2524 117.431 24.7926C117.431 25.25 117.299 25.6577 117.034 26.0156C116.772 26.3703 116.405 26.6487 115.935 26.8509C115.468 27.053 114.926 27.1541 114.309 27.1541C113.454 27.1541 112.756 26.9718 112.216 26.6072C111.676 26.2393 111.344 25.7173 111.222 25.0412L112.659 24.8224C112.748 25.197 112.932 25.4804 113.21 25.6726C113.489 25.8615 113.852 25.956 114.299 25.956C114.786 25.956 115.176 25.8549 115.468 25.6527C115.759 25.4472 115.905 25.197 115.905 24.902C115.905 24.6634 115.816 24.4628 115.637 24.3004C115.461 24.138 115.191 24.0154 114.826 23.9325L113.534 23.6491C112.821 23.4867 112.294 23.2282 111.953 22.8736C111.615 22.5189 111.445 22.0698 111.445 21.5263C111.445 21.0755 111.571 20.6811 111.823 20.343C112.075 20.005 112.423 19.7415 112.867 19.5526C113.311 19.3603 113.82 19.2642 114.394 19.2642C115.219 19.2642 115.869 19.4432 116.343 19.8011C116.816 20.1558 117.13 20.6314 117.282 21.228Z" fill="#06AB00"/>
<path d="M129.102 29.7897L138.313 23.3961C138.557 23.2225 138.733 23.0169 138.84 22.7792C138.947 22.5415 139 22.2824 139 22.002C139 21.7216 138.947 21.4619 138.84 21.2228C138.733 20.9838 138.557 20.7788 138.313 20.6079L129.102 14.2103C128.98 14.1369 128.862 14.0835 128.748 14.0501C128.633 14.0167 128.515 14 128.394 14C128.023 14 127.698 14.1469 127.419 14.4407C127.141 14.7344 127.001 15.1264 127 15.6164V28.3816C127 28.873 127.14 29.2656 127.419 29.5593C127.699 29.8531 128.024 30 128.394 30C128.516 30 128.634 29.9833 128.748 29.9499C128.862 29.9165 128.98 29.8631 129.102 29.7897ZM128.727 27.6124V16.3896L136.807 22.002L128.727 27.6124Z" fill="#06AB00"/>
</g>
<defs>
<filter id="filter0_d_3899_8035" x="0" y="0" width="151" height="44" filterUnits="userSpaceOnUse" color-interpolation-filters="sRGB">
<feFlood flood-opacity="0" result="BackgroundImageFix"/>
<feColorMatrix in="SourceAlpha" type="matrix" values="0 0 0 0 0 0 0 0 0 0 0 0 0 0 0 0 0 0 127 0" result="hardAlpha"/>
<feOffset/>
<feGaussianBlur stdDeviation="1"/>
<feComposite in2="hardAlpha" operator="out"/>
<feColorMatrix type="matrix" values="0 0 0 0 0 0 0 0 0 0 0 0 0 0 0 0 0 0 0.25 0"/>
<feBlend mode="normal" in2="BackgroundImageFix" result="effect1_dropShadow_3899_8035"/>
<feBlend mode="normal" in="SourceGraphic" in2="effect1_dropShadow_3899_8035" result="shape"/>
</filter>
</defs>
</svg>
