<svg width="22" height="16" viewBox="0 0 22 16" fill="none" xmlns="http://www.w3.org/2000/svg">
<path fill-rule="evenodd" clip-rule="evenodd" d="M5.5 16C3.98 16 2.68333 15.4767 1.61 14.43C0.536667 13.3767 0 12.0933 0 10.58C0 9.28 0.39 8.12 1.17 7.1C1.95667 6.08 2.98333 5.43 4.25 5.15C4.67 3.61667 5.50333 2.37667 6.75 1.43C8.00333 0.476667 9.42 0 11 0C12.9533 0 14.6067 0.68 15.96 2.04C17.32 3.39333 18 5.04667 18 7C19.1533 7.13333 20.1067 7.63333 20.86 8.5C21.62 9.35333 22 10.3533 22 11.5C22 12.7533 21.5633 13.8167 20.69 14.69C19.8167 15.5633 18.7533 16 17.5 16H5.5ZM13.55 5.9L15 7.35L9 12.5L5.8 9.45L7.23 8.03L9.33 10.13L13.55 5.9Z" fill="white"/>
<path d="M15 7.35L13.55 5.9L9.33 10.13L7.23 8.03L5.8 9.45L9 12.5L15 7.35Z" fill="#06AB00"/>
<path d="M11 0.5C12.8229 0.5 14.3479 1.12885 15.6055 2.39258L15.6074 2.39453C16.8712 3.65212 17.5 5.17705 17.5 7V7.44531L17.9424 7.49707C18.9733 7.61625 19.812 8.05681 20.4824 8.82812L20.4863 8.83301C21.1644 9.59439 21.5 10.4755 21.5 11.5C21.5 12.6229 21.1149 13.5589 20.3369 14.3369C19.5589 15.1149 18.6229 15.5 17.5 15.5H5.5C4.19526 15.5 3.08458 15.0836 2.14453 14.2451L1.95898 14.0723C0.98287 13.1138 0.500018 11.9596 0.5 10.5801C0.5 9.38896 0.854674 8.33657 1.56641 7.40527C2.28089 6.47899 3.20543 5.89354 4.3584 5.63867L4.65234 5.57324L4.73242 5.28223C5.0994 3.94248 5.79984 2.85152 6.83984 1.99609L7.05273 1.82812C8.21872 0.94123 9.52895 0.5 11 0.5ZM13.1963 5.54688L9.3291 9.42188L7.23145 7.32422L6.87793 7.6748L5.44727 9.09473L5.08301 9.45703L5.45508 9.81152L8.65527 12.8623L8.98242 13.1738L9.3252 12.8799L15.3252 7.72949L15.7354 7.37793L15.3535 6.99609L13.9033 5.54688L13.5498 5.19238L13.1963 5.54688ZM14.2646 7.32129L9.01758 11.8252L6.5166 9.44238L7.22754 8.73535L8.97656 10.4834L9.33008 10.8379L9.68359 10.4834L13.5498 6.60742L14.2646 7.32129Z" stroke="black"/>
</svg>
