<svg width="16" height="16" viewBox="0 0 16 16" fill="none" xmlns="http://www.w3.org/2000/svg">
<path d="M1.73091 5.09091C2.28569 3.8958 3.17063 2.88424 4.28139 2.17552C5.39215 1.4668 6.6824 1.09047 8 1.09091C9.53931 1.09056 11.0347 1.60427 12.2488 2.55053C13.4629 3.49679 14.3262 4.8214 14.7018 6.31418C14.7369 6.4546 14.8264 6.57533 14.9505 6.64979C15.0746 6.72426 15.2232 6.74638 15.3636 6.71127C15.5041 6.67617 15.6248 6.58672 15.6992 6.4626C15.7737 6.33849 15.7958 6.18987 15.7607 6.04945C14.8895 2.57382 11.7455 8.41254e-08 8 8.41254e-08C6.60235 -0.000202576 5.22904 0.365759 4.01684 1.06144C2.80463 1.75712 1.79583 2.75824 1.09091 3.96509V2.72727C1.09091 2.58261 1.03344 2.44387 0.931149 2.34158C0.828857 2.23929 0.690118 2.18182 0.545455 2.18182C0.400791 2.18182 0.262053 2.23929 0.15976 2.34158C0.0574674 2.44387 2.15565e-09 2.58261 0 2.72727V5.45455C0 5.64743 0.0766231 5.83241 0.213013 5.9688C0.349403 6.1052 0.534388 6.18182 0.727273 6.18182H3.45455C3.59921 6.18182 3.73795 6.12435 3.84024 6.02206C3.94253 5.91977 4 5.78103 4 5.63636C4 5.4917 3.94253 5.35296 3.84024 5.25067C3.73795 5.14838 3.59921 5.09091 3.45455 5.09091H1.73091ZM1.29818 9.68582C1.26138 9.54734 1.17157 9.4289 1.04816 9.3561C0.924748 9.2833 0.777646 9.26198 0.638645 9.29676C0.499643 9.33153 0.379907 9.4196 0.305313 9.54194C0.230719 9.66428 0.207258 9.81105 0.24 9.95055C1.11055 13.4262 4.25455 16 8 16C10.9469 16 13.5215 14.4065 14.9091 12.0356V13.2727C14.9091 13.4174 14.9666 13.5561 15.0689 13.6584C15.1711 13.7607 15.3099 13.8182 15.4545 13.8182C15.5992 13.8182 15.7379 13.7607 15.8402 13.6584C15.9425 13.5561 16 13.4174 16 13.2727V10.5455C16 10.3526 15.9234 10.1676 15.787 10.0312C15.6506 9.89481 15.4656 9.81818 15.2727 9.81818H12.5455C12.4008 9.81818 12.2621 9.87565 12.1598 9.97794C12.0575 10.0802 12 10.219 12 10.3636C12 10.5083 12.0575 10.647 12.1598 10.7493C12.2621 10.8516 12.4008 10.9091 12.5455 10.9091H14.2691C13.7143 12.1042 12.8294 13.1158 11.7186 13.8245C10.6079 14.5332 9.3176 14.9095 8 14.9091C4.76655 14.9091 2.05018 12.6873 1.29818 9.68582Z" fill="white"/>
</svg>
