<svg width="83" height="81" viewBox="0 0 83 81" fill="none" xmlns="http://www.w3.org/2000/svg">
<g filter="url(#filter0_d_3401_7729)">
<rect x="4" y="4" width="75" height="73" rx="16" fill="#DDDEDE" shape-rendering="crispEdges"/>
<path d="M57.5 56.5L49.7792 48.7792M49.7792 48.7792C51.0999 47.4585 52.1475 45.8907 52.8622 44.1651C53.577 42.4396 53.9449 40.5901 53.9449 38.7224C53.9449 36.8547 53.577 35.0053 52.8622 33.2797C52.1475 31.5542 51.0999 29.9863 49.7792 28.6657C48.4585 27.345 46.8907 26.2974 45.1651 25.5826C43.4396 24.8679 41.5901 24.5 39.7224 24.5C37.8547 24.5 36.0053 24.8679 34.2797 25.5826C32.5542 26.2974 30.9863 27.345 29.6657 28.6657C26.9984 31.3329 25.5 34.9504 25.5 38.7224C25.5 42.4944 26.9984 46.112 29.6657 48.7792C32.3329 51.4464 35.9504 52.9449 39.7224 52.9449C43.4944 52.9449 47.112 51.4464 49.7792 48.7792ZM34.3892 38.7224H45.0557" stroke="black" stroke-width="2" stroke-linecap="round" stroke-linejoin="round"/>
</g>
<defs>
<filter id="filter0_d_3401_7729" x="0" y="0" width="83" height="81" filterUnits="userSpaceOnUse" color-interpolation-filters="sRGB">
<feFlood flood-opacity="0" result="BackgroundImageFix"/>
<feColorMatrix in="SourceAlpha" type="matrix" values="0 0 0 0 0 0 0 0 0 0 0 0 0 0 0 0 0 0 127 0" result="hardAlpha"/>
<feOffset/>
<feGaussianBlur stdDeviation="2"/>
<feComposite in2="hardAlpha" operator="out"/>
<feColorMatrix type="matrix" values="0 0 0 0 0 0 0 0 0 0 0 0 0 0 0 0 0 0 0.25 0"/>
<feBlend mode="normal" in2="BackgroundImageFix" result="effect1_dropShadow_3401_7729"/>
<feBlend mode="normal" in="SourceGraphic" in2="effect1_dropShadow_3401_7729" result="shape"/>
</filter>
</defs>
</svg>
